<svg width="111" height="116" viewBox="0 0 111 116" fill="none" xmlns="http://www.w3.org/2000/svg">
<path fill-rule="evenodd" clip-rule="evenodd" d="M30.3168 93.4647C29.111 90.8678 27.1146 88.7189 24.6133 87.3256C20.638 85.2839 16.6371 84.7257 14.4425 80.5974C14.4425 80.5974 11.1302 88.3304 16.4368 96.8782C21.7434 105.426 30.3168 102.358 30.3168 102.358V93.4647Z" fill="#00D7F9"/>
<path d="M30.4641 101.284C29.1293 95.6217 21.7142 90.5062 19.4031 89.0282C19.1689 88.868 18.9384 88.7248 18.7133 88.6035C18.6784 88.5852 18.6378 88.5812 18.6 88.5924C18.5622 88.6035 18.5302 88.6289 18.5109 88.6632C18.4915 88.6975 18.4862 88.738 18.4961 88.7761C18.506 88.8142 18.5304 88.8469 18.564 88.8674C22.3131 90.9583 27.9498 98.9115 30.1887 102.438C30.2103 102.472 30.2446 102.496 30.284 102.505C30.3233 102.513 30.3645 102.506 30.3986 102.485C30.4449 102.086 30.4668 101.685 30.4641 101.284Z" fill="white"/>
<path fill-rule="evenodd" clip-rule="evenodd" d="M30.3168 102.358C30.3168 102.358 24.5685 93.7247 16.4381 96.8786C8.30773 100.032 4.19278 106.687 0.750717 108.072C2.90149 108.724 5.01266 109.5 7.07361 110.396C8.97758 111.359 25.0217 114.81 30.3581 105.68L30.3168 102.358Z" fill="#00D7F9"/>
<path d="M30.511 105.418C30.4416 105.377 30.3588 105.366 30.281 105.386C30.2032 105.406 30.1366 105.457 30.096 105.526C24.9993 114.248 9.3453 111.204 7.21017 110.125C5.3742 109.306 3.48976 108.6 1.56743 108.011C4.93912 106.094 8.97337 100.1 16.5498 97.1612C24.3568 94.1311 30.0098 102.44 30.0663 102.527C30.1109 102.594 30.1803 102.64 30.2592 102.656C30.3382 102.672 30.4201 102.655 30.487 102.611C30.554 102.566 30.6004 102.497 30.6162 102.418C30.632 102.339 30.6157 102.257 30.5711 102.19C30.5134 102.102 24.7093 93.5741 16.5783 96.5095C15.1815 94.2669 14.2752 91.754 13.9189 89.1361C13.5626 86.5182 13.7645 83.8546 14.5111 81.3202C16.8204 85.036 20.7096 85.6609 24.4781 87.5958C28.3037 89.5605 30.0226 93.5419 30.0396 93.5826C30.0726 93.6539 30.132 93.7097 30.2054 93.738C30.2787 93.7664 30.3602 93.7652 30.4326 93.7347C30.5051 93.7042 30.5629 93.6467 30.5938 93.5744C30.6247 93.5021 30.6264 93.4206 30.5984 93.3472C29.3731 90.6795 27.3254 88.4746 24.7554 87.0558C20.7321 84.9929 16.8544 84.482 14.7132 80.4556C14.6862 80.4053 14.6457 80.3636 14.5961 80.3353C14.5465 80.307 14.4899 80.2933 14.4329 80.2957C14.3759 80.2981 14.3207 80.3165 14.2737 80.3489C14.2266 80.3813 14.1897 80.4263 14.1671 80.4787C13.2494 83.1543 12.9379 86.0005 13.2552 88.8113C13.5724 91.622 14.5104 94.3272 16.0013 96.731C8.03413 99.9552 3.9392 106.463 0.639721 107.79C0.581489 107.813 0.531926 107.854 0.497855 107.907C0.463785 107.96 0.446883 108.022 0.449479 108.084C0.452074 108.147 0.474038 108.207 0.512346 108.257C0.550654 108.307 0.603422 108.343 0.663384 108.362C2.79788 109.009 4.89323 109.779 6.93895 110.667C7.99347 111.199 11.9361 112.17 16.4145 112.17C21.6883 112.17 27.7054 110.824 30.622 105.833C30.6421 105.798 30.6551 105.76 30.6603 105.721C30.6656 105.681 30.663 105.641 30.6526 105.602C30.6423 105.564 30.6245 105.528 30.6002 105.496C30.5759 105.464 30.5456 105.438 30.511 105.418Z" fill="black"/>
<path d="M30.4212 104.307C30.3569 104.246 23.8319 98.3352 10.2894 106.43C10.261 106.448 10.2391 106.473 10.2268 106.504C10.2146 106.535 10.2128 106.569 10.2217 106.601C10.2305 106.633 10.2496 106.661 10.276 106.681C10.3023 106.701 10.3345 106.712 10.3677 106.712C10.4484 106.712 26.0927 99.988 30.2349 105.769C30.2539 105.795 30.2808 105.815 30.3117 105.825C30.3426 105.835 30.3759 105.835 30.4067 105.824C30.4375 105.814 30.4641 105.794 30.4827 105.767C30.5012 105.741 30.5107 105.709 30.5098 105.676C30.4667 104.321 30.4849 104.366 30.4212 104.307Z" fill="white"/>
<path fill-rule="evenodd" clip-rule="evenodd" d="M97.9537 104.012C95.2021 106.163 89.5199 104.847 89.5199 104.847V100.455C89.5199 100.455 95.4133 87.267 106.373 88.7378C105.343 89.1557 104.441 89.8361 103.757 90.7113C103.072 91.5866 102.629 92.6259 102.472 93.7258C101.809 97.6418 100.706 101.86 97.9537 104.012Z" fill="#00D7F9"/>
<path d="M97.9544 104.315C97.8912 104.315 97.8295 104.296 97.778 104.259C97.7264 104.223 97.6876 104.171 97.667 104.111C97.6463 104.051 97.6449 103.987 97.6628 103.926C97.6807 103.865 97.7171 103.812 97.7669 103.773C100.519 101.621 101.568 97.2462 102.174 93.6749C102.316 92.7075 102.667 91.7827 103.203 90.9652C103.74 90.1478 104.448 89.4573 105.279 88.9422C95.323 88.4447 89.8556 100.453 89.7992 100.578C89.7829 100.615 89.7596 100.648 89.7307 100.675C89.7018 100.702 89.6677 100.724 89.6305 100.738C89.5933 100.752 89.5536 100.759 89.5138 100.758C89.474 100.757 89.4348 100.748 89.3984 100.732C89.362 100.715 89.3292 100.692 89.3018 100.663C89.2744 100.634 89.253 100.6 89.2388 100.563C89.2246 100.526 89.2178 100.486 89.2189 100.446C89.22 100.406 89.2289 100.367 89.2452 100.331C89.3059 100.197 95.3618 86.9503 106.416 88.4386C106.484 88.4478 106.547 88.4797 106.594 88.5292C106.642 88.5786 106.671 88.6427 106.678 88.711C106.684 88.7792 106.667 88.8477 106.63 88.9051C106.592 88.9625 106.536 89.0056 106.471 89.0272C105.491 89.4233 104.633 90.0712 103.984 90.9054C103.334 91.7397 102.917 92.7306 102.773 93.778C102.148 97.4573 101.057 101.973 98.1407 104.253C98.0872 104.294 98.0217 104.316 97.9544 104.315Z" fill="black"/>
<path d="M96.7117 93.3176C91.345 96.747 89.3943 104.316 89.3749 104.392C89.2438 104.921 90.6357 104.118 90.6533 104.057C91.8103 100.086 93.9579 96.4737 96.8943 93.5603C96.9265 93.5361 96.9477 93.5001 96.9533 93.4602C96.959 93.4203 96.9485 93.3799 96.9243 93.3477C96.9001 93.3155 96.8641 93.2942 96.8242 93.2886C96.7843 93.283 96.7438 93.2934 96.7117 93.3176Z" fill="white"/>
<path fill-rule="evenodd" clip-rule="evenodd" d="M89.4564 5.68687C89.4565 4.97986 89.3173 4.27976 89.0468 3.62655C88.7763 2.97333 88.3797 2.37981 87.8798 1.87988C87.3799 1.37995 86.7863 0.983392 86.1331 0.712866C85.4799 0.442341 84.7798 0.303143 84.0728 0.303223H35.7006C34.2728 0.303223 32.9034 0.870427 31.8938 1.88006C30.8842 2.88969 30.317 4.25904 30.317 5.68687V105.011C30.3171 106.439 30.8844 107.808 31.894 108.817C32.9036 109.827 34.2729 110.394 35.7006 110.394H84.0728C85.5005 110.394 86.8698 109.827 87.8794 108.817C88.889 107.808 89.4563 106.439 89.4564 105.011V5.68687Z" fill="white"/>
<path fill-rule="evenodd" clip-rule="evenodd" d="M89.4564 7.52349V5.68687C89.4565 4.97986 89.3173 4.27976 89.0468 3.62655C88.7763 2.97334 88.3797 2.37981 87.8798 1.87988C87.3799 1.37995 86.7863 0.983392 86.1331 0.712866C85.4799 0.442341 84.7798 0.303143 84.0728 0.303223H35.7006C34.2728 0.303223 32.9034 0.870427 31.8938 1.88006C30.8842 2.88969 30.317 4.25904 30.317 5.68687V7.52349H89.4564Z" fill="#FF3535"/>
<path fill-rule="evenodd" clip-rule="evenodd" d="M89.4564 103.176V105.012C89.4564 105.719 89.3172 106.419 89.0466 107.072C88.7761 107.726 88.3795 108.319 87.8796 108.819C87.3796 109.319 86.7862 109.715 86.133 109.986C85.4798 110.256 84.7798 110.395 84.0728 110.395H35.7006C34.2729 110.395 32.9036 109.828 31.894 108.819C30.8844 107.809 30.3171 106.44 30.317 105.012V103.176H89.4564Z" fill="#FF3535"/>
<path d="M56.4987 3.7206C56.4987 4.18276 56.68 4.62599 57.0027 4.95278C57.3254 5.27958 57.763 5.46317 58.2194 5.46317C58.6758 5.46317 59.1134 5.27958 59.4361 4.95278C59.7588 4.62599 59.9401 4.18276 59.9401 3.7206C59.9401 3.25844 59.7588 2.81521 59.4361 2.48842C59.1134 2.16162 58.6758 1.97803 58.2194 1.97803C57.763 1.97803 57.3254 2.16162 57.0027 2.48842C56.68 2.81521 56.4987 3.25844 56.4987 3.7206Z" fill="white"/>
<path d="M65.25 3.72044C65.25 3.84227 65.2737 3.9629 65.3198 4.07546C65.3658 4.18801 65.4333 4.29028 65.5184 4.37643C65.6035 4.46258 65.7045 4.53091 65.8156 4.57753C65.9268 4.62416 66.0459 4.64815 66.1662 4.64815C66.2865 4.64815 66.4057 4.62416 66.5168 4.57753C66.628 4.53091 66.729 4.46258 66.8141 4.37643C66.8991 4.29028 66.9666 4.18801 67.0127 4.07546C67.0587 3.9629 67.0824 3.84227 67.0824 3.72044C67.0824 3.59861 67.0587 3.47797 67.0127 3.36542C66.9666 3.25286 66.8991 3.15059 66.8141 3.06445C66.729 2.9783 66.628 2.90996 66.5168 2.86334C66.4057 2.81672 66.2865 2.79272 66.1662 2.79272C66.0459 2.79272 65.9268 2.81672 65.8156 2.86334C65.7045 2.90996 65.6035 2.9783 65.5184 3.06445C65.4333 3.15059 65.3658 3.25286 65.3198 3.36542C65.2737 3.47797 65.25 3.59861 65.25 3.72044Z" fill="white"/>
<path d="M58.2193 5.76412C57.8136 5.76857 57.4157 5.65232 57.0762 5.43014C56.7367 5.20796 56.4709 4.88987 56.3125 4.51629C56.1542 4.14271 56.1105 3.7305 56.187 3.33203C56.2634 2.93355 56.4566 2.56679 56.742 2.27835C57.0273 1.98991 57.392 1.7928 57.7896 1.71207C58.1873 1.63133 58.5999 1.67061 58.9752 1.82493C59.3504 1.97924 59.6714 2.24161 59.8972 2.57871C60.123 2.91581 60.2435 3.31243 60.2434 3.71818C60.2457 4.25771 60.0338 4.77611 59.6544 5.15966C59.2749 5.54321 58.7588 5.76059 58.2193 5.76412ZM58.2193 2.27837C57.9336 2.27392 57.6531 2.35456 57.4134 2.51003C57.1737 2.66551 56.9856 2.88879 56.8732 3.15146C56.7608 3.41412 56.729 3.7043 56.782 3.98506C56.835 4.26581 56.9703 4.52446 57.1708 4.72807C57.3712 4.93168 57.6277 5.07106 57.9076 5.12846C58.1875 5.18586 58.4781 5.15868 58.7425 5.0504C59.0069 4.94211 59.2331 4.75761 59.3924 4.52038C59.5516 4.28314 59.6366 4.00389 59.6367 3.71818C59.6384 3.33988 59.4903 2.97627 59.2247 2.7069C58.9591 2.43753 58.5976 2.28432 58.2193 2.2808V2.27837Z" fill="black"/>
<path d="M66.1662 4.95162C65.9223 4.95402 65.6831 4.88387 65.479 4.75006C65.275 4.61626 65.1153 4.42484 65.0203 4.20011C64.9252 3.97539 64.8991 3.72748 64.9452 3.48788C64.9913 3.24828 65.1076 3.02779 65.2793 2.8544C65.451 2.68101 65.6703 2.56255 65.9094 2.51406C66.1486 2.46557 66.3967 2.48923 66.6224 2.58204C66.848 2.67485 67.041 2.83262 67.1769 3.03533C67.3127 3.23804 67.3852 3.47653 67.3852 3.72053C67.3863 4.04528 67.2587 4.35723 67.0302 4.588C66.8017 4.81877 66.491 4.94953 66.1662 4.95162ZM66.1662 3.09619C66.0423 3.09378 65.9204 3.12834 65.8161 3.19546C65.7119 3.26258 65.63 3.35923 65.5809 3.47308C65.5317 3.58693 65.5176 3.71282 65.5403 3.83472C65.563 3.95662 65.6215 4.069 65.7083 4.15753C65.7951 4.24607 65.9063 4.30675 66.0278 4.33184C66.1492 4.35693 66.2754 4.34529 66.3902 4.29841C66.5049 4.25154 66.6032 4.17154 66.6723 4.06862C66.7415 3.9657 66.7784 3.84452 66.7785 3.72053C66.7794 3.6392 66.7643 3.55849 66.7341 3.48299C66.7038 3.4075 66.659 3.33871 66.6021 3.28056C66.5453 3.2224 66.4775 3.17603 66.4027 3.14408C66.3279 3.11213 66.2476 3.09524 66.1662 3.09437V3.09619Z" fill="black"/>
<path d="M89.7592 5.68702C89.7576 4.17933 89.158 2.73384 88.0919 1.66768C87.0259 0.60152 85.5805 0.00176667 84.0728 0H35.7006C34.1929 0.00176636 32.7474 0.601501 31.6812 1.66764C30.6151 2.73378 30.0153 4.17927 30.0136 5.68702V105.011C30.0152 106.519 30.6149 107.965 31.681 109.031C32.7472 110.097 34.1928 110.697 35.7006 110.698H84.0728C85.5805 110.697 87.026 110.097 88.0921 109.031C89.1582 107.965 89.7577 106.519 89.7592 105.011C89.7604 53.2722 89.761 5.74891 89.7592 5.68702ZM30.6203 5.68702C30.6218 4.34009 31.1575 3.04874 32.1099 2.09632C33.0623 1.1439 34.3537 0.608191 35.7006 0.606745H84.0728C85.4196 0.608191 86.7109 1.14392 87.6633 2.09636C88.6156 3.0488 89.1511 4.34015 89.1524 5.68702V7.22027H30.6203V5.68702ZM89.1524 7.82701V102.873H30.6203V7.82701H89.1524ZM84.0728 110.094H35.7006C34.3537 110.092 33.0623 109.557 32.1099 108.604C31.1575 107.652 30.6218 106.361 30.6203 105.014V103.481H89.1524V105.014C89.1508 106.36 88.6151 107.651 87.6628 108.604C86.7105 109.556 85.4194 110.091 84.0728 110.093V110.094Z" fill="black"/>
<path d="M22.5354 34.1404C22.5354 39.1564 24.503 43.967 28.0053 47.5138C31.5077 51.0607 36.2579 53.0533 41.211 53.0533C46.1641 53.0533 50.9143 51.0607 54.4167 47.5138C57.919 43.967 59.8866 39.1564 59.8866 34.1404C59.8866 29.1244 57.919 24.3138 54.4167 20.767C50.9143 17.2201 46.1641 15.2275 41.211 15.2275C36.2579 15.2275 31.5077 17.2201 28.0053 20.767C24.503 24.3138 22.5354 29.1244 22.5354 34.1404Z" fill="white"/>
<path fill-rule="evenodd" clip-rule="evenodd" d="M41.2109 14.926C26.2729 14.926 17.2578 31.6485 25.1322 44.3362C25.1463 44.3715 25.1668 44.4038 25.1929 44.4314C26.8874 47.155 29.2464 49.4032 32.0484 50.9647C34.8503 52.5263 38.0032 53.35 41.2109 53.3585C46.27 53.3016 51.1025 51.252 54.6599 47.6545C58.2173 44.0569 60.2124 39.2016 60.2124 34.1423C60.2124 29.0829 58.2173 24.2276 54.6599 20.63C51.1025 17.0325 46.27 14.9829 41.2109 14.926ZM50.5178 50.1779C48.5684 51.3454 46.4166 52.1354 44.1749 52.5066C44.4765 50.6277 44.6611 48.7318 44.7276 46.8299C46.6993 46.7615 48.6575 46.4767 50.5669 45.9805C50.8519 47.3669 50.8351 48.7985 50.5178 50.1779ZM33.9585 45.1608C33.7616 44.3769 33.398 43.6446 32.8926 43.0139C32.3872 42.3832 31.7518 41.8688 31.0297 41.5057C32.165 40.8686 34.9736 39.41 37.062 39.3142C42.334 39.0781 46.5934 41.5888 50.2284 45.4423C43.1731 47.2771 35.2321 45.4744 33.9585 45.1608ZM33.927 51.2215C34.3528 49.4527 34.4182 47.6162 34.1193 45.8215C37.3999 46.5622 40.7575 46.9073 44.1203 46.8493C44.0511 48.7743 43.8589 50.6929 43.5451 52.5934C40.2739 53.0247 36.9471 52.5502 33.927 51.2215ZM54.3506 47.129C54.7705 43.4279 51.4036 41.1629 48.1751 42.6998C44.6997 39.8742 40.9713 38.5284 37.0347 38.7104C34.4457 38.8288 30.9976 40.8122 30.3199 41.2163C28.1216 40.473 26.3724 41.5197 25.37 43.5535C18.2493 31.3033 26.9415 15.5328 41.2109 15.5328C44.847 15.5869 48.3879 16.7029 51.3978 18.7435C54.4077 20.7842 56.7554 23.6603 58.1517 27.018C59.548 30.3757 59.9322 34.0684 59.2568 37.6416C58.5814 41.2148 56.8761 44.5126 54.3506 47.129Z" fill="black"/>
<path fill-rule="evenodd" clip-rule="evenodd" d="M36.6705 35.5657L35.7337 40.0246C35.7337 40.0246 35.8732 43.7865 39.4888 43.795C43.1044 43.8035 43.8343 41.9341 43.8343 41.9341L44.4314 40.0246L42.1925 39.68L36.6705 35.5657Z" fill="#00D7F9"/>
<path fill-rule="evenodd" clip-rule="evenodd" d="M36.6706 35.5655L42.192 39.6799L41.8601 33.84L40.0824 30.9597C40.0824 30.9597 42.388 28.4442 42.5094 27.9375C42.6992 27.2819 42.7463 26.5931 42.6473 25.9177C42.5484 25.2423 42.3057 24.596 41.9357 24.0224C41.5657 23.4488 41.077 22.9612 40.5025 22.5925C39.928 22.2238 39.2812 21.9826 38.6056 21.8853C35.55 23.9852 35.9516 29.6134 36.6706 35.5655Z" fill="#00D7F9"/>
<path fill-rule="evenodd" clip-rule="evenodd" d="M42.1927 39.6811L45.2313 40.0494L49.2255 32.5968L48.7826 30.8566L49.4694 28.6341C49.4694 28.6341 50.9936 24.7109 48.3809 22.6644C45.7683 20.6178 41.805 19.4607 38.6044 21.8865C41.569 22.5873 42.9123 24.5732 42.5064 27.9473L40.0831 30.961L41.8608 33.8412L42.1927 39.6811Z" fill="white"/>
<path d="M46.4715 30.4626C46.4357 30.3901 46.3726 30.3349 46.2961 30.309C46.2196 30.2831 46.1359 30.2887 46.0635 30.3245C45.9911 30.3603 45.9358 30.4234 45.9099 30.4999C45.8841 30.5765 45.8896 30.6601 45.9254 30.7326C46.2767 31.4394 46.6699 32.6062 46.443 32.9884C46.412 33.04 46.3599 33.094 46.2003 33.1001C45.4758 33.128 45.2902 32.9884 45.2562 32.9539C45.2562 32.8833 45.2316 32.815 45.1866 32.7606C45.1417 32.7062 45.0792 32.6692 45.0099 32.6559C44.6713 32.5953 44.5105 33.017 44.7914 33.3446C44.9933 33.4983 45.2241 33.6097 45.47 33.6723C45.716 33.7348 45.9719 33.7472 46.2227 33.7086C47.6286 33.654 47.0934 31.7131 46.4715 30.4626Z" fill="black"/>
<path d="M47.3446 34.1227C47.0315 34.0808 46.1505 34.062 43.4062 33.883C43.3656 33.8808 43.325 33.8867 43.2867 33.9004C43.2485 33.9141 43.2134 33.9354 43.1835 33.9629C43.1536 33.9905 43.1295 34.0238 43.1128 34.0608C43.096 34.0979 43.0869 34.1379 43.0859 34.1785C43.0537 35.4758 43.7145 36.7639 45.0851 36.7639C46.8089 36.7639 47.563 34.5966 47.5952 34.5019C47.6113 34.4604 47.6173 34.4157 47.6125 34.3714C47.6078 34.3272 47.5925 34.2847 47.568 34.2475C47.5434 34.2104 47.5103 34.1797 47.4715 34.158C47.4326 34.1362 47.3891 34.1242 47.3446 34.1227ZM44.9783 36.1535C43.9905 36.0819 43.7618 35.0444 43.7096 34.508L46.8604 34.6833C46.5844 35.2434 45.9558 36.2227 44.9765 36.1535H44.9783Z" fill="black"/>
<path d="M42.6501 30.2749C42.6501 30.4709 42.728 30.6589 42.8666 30.7975C43.0051 30.9361 43.1931 31.0139 43.3891 31.0139C43.5851 31.0139 43.7731 30.9361 43.9117 30.7975C44.0503 30.6589 44.1281 30.4709 44.1281 30.2749C44.1281 30.0789 44.0503 29.8909 43.9117 29.7523C43.7731 29.6137 43.5851 29.5359 43.3891 29.5359C43.1931 29.5359 43.0051 29.6137 42.8666 29.7523C42.728 29.8909 42.6501 30.0789 42.6501 30.2749Z" fill="black"/>
<path d="M47.2425 30.8215C47.2425 30.9186 47.2617 31.0147 47.2988 31.1043C47.3359 31.194 47.3904 31.2755 47.459 31.3441C47.5276 31.4127 47.6091 31.4672 47.6987 31.5043C47.7884 31.5414 47.8845 31.5605 47.9816 31.5605C48.0786 31.5605 48.1747 31.5414 48.2644 31.5043C48.354 31.4672 48.4355 31.4127 48.5041 31.3441C48.5727 31.2755 48.6272 31.194 48.6643 31.1043C48.7015 31.0147 48.7206 30.9186 48.7206 30.8215C48.7206 30.6255 48.6427 30.4376 48.5041 30.299C48.3655 30.1604 48.1776 30.0825 47.9816 30.0825C47.7856 30.0825 47.5976 30.1604 47.459 30.299C47.3204 30.4376 47.2425 30.6255 47.2425 30.8215Z" fill="black"/>
<path d="M36.4201 26.5962C34.7861 26.5962 33.4574 28.2465 33.4574 30.2749C33.4574 32.3032 34.7861 33.9542 36.4201 33.9542C38.0541 33.9542 39.3834 32.3038 39.3834 30.2749C39.3834 28.2459 38.0541 26.5962 36.4201 26.5962Z" fill="black"/>
<path d="M35.6088 29.5547L33.4851 29.5783L33.2309 25.5653L32.4076 25.5496L32.1339 30.9854H35.6088V29.5547Z" fill="white"/>
<path d="M35.8304 29.3392C35.7091 29.2179 35.6945 29.25 33.7675 29.2719L33.5557 25.9275C33.7106 25.7732 33.8154 25.5758 33.8564 25.3611C33.8974 25.1464 33.8728 24.9242 33.7856 24.7237C33.6985 24.5232 33.5529 24.3537 33.368 24.2371C33.183 24.1206 32.9672 24.0626 32.7487 24.0706C32.5302 24.0785 32.3192 24.1522 32.1433 24.2819C31.9673 24.4117 31.8345 24.5914 31.7623 24.7978C31.69 25.0041 31.6816 25.2274 31.7382 25.4386C31.7948 25.6497 31.9138 25.8389 32.0795 25.9815L31.8283 30.9793C31.8254 31.0201 31.8312 31.0611 31.8454 31.0996C31.8595 31.138 31.8817 31.173 31.9103 31.2023C31.939 31.2315 31.9736 31.2543 32.0117 31.2692C32.0499 31.2841 32.0908 31.2908 32.1317 31.2887H35.6077C35.6886 31.286 35.7653 31.2522 35.8219 31.1943C35.8784 31.1365 35.9104 31.059 35.9111 30.978C35.9202 29.4339 35.9451 29.4527 35.8304 29.3392ZM35.3074 30.6819H32.4557L32.6796 26.2369C32.7766 26.2542 32.876 26.2517 32.972 26.2297L33.185 29.5977C33.1912 29.6743 33.2257 29.7458 33.2818 29.7983C33.3379 29.8508 33.4115 29.8805 33.4884 29.8817L35.3086 29.8616L35.3074 30.6819Z" fill="black"/>
<path d="M50.0804 27.5365C50.3474 26.1471 50.4208 23.8754 48.5678 22.4247C45.3818 19.9273 41.4082 19.2496 38.1372 21.8604C34.5865 24.6963 36.0658 32.6944 36.1689 33.2284L36.3643 35.5461C35.3753 40.2581 35.4287 39.9754 35.4311 40.0361C35.4311 40.0767 35.6259 44.0885 39.4878 44.1013H39.5145C43.2715 44.1013 44.0845 42.1312 44.1258 42.0274L44.6719 40.2885L45.1949 40.3485C45.2554 40.3558 45.3168 40.3446 45.3709 40.3165C45.425 40.2883 45.4694 40.2445 45.4983 40.1908C49.845 32.0901 49.5634 32.6878 49.5185 32.5197L49.3578 31.8881H50.2921C50.3653 31.888 50.436 31.8616 50.4912 31.8135C50.5464 31.7654 50.5824 31.6991 50.5925 31.6266L50.9444 29.1068C51.0798 29.0706 51.2051 29.0041 51.311 28.9123C51.4168 28.8205 51.5004 28.7059 51.5554 28.577C51.6104 28.4481 51.6353 28.3084 51.6283 28.1685C51.6213 28.0286 51.5826 27.892 51.515 27.7693C51.4475 27.6466 51.3529 27.5408 51.2384 27.46C51.1239 27.3793 50.9925 27.3256 50.8542 27.3031C50.716 27.2806 50.5744 27.2899 50.4402 27.3302C50.306 27.3705 50.1828 27.4409 50.0798 27.5359L50.0804 27.5365ZM48.194 22.9022C50.2175 24.487 49.5477 27.3569 49.2734 28.2579C47.1894 27.6456 45.013 27.4093 42.8462 27.5602C43.1914 24.3335 41.663 22.4028 39.2803 21.7961C43.1532 19.3994 47.04 21.9975 48.194 22.9022ZM38.5146 22.3349C38.5395 22.3149 38.5644 22.2979 38.5892 22.2784C39.6771 22.4178 40.6759 22.9518 41.396 23.7789C42.1757 24.7455 42.4494 26.0955 42.2109 27.7932C41.5426 28.8585 40.759 29.847 39.8743 30.7407C39.8234 30.7883 39.7904 30.852 39.7809 30.9211C39.7714 30.9901 39.7859 31.0604 39.8221 31.1199L41.5483 33.9577L41.8517 39.0471L36.9613 35.4036C36.7969 33.4492 36.7793 33.1962 36.7678 33.1277C36.755 33.0464 35.2072 24.9772 38.5146 22.3349ZM43.5506 41.8205C43.5221 41.8891 42.8225 43.4915 39.5127 43.4915H39.4872C36.3528 43.4836 36.0609 40.4341 36.0367 40.0482L36.8673 36.0922C42.3523 40.1793 42.0398 39.9675 42.1539 39.9815L44.053 40.2114L43.5506 41.8205ZM48.9021 32.5561L45.062 39.7218L42.4803 39.4093C42.1163 33.3649 42.1618 33.8024 42.1035 33.7059L40.4653 31.0113C41.2953 30.1448 42.0368 29.1976 42.6787 28.1839C44.8363 28.0101 47.0075 28.2309 49.0859 28.8355L48.4895 30.7644C48.4561 30.8833 48.461 30.8226 48.9021 32.5561ZM49.6909 30.518H49.2055C49.2055 30.518 49.7916 28.6426 49.8328 28.5158C49.8982 28.7081 50.0248 28.8737 50.1932 28.9872L49.6909 30.518Z" fill="black"/>
<path d="M62.9186 79.8633C62.9186 82.347 63.4016 84.8063 64.3402 87.1009C65.2787 89.3955 66.6543 91.4805 68.3885 93.2367C70.1227 94.9929 72.1815 96.386 74.4473 97.3365C76.7132 98.287 79.1417 98.7762 81.5942 98.7762C84.0467 98.7762 86.4752 98.287 88.741 97.3365C91.0069 96.386 93.0657 94.9929 94.7999 93.2367C96.534 91.4805 97.9097 89.3955 98.8482 87.1009C99.7868 84.8063 100.27 82.347 100.27 79.8633C100.27 77.3796 99.7868 74.9203 98.8482 72.6257C97.9097 70.331 96.534 68.2461 94.7999 66.4899C93.0657 64.7337 91.0069 63.3406 88.741 62.3901C86.4752 61.4396 84.0467 60.9504 81.5942 60.9504C79.1417 60.9504 76.7132 61.4396 74.4473 62.3901C72.1815 63.3406 70.1227 64.7337 68.3885 66.4899C66.6543 68.2461 65.2787 70.331 64.3402 72.6257C63.4016 74.9203 62.9186 77.3796 62.9186 79.8633Z" fill="white"/>
<path fill-rule="evenodd" clip-rule="evenodd" d="M76.348 67.5216C76.348 67.5216 74.1031 69.1798 74.4896 71.5328C73.964 71.6954 73.5072 72.0279 73.1911 72.4781C72.8749 72.9284 72.7172 73.4709 72.7427 74.0204C72.8113 75.9978 73.2348 78.2816 73.1341 79.5497C73.0334 80.8178 73.645 82.2079 75.66 82.422L74.4896 85.3696C74.4896 85.3696 67.5781 84.4085 66.3125 87.0048C65.8947 87.8041 65.6527 88.6835 65.6026 89.5841C72.3538 100.482 87.1784 102.655 96.4495 91.2872C96.4495 91.2872 95.7014 87.401 89.0593 86.4065L85.1543 86.0249L85.8867 80.3943C85.8867 80.3943 90.3547 80.006 88.8421 76.837C88.8421 76.837 90.6624 69.7344 86.6985 67.5234C82.7346 65.3124 76.348 67.5216 76.348 67.5216Z" fill="#FFD997"/>
<path fill-rule="evenodd" clip-rule="evenodd" d="M75.3724 93.9653C75.3724 93.9653 78.641 95.6764 80.6098 94.7183L82.6085 98.7283C79.7158 98.9136 76.8203 98.4115 74.1589 97.263L75.3724 93.9653Z" fill="white"/>
<path fill-rule="evenodd" clip-rule="evenodd" d="M73.4716 81.175C72.5552 82.9071 71.3941 84.4981 70.0241 85.8992C68.0892 87.7042 67.2203 90.8508 67.4272 92.1881C69.2623 94.4076 71.6132 96.1438 74.2744 97.2447C74.2744 97.2447 76.523 91.5589 76.199 88.4657C76.0006 86.4833 75.9089 84.4918 75.9241 82.4996C75.4335 82.5227 74.9459 82.4116 74.5137 82.1782C74.0816 81.9448 73.7213 81.598 73.4716 81.175Z" fill="#00D7F9"/>
<path fill-rule="evenodd" clip-rule="evenodd" d="M84.3446 66.8666C83.317 67.3033 82.1867 67.4403 81.0845 67.2616C79.2036 66.9722 77.0509 66.8751 75.4655 68.3956C75.67 67.6713 76.0172 66.9951 76.4867 66.4068C76.9562 65.8185 77.5385 65.33 78.1995 64.9699C80.4505 63.7401 84.381 62.995 86.706 65.6865C86.706 65.6865 91.3907 66.1968 90.9891 70.8996C90.6414 74.9648 88.8187 76.8354 88.8187 76.8354C88.3098 76.616 87.7456 76.5585 87.2028 76.6709C86.6601 76.7832 86.165 77.0599 85.785 77.4634C85.785 77.4634 85.0114 73.8612 86.7042 72.1441C86.706 72.1423 83.4072 69.3955 84.3446 66.8666Z" fill="#00D7F9"/>
<path d="M77.095 70.3467C77.0318 70.3468 76.9702 70.3271 76.9187 70.2904C76.8673 70.2538 76.8286 70.202 76.808 70.1423C76.6411 69.6569 76.41 69.3729 76.1199 69.2928C75.9198 69.2721 75.7176 69.2933 75.5261 69.355C75.3346 69.4168 75.1581 69.5177 75.0078 69.6514C74.9461 69.7009 74.8677 69.7244 74.789 69.7169C74.7103 69.7094 74.6377 69.6715 74.5866 69.6112C74.5354 69.551 74.5098 69.4732 74.5151 69.3943C74.5205 69.3155 74.5564 69.2418 74.6152 69.1891C74.8409 68.9929 75.1065 68.8479 75.3935 68.7641C75.6806 68.6803 75.9825 68.6597 76.2783 68.7037C76.5512 68.8008 76.7954 68.965 76.9882 69.1812C77.1811 69.3974 77.3165 69.6586 77.382 69.9408C77.3985 69.9867 77.4036 70.036 77.397 70.0843C77.3905 70.1326 77.3723 70.1787 77.3442 70.2185C77.316 70.2583 77.2786 70.2908 77.2353 70.3131C77.1919 70.3354 77.1438 70.347 77.095 70.3467Z" fill="black"/>
<path d="M84.0811 73.0999C84.0206 73.0999 83.9614 73.0818 83.9112 73.0478C83.861 73.0139 83.8221 72.9657 83.7996 72.9094C83.6539 72.4539 83.4148 72.0338 83.0975 71.676C82.7802 71.3181 82.3917 71.0305 81.9569 70.8313C81.1629 70.5651 80.2985 70.6019 79.5299 70.9345C79.4584 70.9632 79.3787 70.9636 79.3069 70.9356C79.2351 70.9076 79.1767 70.8534 79.1434 70.7839C79.1101 70.7145 79.1045 70.6349 79.1277 70.5615C79.151 70.488 79.2013 70.4261 79.2684 70.3884C80.1859 69.9825 81.223 69.9391 82.1711 70.2671C82.6857 70.494 83.1467 70.8266 83.5243 71.2434C83.9019 71.6602 84.1875 72.1517 84.3627 72.6861C84.3806 72.7321 84.3871 72.7816 84.3816 72.8306C84.376 72.8796 84.3587 72.9265 84.3309 72.9672C84.3032 73.008 84.266 73.0414 84.2224 73.0645C84.1789 73.0876 84.1304 73.0998 84.0811 73.0999Z" fill="black"/>
<path fill-rule="evenodd" clip-rule="evenodd" d="M75.2761 70.3418C75.599 70.3593 75.9075 70.4811 76.1553 70.689C76.403 70.8969 76.5765 71.1796 76.6498 71.4946C76.2103 71.6559 75.7344 71.6908 75.2761 71.5953V70.3418Z" fill="white"/>
<path fill-rule="evenodd" clip-rule="evenodd" d="M80.215 71.7837C80.215 71.7837 81.5183 71.6951 82.6087 73.468C81.8306 73.4041 81.0604 73.2662 80.3085 73.056L80.215 71.7837Z" fill="white"/>
<path d="M75.5505 75.2782C73.8564 74.3493 73.7721 73.2826 75.5566 72.3555C75.8949 72.2162 76.1987 72.0044 76.4465 71.7351C76.6943 71.4659 76.8801 71.1456 76.9909 70.7968C77.0056 70.7181 77.0509 70.6484 77.1168 70.603C77.1828 70.5575 77.264 70.5399 77.3428 70.5541C77.4212 70.5682 77.4909 70.6126 77.5369 70.6776C77.5829 70.7427 77.6014 70.8232 77.5885 70.9018C77.4639 71.3438 77.2418 71.7523 76.9385 72.0972C76.6353 72.4421 76.2587 72.7147 75.8363 72.8949C75.2089 73.2208 74.8618 73.5411 74.8588 73.7978C74.8588 73.9501 74.9801 74.2759 75.8423 74.7467C75.9098 74.787 75.9591 74.8519 75.9797 74.9277C76.0003 75.0035 75.9907 75.0844 75.9529 75.1533C75.9151 75.2222 75.852 75.2737 75.7769 75.297C75.7018 75.3203 75.6207 75.3136 75.5505 75.2782Z" fill="black"/>
<path fill-rule="evenodd" clip-rule="evenodd" d="M78.5453 78.0334C76.9464 77.7824 75.4372 77.1298 74.1592 76.1367C74.0583 76.5487 74.0432 76.977 74.1149 77.3951C74.255 77.8945 75.2192 78.3404 75.6961 78.4217C76.6543 78.3653 77.6069 78.2355 78.5453 78.0334Z" fill="white"/>
<path d="M78.6124 77.7382C76.8128 77.325 76.3328 76.0526 75.0101 75.9064C74.6582 75.8696 74.3146 75.7754 73.9932 75.6273C73.9268 75.5928 73.8499 75.5842 73.7775 75.603C73.705 75.6218 73.642 75.6667 73.6007 75.7291C73.5594 75.7915 73.5426 75.867 73.5535 75.9411C73.5645 76.0151 73.6025 76.0825 73.6601 76.1303C73.7178 76.1782 73.7785 76.2213 73.8367 76.2674C73.6547 77.979 74.205 78.8855 76.9135 78.5597C76.9742 78.5524 78.539 78.368 78.5996 78.3273C78.6659 78.3126 78.7253 78.276 78.7684 78.2235C78.8114 78.171 78.8356 78.1056 78.8371 78.0377C78.8386 77.9698 78.8172 77.9034 78.7765 77.8491C78.7357 77.7948 78.678 77.7557 78.6124 77.7382ZM74.4683 77.3547C74.4192 77.1358 74.4013 76.9112 74.4149 76.6873C75.2283 77.2222 76.1121 77.6414 77.0409 77.9329C76.1721 78.0385 74.7068 78.2035 74.4683 77.3547Z" fill="black"/>
<path d="M73.7551 79.2972C73.6352 79.183 73.5397 79.0457 73.4745 78.8935C73.4093 78.7413 73.3758 78.5775 73.3759 78.4119C73.3798 78.3315 73.4156 78.2559 73.4753 78.2018C73.5349 78.1476 73.6137 78.1195 73.6941 78.1234C73.7746 78.1274 73.8502 78.1631 73.9043 78.2228C73.9584 78.2825 73.9866 78.3612 73.9826 78.4417C73.994 78.6113 74.0719 78.7696 74.1992 78.8821C74.4219 79.0981 74.9158 79.3445 76.0098 79.2893C76.0497 79.2866 76.0898 79.2921 76.1276 79.3052C76.1654 79.3183 76.2001 79.3389 76.2298 79.3657C76.2595 79.3925 76.2836 79.4251 76.3005 79.4613C76.3174 79.4976 76.3269 79.5369 76.3283 79.5769C76.3304 79.6167 76.3245 79.6566 76.3111 79.6942C76.2977 79.7318 76.2771 79.7663 76.2503 79.7959C76.2235 79.8255 76.1912 79.8495 76.1551 79.8666C76.119 79.8837 76.08 79.8935 76.0401 79.8954C75.6386 79.9527 75.2297 79.9293 74.8373 79.8266C74.4449 79.7239 74.077 79.5439 73.7551 79.2972Z" fill="black"/>
<path d="M76.8607 71.2647C76.4439 70.1204 75.6023 69.965 75.214 70.0439C75.1631 70.0542 75.1159 70.0776 75.0769 70.1118C75.0379 70.1461 75.0086 70.1899 74.9918 70.239C74.9749 70.288 74.9713 70.3406 74.9811 70.3916C74.9909 70.4425 75.0139 70.49 75.0477 70.5293C74.5187 71.153 75.2583 71.9855 75.8317 71.4916C75.964 71.3755 76.0475 71.2135 76.0653 71.0384C76.1601 71.1711 76.2359 71.3165 76.2904 71.4704C76.3179 71.546 76.3743 71.6076 76.4472 71.6416C76.5202 71.6756 76.6036 71.6793 76.6793 71.6518C76.7549 71.6243 76.8165 71.5678 76.8505 71.4949C76.8846 71.422 76.8882 71.3385 76.8607 71.2629V71.2647Z" fill="black"/>
<path d="M82.8676 73.3089C81.6942 71.4013 80.2586 71.4759 80.1949 71.4808C80.1547 71.4835 80.1155 71.4943 80.0796 71.5125C80.0437 71.5307 80.0118 71.556 79.9858 71.5868C79.9599 71.6176 79.9404 71.6533 79.9286 71.6918C79.9168 71.7303 79.9128 71.7708 79.917 71.8108C79.7784 71.9424 79.6877 72.1164 79.6591 72.3053C79.6227 72.4576 79.6351 72.6174 79.6945 72.7622C79.754 72.907 79.8575 73.0294 79.9904 73.1121C80.1233 73.1948 80.2788 73.2336 80.435 73.2229C80.5912 73.2123 80.74 73.1528 80.8605 73.0528C81.0159 72.9167 81.1172 72.7291 81.1457 72.5244C81.1484 72.4723 81.1466 72.4202 81.1402 72.3684C81.6427 72.6812 82.0597 73.1138 82.3537 73.6274C82.3965 73.6948 82.464 73.7425 82.5418 73.7604C82.6195 73.7783 82.7012 73.7648 82.7691 73.7229C82.8369 73.6811 82.8856 73.6141 82.9045 73.5366C82.9234 73.4591 82.911 73.3773 82.87 73.3089H82.8676Z" fill="black"/>
<path fill-rule="evenodd" clip-rule="evenodd" d="M85.8316 80.3203C85.8316 80.3203 84.612 82.4306 82.3234 85.7768C80.0348 89.123 79.7393 96.441 82.3234 98.7344C84.7407 98.6281 87.1154 98.0616 89.3204 97.0653C89.3204 97.0653 90.8652 91.8983 90.0897 89.2104C89.3143 86.5225 87.0299 82.9579 87.9886 79.8525C87.3263 80.2038 86.5799 80.3657 85.8316 80.3203Z" fill="#00D7F9"/>
<path d="M81.5936 60.6475C77.3757 60.7075 73.2942 62.151 69.9764 64.7561C66.6586 67.3612 64.288 70.9838 63.2291 75.067C62.1702 79.1503 62.4815 83.4684 64.1151 87.3575C65.7488 91.2467 68.6144 94.4918 72.2716 96.5941C84.7517 103.754 100.573 94.6586 100.573 79.8655C100.599 74.8019 98.6156 69.9347 95.0574 66.3318C91.4992 62.729 86.6572 60.6847 81.5936 60.6475ZM81.5936 61.2542C84.9888 61.3036 88.306 62.2794 91.1872 64.0761C94.0684 65.8728 96.4043 68.4223 97.9426 71.4494C99.4809 74.4764 100.163 77.8661 99.9162 81.2527C99.669 84.6392 98.5017 87.8939 96.5402 90.6656C95.1611 87.0937 89.6166 86.1059 89.3709 86.064C89.3244 86.058 89.2771 86.0626 89.2325 86.0774C88.4347 84.0794 87.6823 81.8951 88.2745 79.9559C88.5567 79.8342 88.8088 79.6519 89.013 79.4221C89.2171 79.1923 89.3683 78.9205 89.4559 78.6258C89.5435 78.3312 89.5654 78.0209 89.52 77.7169C89.4746 77.4129 89.363 77.1226 89.1931 76.8664C89.6542 76.3045 90.9933 74.4018 91.29 70.9257C91.6747 66.4237 87.621 65.5305 86.8608 65.4043C84.577 62.8669 80.709 63.254 78.0539 64.7048C77.3665 65.0781 76.7597 65.5835 76.2682 66.192C75.7767 66.8005 75.4103 67.5001 75.19 68.2506C74.4569 69.1029 74.0866 70.2085 74.1586 71.3304C73.6272 71.5464 73.1764 71.9225 72.8687 72.4065C72.5609 72.8905 72.4116 73.4583 72.4415 74.031C72.5094 75.9933 72.9269 78.3056 72.8334 79.5251C72.7816 80.0923 72.8835 80.663 73.1283 81.1773C72.413 82.4862 71.5676 83.7197 70.6049 84.859C69.5111 84.8461 68.4299 85.0925 67.4498 85.578C66.9058 85.903 66.4393 86.3428 66.0829 86.8668C65.7266 87.3908 65.489 87.9864 65.3869 88.6117C58.939 76.4065 67.6263 61.2542 81.5936 61.2542ZM82.4388 98.4295C79.9985 96.0923 80.4693 89.0249 82.5735 85.9481C84.4896 83.1462 85.6716 81.1858 85.9998 80.6324C86.5276 80.6403 87.0525 80.5523 87.5488 80.3727C86.9846 83.4417 89.0748 86.7885 89.7974 89.2919C90.4709 91.6267 89.3011 96.014 89.0693 96.8404C86.9751 97.771 84.7274 98.3096 82.4388 98.4295ZM80.2734 94.5245C78.7346 95.0972 76.443 94.1356 75.7349 93.8043C77.1656 88.6791 76.2021 89.0583 76.2245 82.77C78.8979 82.9338 83.2555 82.5843 84.8494 80.4183C85.0201 80.4575 85.1926 80.4881 85.3664 80.5099C84.9338 81.2319 83.8082 83.0673 82.073 85.6065C80.6162 87.7356 79.9233 91.4404 80.2734 94.5245ZM67.7137 92.0368C67.5766 90.702 68.4722 87.7611 70.2299 86.1223C71.5216 84.8238 72.6245 83.3504 73.5063 81.7452C74.0611 82.327 74.8164 82.676 75.619 82.7215C75.6139 84.6505 75.7068 86.5786 75.8975 88.4983C76.1687 91.086 74.553 95.6397 74.1046 96.8386C71.646 95.7296 69.4638 94.0895 67.7149 92.0362L67.7137 92.0368ZM67.1143 91.2996C66.6621 90.7161 66.2449 90.1063 65.865 89.4733C65.8959 89.0789 66.1344 86.945 67.7271 86.1156C68.4389 85.7583 69.2145 85.5454 70.009 85.4894C69.9447 85.5501 69.8816 85.6175 69.8161 85.6781C68.3078 87.1936 67.3561 89.1745 67.1155 91.299L67.1143 91.2996ZM75.6973 68.5952C77.1808 67.1918 79.2285 67.2846 81.0366 67.5637C81.9961 67.7122 82.9767 67.6421 83.9053 67.3587C83.5862 69.4726 85.5745 71.5222 86.2765 72.1714C84.7645 74.0456 85.458 77.3827 85.4877 77.5295C85.4989 77.5815 85.5234 77.6296 85.559 77.669C85.5945 77.7085 85.6398 77.7379 85.6903 77.7543C85.7408 77.7708 85.7947 77.7737 85.8467 77.7628C85.8987 77.7519 85.9469 77.7275 85.9865 77.6921C87.4512 76.3822 89.4267 76.7656 88.8594 78.4912C88.556 79.4092 86.7467 80.3042 84.8743 79.8018C84.8038 79.7751 84.7266 79.7714 84.6539 79.7914C84.5811 79.8113 84.5166 79.8539 84.4696 79.9128C82.9485 82.3192 77.4847 82.3131 75.6894 82.1214C73.4274 81.8787 73.391 80.1112 73.4341 79.5731C73.5251 78.4142 73.1028 75.7166 73.0434 74.0092C73.0185 73.5272 73.1552 73.0506 73.4317 72.655C73.7082 72.2594 74.1087 71.9673 74.5699 71.8249C74.6415 71.8045 74.7031 71.7584 74.7429 71.6956C74.7827 71.6327 74.798 71.5574 74.7859 71.4839C74.7246 70.9652 74.7742 70.4393 74.9315 69.9412C75.0889 69.443 75.3503 68.984 75.6985 68.5946L75.6973 68.5952ZM86.8996 71.9117C86.8681 71.8856 83.7761 69.2699 84.6274 66.9722C84.6484 66.9152 84.6519 66.8533 84.6374 66.7944C84.6229 66.7354 84.5911 66.6822 84.546 66.6416C84.5009 66.6009 84.4446 66.5747 84.3845 66.5664C84.3244 66.558 84.2631 66.5679 84.2087 66.5948C83.2366 67.0026 82.1697 67.13 81.1289 66.9625C79.4906 66.7107 77.6704 66.6051 76.136 67.5085C76.6277 66.5475 77.3969 65.7564 78.3439 65.2381C80.1223 64.2673 84.1116 63.1509 86.4743 65.8867C86.5244 65.9447 86.5947 65.9815 86.6709 65.9899C86.8499 66.0099 91.0564 66.5183 90.6839 70.876C90.5882 72.8909 89.9095 74.8348 88.7302 76.4714C88.274 76.3158 87.7867 76.2742 87.3108 76.3503C86.8349 76.4263 86.3848 76.6177 85.9998 76.9076C85.8657 75.8944 85.7177 73.5766 86.9178 72.357C86.9476 72.3275 86.9708 72.2921 86.9862 72.253C87.0016 72.214 87.0087 72.1722 87.0071 72.1303C87.0055 72.0884 86.9952 72.0473 86.9769 72.0096C86.9586 71.9718 86.9327 71.9383 86.9008 71.9111L86.8996 71.9117ZM74.6567 97.0916C74.8308 96.6299 75.1985 95.6209 75.5632 94.3946C76.9502 95.0335 78.9106 95.6081 80.365 95.1409C80.5177 96.3417 80.9659 97.4858 81.6695 98.4707C79.2637 98.4839 76.8797 98.0152 74.6579 97.0922L74.6567 97.0916ZM89.7865 96.5122C90.1754 95.0299 91.0158 91.3294 90.3799 89.1257C90.1226 88.3044 89.8241 87.4966 89.4856 86.7053C90.5316 86.9244 95.2363 88.0821 96.1058 91.2559C94.4197 93.459 92.2606 95.2554 89.7877 96.5128L89.7865 96.5122Z" fill="black"/>
<path d="M88.8872 11.4067H70.396C68.849 11.4085 67.3659 12.0239 66.2721 13.1178C65.1783 14.2117 64.5631 15.6948 64.5615 17.2418V22.2068C64.5633 23.7537 65.1786 25.2367 66.2724 26.3304C67.3661 27.4242 68.8491 28.0395 70.396 28.0413H74.0177C72.7034 31.0252 69.7704 33.1913 67.0401 34.9254C66.981 34.963 66.9368 35.0198 66.9148 35.0862C66.8929 35.1527 66.8946 35.2247 66.9197 35.29C66.9447 35.3554 66.9916 35.41 67.0524 35.4448C67.1131 35.4795 67.184 35.4921 67.253 35.4806C73.4418 34.4455 77.4251 31.9426 79.1028 28.0413H88.8853C90.4322 28.0395 91.9152 27.4242 93.009 26.3304C94.1028 25.2367 94.718 23.7537 94.7198 22.2068V17.2394C94.7176 15.6932 94.1023 14.2109 93.009 13.1176C91.9156 12.0242 90.4334 11.409 88.8872 11.4067Z" fill="black"/>
<path d="M48.4608 61.9778H29.9697C28.4228 61.9795 26.9398 62.5948 25.846 63.6886C24.7522 64.7824 24.137 66.2654 24.1352 67.8122V72.7827C24.137 74.3295 24.7523 75.8124 25.8461 76.9061C26.9399 77.9998 28.4229 78.615 29.9697 78.6166H39.7522C41.4299 82.5185 45.4156 85.0208 51.602 86.0565C51.6712 86.0684 51.7424 86.0559 51.8034 86.0212C51.8645 85.9865 51.9116 85.9316 51.9367 85.866C51.9618 85.8005 51.9634 85.7282 51.9412 85.6616C51.919 85.5949 51.8744 85.5381 51.8149 85.5007C49.0882 83.7666 46.1534 81.6011 44.8374 78.6166H48.459C50.0058 78.615 51.4888 77.9998 52.5826 76.9061C53.6764 75.8124 54.2917 74.3295 54.2935 72.7827V67.8122C54.2917 66.2657 53.6767 64.783 52.5833 63.6892C51.4899 62.5955 50.0074 61.98 48.4608 61.9778Z" fill="black"/>
<path fill-rule="evenodd" clip-rule="evenodd" d="M88.5297 106.157C88.5297 106.157 89.9403 102.915 94.7603 103.202C99.5803 103.49 102.181 105.483 104.832 108.033C106.329 109.522 108.206 110.57 110.258 111.063C107.158 111.677 104.1 112.488 101.103 113.49C97.5787 114.802 91.78 116.938 87.3295 114.4C81.2633 110.948 88.5297 106.157 88.5297 106.157Z" fill="#00D7F9"/>
<path d="M105.213 110.963C105.145 110.945 98.3833 109.042 96.1784 107.239C93.5263 105.069 89.9192 105.656 88.4915 106.01C88.4563 106.019 88.4255 106.04 88.4046 106.07C88.3838 106.1 88.3744 106.136 88.378 106.172C88.3817 106.208 88.3983 106.242 88.4247 106.267C88.451 106.292 88.4855 106.307 88.5219 106.308C88.5704 106.308 93.388 106.512 95.2695 107.861C97.2984 109.317 102.707 111.727 105.201 111.259C105.234 111.252 105.264 111.234 105.286 111.209C105.309 111.183 105.321 111.15 105.323 111.116C105.324 111.082 105.314 111.049 105.294 111.021C105.275 110.993 105.246 110.973 105.213 110.963Z" fill="white"/>
<path d="M87.1756 114.665C85.5155 113.719 84.6527 112.574 84.6096 111.262C84.5247 108.649 87.7495 106.323 88.2901 105.952C88.5589 105.415 90.1838 102.626 94.7787 102.899C99.8541 103.203 102.529 105.397 105.041 107.814C106.498 109.256 108.318 110.275 110.309 110.764C110.379 110.776 110.442 110.812 110.488 110.866C110.534 110.92 110.559 110.988 110.56 111.059C110.561 111.13 110.537 111.199 110.492 111.254C110.448 111.309 110.385 111.347 110.316 111.36C107.232 111.974 104.189 112.78 101.207 113.775C96.6948 115.456 91.4416 117.096 87.1756 114.665ZM94.1598 103.487C90.0916 103.487 88.8587 106.16 88.8065 106.278C88.7825 106.331 88.744 106.377 88.6955 106.409C88.6603 106.432 85.1357 108.789 85.2164 111.242C85.2522 112.329 86.0124 113.305 87.4759 114.137C91.8317 116.619 97.5673 114.482 100.995 113.205C103.617 112.311 106.292 111.58 109.004 111.016C107.368 110.408 105.875 109.466 104.623 108.25C102.196 105.915 99.6144 103.795 94.7453 103.504C94.5414 103.493 94.3479 103.487 94.1592 103.487H94.1598Z" fill="black"/>
<path d="M72.0543 19.9432C72.0543 20.1351 72.0916 20.3251 72.1642 20.5023C72.2367 20.6796 72.3429 20.8407 72.4769 20.9763C72.6109 21.112 72.77 21.2196 72.945 21.293C73.1201 21.3665 73.3077 21.4043 73.4972 21.4043C73.6866 21.4043 73.8743 21.3665 74.0493 21.293C74.2244 21.2196 74.3834 21.112 74.5174 20.9763C74.6514 20.8407 74.7577 20.6796 74.8302 20.5023C74.9027 20.3251 74.94 20.1351 74.94 19.9432C74.94 19.5557 74.788 19.1841 74.5174 18.9101C74.2468 18.6361 73.8798 18.4822 73.4972 18.4822C73.1145 18.4822 72.7475 18.6361 72.4769 18.9101C72.2063 19.1841 72.0543 19.5557 72.0543 19.9432Z" fill="white"/>
<path d="M78.1986 19.9432C78.1986 20.3307 78.3506 20.7023 78.6212 20.9763C78.8918 21.2503 79.2588 21.4043 79.6414 21.4043C80.0241 21.4043 80.3911 21.2503 80.6617 20.9763C80.9322 20.7023 81.0843 20.3307 81.0843 19.9432C81.0843 19.5557 80.9322 19.1841 80.6617 18.9101C80.3911 18.6361 80.0241 18.4822 79.6414 18.4822C79.2588 18.4822 78.8918 18.6361 78.6212 18.9101C78.3506 19.1841 78.1986 19.5557 78.1986 19.9432Z" fill="white"/>
<path d="M84.344 19.9432C84.344 20.3307 84.496 20.7023 84.7666 20.9763C85.0371 21.2503 85.4041 21.4043 85.7868 21.4043C86.1695 21.4043 86.5365 21.2503 86.807 20.9763C87.0776 20.7023 87.2296 20.3307 87.2296 19.9432C87.2296 19.5557 87.0776 19.1841 86.807 18.9101C86.5365 18.6361 86.1695 18.4822 85.7868 18.4822C85.4041 18.4822 85.0371 18.6361 84.7666 18.9101C84.496 19.1841 84.344 19.5557 84.344 19.9432Z" fill="white"/>
<path d="M43.9169 70.5165C43.9169 70.904 44.0689 71.2756 44.3395 71.5496C44.6101 71.8236 44.9771 71.9775 45.3597 71.9775C45.7424 71.9775 46.1094 71.8236 46.38 71.5496C46.6506 71.2756 46.8026 70.904 46.8026 70.5165C46.8026 70.129 46.6506 69.7573 46.38 69.4833C46.1094 69.2093 45.7424 69.0554 45.3597 69.0554C44.9771 69.0554 44.6101 69.2093 44.3395 69.4833C44.0689 69.7573 43.9169 70.129 43.9169 70.5165Z" fill="white"/>
<path d="M37.7719 70.5165C37.7719 70.904 37.9239 71.2756 38.1945 71.5496C38.4651 71.8236 38.8321 71.9775 39.2147 71.9775C39.5974 71.9775 39.9644 71.8236 40.235 71.5496C40.5056 71.2756 40.6576 70.904 40.6576 70.5165C40.6576 70.129 40.5056 69.7573 40.235 69.4833C39.9644 69.2093 39.5974 69.0554 39.2147 69.0554C38.8321 69.0554 38.4651 69.2093 38.1945 69.4833C37.9239 69.7573 37.7719 70.129 37.7719 70.5165Z" fill="white"/>
<path d="M31.6273 70.5165C31.6273 70.904 31.7793 71.2756 32.0499 71.5496C32.3205 71.8236 32.6875 71.9775 33.0701 71.9775C33.4528 71.9775 33.8198 71.8236 34.0904 71.5496C34.3609 71.2756 34.513 70.904 34.513 70.5165C34.513 70.129 34.3609 69.7573 34.0904 69.4833C33.8198 69.2093 33.4528 69.0554 33.0701 69.0554C32.6875 69.0554 32.3205 69.2093 32.0499 69.4833C31.7793 69.7573 31.6273 70.129 31.6273 70.5165Z" fill="white"/>
</svg>
