<svg width="104" height="108" viewBox="0 0 104 108" fill="none" xmlns="http://www.w3.org/2000/svg">
<path d="M13.4555 81.1074H26.7346V105.492H13.4555V81.1074Z" fill="#00D7F9"/>
<path d="M33.9073 76.1641H47.1864V105.493H33.9073V76.1641Z" fill="#00D7F9"/>
<path d="M54.3597 64.1545H67.6389V105.493H54.3597V64.1545Z" fill="#00D7F9"/>
<path d="M74.8122 47.2283H88.0913V105.492H74.8122V47.2283Z" fill="#00D7F9"/>
<path d="M102.952 105.237L98.9544 103.36C98.9206 103.34 98.883 103.327 98.844 103.322C98.805 103.317 98.7654 103.321 98.7278 103.332C98.6902 103.344 98.6553 103.363 98.6256 103.388C98.5958 103.414 98.5718 103.446 98.555 103.481C98.5382 103.517 98.5291 103.556 98.5281 103.595C98.5272 103.634 98.5344 103.673 98.5495 103.71C98.5645 103.746 98.587 103.779 98.6155 103.806C98.644 103.833 98.6778 103.854 98.7148 103.867L101.569 105.207H91.7998L91.3612 55.4662C91.3612 55.3895 91.5534 55.9403 88.373 47.2911V47.2297C88.373 47.1549 88.3433 47.0832 88.2905 47.0303C88.2376 46.9775 88.1659 46.9478 88.0911 46.9478H74.812C74.7372 46.9478 74.6655 46.9775 74.6127 47.0303C74.5598 47.0832 74.5301 47.1549 74.5301 47.2297V105.211H71.3869C71.0678 79.3583 70.9359 69.8966 70.9201 69.869C67.7826 63.8329 67.888 63.931 67.7132 63.8837C67.6568 63.8679 68.6085 63.8735 54.3597 63.8735C54.2849 63.8735 54.2132 63.9032 54.1603 63.9561C54.1075 64.009 54.0778 64.0807 54.0778 64.1554V105.211H50.9735C50.6521 86.7491 50.5112 80.178 50.4858 80.1425L47.4565 75.9975C47.4268 75.957 47.3868 75.9253 47.3408 75.9055C47.2947 75.8856 47.2441 75.8785 47.1943 75.8847H33.9073C33.8326 75.8847 33.7608 75.9144 33.708 75.9673C33.6551 76.0201 33.6254 76.0918 33.6254 76.1666V105.212H30.4518L30.0199 84.5373C30.0183 84.4709 29.9934 84.4072 29.9494 84.3575L26.9929 80.9933C26.9609 80.9277 26.9074 80.8751 26.8413 80.8443C26.7752 80.8136 26.7005 80.8064 26.6298 80.8241H13.455C13.3802 80.8241 13.3085 80.8538 13.2556 80.9067C13.2028 80.9596 13.1731 81.0313 13.1731 81.106V105.208H2.97847L5.83298 103.868C5.86999 103.855 5.90382 103.834 5.93229 103.807C5.96076 103.78 5.98324 103.747 5.99829 103.711C6.01334 103.674 6.02062 103.635 6.01967 103.596C6.01872 103.557 6.00955 103.518 5.99276 103.483C5.97597 103.447 5.95192 103.415 5.92217 103.39C5.89242 103.364 5.85762 103.345 5.82001 103.333C5.78239 103.322 5.7428 103.318 5.70376 103.323C5.66473 103.328 5.62713 103.341 5.59336 103.361L1.59547 105.238C1.54688 105.26 1.50578 105.297 1.47698 105.342C1.44819 105.387 1.43289 105.44 1.43289 105.493C1.43289 105.547 1.44819 105.599 1.47698 105.645C1.50578 105.69 1.54688 105.726 1.59547 105.749C6.08951 107.835 5.75743 107.686 5.84876 107.686C5.9131 107.687 5.97556 107.665 6.02579 107.624C6.07601 107.584 6.11097 107.528 6.12487 107.465C6.13876 107.402 6.13075 107.337 6.10217 107.279C6.07358 107.222 6.02614 107.175 5.96772 107.148L2.99594 105.774H101.548L98.5767 107.148C98.5088 107.18 98.4561 107.237 98.4304 107.307C98.4045 107.377 98.4077 107.455 98.4391 107.523C98.4705 107.591 98.5276 107.643 98.5978 107.669C98.668 107.695 98.7456 107.692 98.8135 107.66L102.948 105.749C102.997 105.726 103.039 105.691 103.069 105.645C103.098 105.6 103.114 105.548 103.114 105.494C103.115 105.44 103.1 105.387 103.071 105.342C103.042 105.296 103.001 105.26 102.952 105.237ZM75.0939 47.5104H87.7901V105.21H75.0939V47.5104ZM54.6416 64.4362H67.3569V105.21H54.6416V64.4362ZM34.1892 76.4451H46.9051V105.209H34.1892V76.4451ZM13.7369 81.3885H26.4392V105.209H13.7369V81.3885Z" fill="black"/>
<path fill-rule="evenodd" clip-rule="evenodd" d="M0.542206 76.3588C0.981405 76.3729 64.6286 61.951 89.7858 23.2558L95.6961 26.3291L93.9546 4.37646L73.1961 16.0217L80.4798 19.1153C80.4798 19.1153 56.4947 58.1493 0.542206 76.3588Z" fill="#FF3535"/>
<path d="M0.455032 76.0908C23.0414 68.8153 43.7909 56.7493 61.2855 40.7175C72.8997 29.9591 78.9814 20.9198 80.0645 19.2453L73.0864 16.2814C73.0373 16.2611 72.9949 16.2273 72.9642 16.184C72.9335 16.1407 72.9156 16.0896 72.9127 16.0365C72.9097 15.9835 72.9218 15.9307 72.9476 15.8843C72.9733 15.8378 73.0116 15.7996 73.0582 15.774L93.8155 4.12872C93.8569 4.10554 93.9035 4.09318 93.9509 4.09278C93.9984 4.09239 94.0451 4.10397 94.0869 4.12646C94.1287 4.14894 94.1641 4.18161 94.1899 4.22143C94.2157 4.26124 94.231 4.30692 94.2344 4.35424L95.9777 26.304C95.9818 26.3542 95.9723 26.4046 95.9503 26.4499C95.9283 26.4952 95.8946 26.5338 95.8526 26.5616C95.8107 26.5895 95.762 26.6056 95.7117 26.6083C95.6614 26.611 95.6114 26.6001 95.5667 26.5769L89.883 23.6232C65.0883 61.4602 3.51758 76.0981 0.632629 76.6264C0.59746 76.6381 0.560339 76.6427 0.523385 76.64C0.486431 76.6373 0.450368 76.6274 0.417254 76.6108C0.384141 76.5941 0.354625 76.5712 0.330393 76.5431C0.306161 76.5151 0.287687 76.4826 0.276026 76.4474C0.264365 76.4122 0.259745 76.3751 0.26243 76.3382C0.265115 76.3012 0.275052 76.2651 0.291674 76.232C0.308297 76.1989 0.331279 76.1694 0.359308 76.1452C0.387337 76.1209 0.419864 76.1025 0.455032 76.0908ZM73.8351 15.9865L80.5916 18.8563C80.6289 18.8721 80.6624 18.8959 80.6897 18.9259C80.717 18.9559 80.7375 18.9914 80.7498 19.0301C80.7621 19.0687 80.7659 19.1095 80.761 19.1498C80.7561 19.1901 80.7426 19.2288 80.7213 19.2633C80.6615 19.3614 74.5556 29.1924 61.6858 41.1156C45.8189 55.674 27.253 66.982 7.03738 74.4005C23.9446 69.6308 69.2807 54.2786 89.5498 23.1028C89.588 23.0441 89.6467 23.0016 89.7144 22.9838C89.7822 22.966 89.8541 22.974 89.9163 23.0064L95.375 25.8423L93.7073 4.83798L73.8351 15.9865Z" fill="black"/>
<path d="M10.6897 18.6798C10.6897 19.7291 10.8964 20.7681 11.2979 21.7375C11.6995 22.707 12.288 23.5878 13.03 24.3297C13.7719 25.0717 14.6527 25.6602 15.6221 26.0618C16.5916 26.4633 17.6306 26.67 18.6798 26.67C19.7291 26.67 20.7681 26.4633 21.7375 26.0618C22.707 25.6602 23.5878 25.0717 24.3297 24.3297C25.0717 23.5878 25.6602 22.707 26.0618 21.7375C26.4633 20.7681 26.67 19.7291 26.67 18.6798C26.67 16.5607 25.8282 14.5284 24.3297 13.03C22.8313 11.5315 20.799 10.6897 18.6798 10.6897C16.5607 10.6897 14.5284 11.5315 13.03 13.03C11.5315 14.5284 10.6897 16.5607 10.6897 18.6798Z" fill="#FF3535"/>
<path d="M18.6797 26.9496C17.0435 26.9497 15.4441 26.4646 14.0836 25.5556C12.7231 24.6467 11.6628 23.3547 11.0367 21.843C10.4106 20.3314 10.2468 18.668 10.5661 17.0633C10.8854 15.4586 11.6734 13.9846 12.8305 12.8277C13.9876 11.6709 15.4617 10.8832 17.0665 10.5642C18.6713 10.2453 20.3346 10.4094 21.8461 11.0358C23.3576 11.6622 24.6494 12.7228 25.5581 14.0834C26.4668 15.4441 26.9516 17.0436 26.9512 18.6798C26.9482 20.8725 26.0757 22.9745 24.5251 24.5248C22.9745 26.075 20.8724 26.9471 18.6797 26.9496ZM18.6797 10.9693C17.1552 10.9692 15.6649 11.4211 14.3973 12.268C13.1297 13.1148 12.1416 14.3185 11.558 15.7268C10.9744 17.1352 10.8216 18.685 11.1188 20.1802C11.4159 21.6754 12.1498 23.049 13.2276 24.1271C14.3053 25.2053 15.6786 25.9397 17.1737 26.2374C18.6689 26.5351 20.2187 26.3828 21.6273 25.7998C23.0358 25.2167 24.2399 24.2291 25.0872 22.9617C25.9345 21.6944 26.3869 20.2043 26.3874 18.6798C26.3851 16.6363 25.5724 14.677 24.1274 13.2319C22.6824 11.7869 20.7233 10.974 18.6797 10.9716V10.9693Z" fill="black"/>
<path d="M18.6798 9.06982C18.605 9.06982 18.5333 9.04012 18.4804 8.98726C18.4276 8.93439 18.3979 8.86269 18.3979 8.78792V0.281899C18.3979 0.207135 18.4276 0.135433 18.4804 0.0825664C18.5333 0.0297001 18.605 0 18.6798 0C18.7545 0 18.8262 0.0297001 18.8791 0.0825664C18.932 0.135433 18.9617 0.207135 18.9617 0.281899V8.78792C18.9617 8.86269 18.932 8.93439 18.8791 8.98726C18.8262 9.04012 18.7545 9.06982 18.6798 9.06982Z" fill="black"/>
<path d="M37.0775 18.9617H28.5715C28.4967 18.9617 28.425 18.932 28.3722 18.8792C28.3193 18.8263 28.2896 18.7546 28.2896 18.6798C28.2896 18.6051 28.3193 18.5334 28.3722 18.4805C28.425 18.4276 28.4967 18.3979 28.5715 18.3979H37.0775C37.1523 18.3979 37.224 18.4276 37.2769 18.4805C37.3297 18.5334 37.3594 18.6051 37.3594 18.6798C37.3594 18.7546 37.3297 18.8263 37.2769 18.8792C37.224 18.932 37.1523 18.9617 37.0775 18.9617Z" fill="black"/>
<path d="M18.6798 37.3601C18.605 37.3601 18.5333 37.3304 18.4804 37.2775C18.4276 37.2247 18.3979 37.153 18.3979 37.0782V28.5722C18.3979 28.4974 18.4276 28.4257 18.4804 28.3728C18.5333 28.32 18.605 28.2903 18.6798 28.2903C18.7545 28.2903 18.8262 28.32 18.8791 28.3728C18.932 28.4257 18.9617 28.4974 18.9617 28.5722V37.0782C18.9617 37.153 18.932 37.2247 18.8791 37.2775C18.8262 37.3304 18.7545 37.3601 18.6798 37.3601Z" fill="black"/>
<path d="M8.78793 18.9617H0.281899C0.207135 18.9617 0.135433 18.932 0.0825667 18.8792C0.0297003 18.8263 0 18.7546 0 18.6798C0 18.6051 0.0297003 18.5334 0.0825667 18.4805C0.135433 18.4276 0.207135 18.3979 0.281899 18.3979H8.78793C8.86269 18.3979 8.93439 18.4276 8.98726 18.4805C9.04012 18.5334 9.06983 18.6051 9.06983 18.6798C9.06983 18.7546 9.04012 18.8263 8.98726 18.8792C8.93439 18.932 8.86269 18.9617 8.78793 18.9617Z" fill="black"/>
<path d="M23.6931 9.27466C23.6448 9.27451 23.5974 9.26198 23.5554 9.23825C23.5133 9.21453 23.4781 9.1804 23.453 9.13915C23.4279 9.0979 23.4139 9.0509 23.4122 9.00266C23.4105 8.95442 23.4212 8.90656 23.4433 8.86365L26.4196 3.1129C26.4354 3.07812 26.4582 3.04691 26.4864 3.02119C26.5147 2.99546 26.5479 2.97575 26.584 2.96325C26.6201 2.95075 26.6584 2.94573 26.6965 2.94849C26.7347 2.95125 26.7718 2.96172 26.8058 2.97929C26.8397 2.99685 26.8697 3.02114 26.894 3.05066C26.9183 3.08019 26.9363 3.11434 26.9469 3.15104C26.9576 3.18774 26.9607 3.22623 26.956 3.26416C26.9513 3.30209 26.939 3.33867 26.9197 3.37169L23.9434 9.12243C23.9196 9.16831 23.8837 9.20677 23.8396 9.23362C23.7954 9.26046 23.7448 9.27466 23.6931 9.27466Z" fill="black"/>
<path d="M34.1951 26.7979C34.097 26.7979 34.477 26.9704 28.2887 23.8487C28.2219 23.815 28.1713 23.7561 28.1479 23.6851C28.1246 23.614 28.1304 23.5366 28.1641 23.4698C28.1978 23.4031 28.2567 23.3524 28.3277 23.3291C28.3988 23.3057 28.4762 23.3115 28.543 23.3452L34.3225 26.2646C34.379 26.2932 34.4242 26.3401 34.4509 26.3976C34.4775 26.4551 34.484 26.5199 34.4692 26.5815C34.4545 26.6432 34.4194 26.698 34.3697 26.7373C34.3199 26.7766 34.2584 26.7979 34.1951 26.7979Z" fill="black"/>
<path d="M10.9974 34.5547C10.9495 34.5546 10.9025 34.5424 10.8606 34.5191C10.8188 34.4958 10.7836 34.4623 10.7583 34.4216C10.733 34.3809 10.7185 34.3345 10.7162 34.2866C10.7138 34.2388 10.7237 34.1912 10.7449 34.1482L13.6061 28.3411C13.6391 28.2738 13.6975 28.2224 13.7683 28.1981C13.8392 28.1738 13.9169 28.1787 13.9842 28.2117C14.0514 28.2447 14.1029 28.303 14.1271 28.3739C14.1514 28.4448 14.1465 28.5224 14.1135 28.5897L11.2523 34.3968C11.2289 34.4444 11.1927 34.4845 11.1476 34.5124C11.1025 34.5404 11.0505 34.555 10.9974 34.5547Z" fill="black"/>
<path d="M8.8477 14.2388C8.75299 14.2388 9.12171 14.408 2.88948 11.4074C2.85396 11.3929 2.82179 11.3712 2.79494 11.3437C2.7681 11.3163 2.74714 11.2836 2.73337 11.2478C2.71959 11.2119 2.71328 11.1737 2.71483 11.1353C2.71637 11.0969 2.72574 11.0593 2.74236 11.0247C2.75898 10.99 2.78249 10.9592 2.81146 10.934C2.84043 10.9088 2.87424 10.8898 2.91082 10.8781C2.9474 10.8664 2.98599 10.8623 3.0242 10.8661C3.06241 10.8699 3.09945 10.8814 3.13305 10.9L8.96948 13.7004C9.02848 13.7273 9.07641 13.7736 9.10522 13.8317C9.13403 13.8897 9.14196 13.956 9.12766 14.0192C9.11336 14.0824 9.07771 14.1387 9.02672 14.1788C8.97573 14.2188 8.91251 14.24 8.8477 14.2388Z" fill="black"/>
<path d="M28.2808 13.7848C28.218 13.7848 28.157 13.7639 28.1074 13.7254C28.0579 13.6869 28.0226 13.6329 28.0072 13.5721C27.9918 13.5112 27.9971 13.447 28.0224 13.3895C28.0476 13.332 28.0913 13.2846 28.1466 13.2548L33.8454 10.1815C33.878 10.164 33.9137 10.153 33.9506 10.1492C33.9874 10.1454 34.0246 10.1489 34.0601 10.1595C34.0955 10.1701 34.1286 10.1876 34.1573 10.211C34.186 10.2343 34.2098 10.2631 34.2274 10.2957C34.245 10.3283 34.256 10.364 34.2598 10.4008C34.2636 10.4377 34.26 10.4749 34.2494 10.5103C34.2388 10.5458 34.2214 10.5788 34.198 10.6076C34.1746 10.6363 34.1458 10.6601 34.1132 10.6777C28.0349 13.9646 28.3851 13.7848 28.2808 13.7848Z" fill="black"/>
<path d="M27.0816 34.1786C27.0311 34.1786 26.9816 34.1651 26.9381 34.1394C26.8947 34.1137 26.859 34.0768 26.8346 34.0326L23.7056 28.3648C23.6723 28.2996 23.6657 28.224 23.6872 28.1541C23.7086 28.0842 23.7564 28.0253 23.8205 27.9899C23.8845 27.9546 23.9598 27.9455 24.0304 27.9646C24.101 27.9838 24.1614 28.0296 24.1989 28.0924L27.3285 33.7609C27.3521 33.8038 27.3642 33.8521 27.3634 33.9011C27.3626 33.9501 27.3491 33.998 27.3242 34.0402C27.2993 34.0824 27.2638 34.1173 27.2212 34.1416C27.1787 34.1659 27.1306 34.1786 27.0816 34.1786Z" fill="black"/>
<path d="M3.54673 27.5133C3.48433 27.5135 3.42363 27.4929 3.37416 27.4549C3.3247 27.4168 3.28925 27.3634 3.27339 27.3031C3.25753 27.2427 3.26214 27.1788 3.28651 27.1213C3.31088 27.0639 3.35362 27.0161 3.40804 26.9856L9.04602 23.8001C9.07827 23.7819 9.11378 23.7702 9.15054 23.7658C9.1873 23.7613 9.22459 23.7641 9.26026 23.774C9.29594 23.7839 9.32932 23.8008 9.35849 23.8236C9.38765 23.8464 9.41204 23.8747 9.43025 23.907C9.44847 23.9392 9.46015 23.9747 9.46464 24.0115C9.46913 24.0483 9.46633 24.0855 9.45641 24.1212C9.44649 24.1569 9.42964 24.1903 9.40682 24.2194C9.384 24.2486 9.35566 24.273 9.32341 24.2912C3.30599 27.6915 3.65611 27.5133 3.54673 27.5133Z" fill="black"/>
<path d="M13.2187 9.51976C13.1692 9.51976 13.1206 9.50673 13.0777 9.48199C13.0349 9.45725 12.9993 9.42166 12.9745 9.37881L9.7327 3.77352C9.69591 3.70881 9.68621 3.63217 9.70571 3.56033C9.72521 3.48849 9.77234 3.42729 9.83681 3.39006C9.90128 3.35284 9.97785 3.34263 10.0498 3.36166C10.1218 3.38069 10.1833 3.42741 10.221 3.49163L13.4622 9.09691C13.4869 9.13972 13.5 9.18828 13.5 9.23772C13.5 9.28715 13.487 9.33572 13.4624 9.37856C13.4377 9.4214 13.4022 9.45699 13.3594 9.48178C13.3166 9.50656 13.2681 9.51966 13.2187 9.51976Z" fill="black"/>
</svg>
