<svg width="110" height="103" viewBox="0 0 110 103" fill="none" xmlns="http://www.w3.org/2000/svg">
<path fill-rule="evenodd" clip-rule="evenodd" d="M49.9079 47.5689C49.6036 46.4337 49.3199 46.0054 48.1445 46.0054C40.4909 46.0054 12.6521 46.1776 2.94801 46.1776C2.54824 46.1778 2.15392 46.2703 1.79574 46.4478C1.43755 46.6253 1.12517 46.8831 0.882907 47.2011C0.640647 47.5191 0.475047 47.8887 0.399 48.2812C0.322952 48.6736 0.338508 49.0784 0.444457 49.4638C3.33904 59.9673 11.4383 90.7856 11.4383 90.7856L58.8599 100.255L104.228 94.5582L60.5664 87.6171L49.9079 47.5689Z" fill="white"/>
<path fill-rule="evenodd" clip-rule="evenodd" d="M48.1051 51.0741L47.5763 48.884H3.10495L3.74175 51.0741H48.1051Z" fill="#00D7F9"/>
<path fill-rule="evenodd" clip-rule="evenodd" d="M58.9231 100.25L11.4406 90.7864V91.2343C11.4401 91.8028 11.6368 92.354 11.9972 92.7938C12.3576 93.2336 12.8594 93.5347 13.417 93.6459L58.9231 102.712V100.25Z" fill="white"/>
<path d="M47.8541 48.6994C47.842 48.6557 47.807 48.6264 47.2799 48.596C45.7726 48.5099 38.5438 48.4812 3.10369 48.596C3.03823 48.596 2.78328 48.7516 2.87401 49.1524C3.16111 50.4455 4.89752 56.864 13.3481 88.7039C13.3654 88.7688 13.4048 88.8255 13.4596 88.8644C13.5143 88.9032 13.581 88.9216 13.6479 88.9164C50.3972 86.0453 56.4218 85.6107 57.3681 85.474C57.4991 85.4556 57.6116 85.4596 57.5611 85.1949C57.39 84.3147 55.9814 79.1456 47.8541 48.6994ZM11.7593 80.4847L21.808 79.9065L22.737 83.4229L12.7337 84.1556L11.7593 80.4847ZM10.6419 76.2734L20.698 75.6952L21.661 79.3403L11.6083 79.9179L10.6419 76.2734ZM9.59455 72.3263L19.6644 71.7826L20.5482 75.1285L10.4915 75.7067L9.59455 72.3263ZM7.63305 64.9363L17.7489 64.5343L19.5146 71.2198L9.4441 71.7636L7.63305 64.9363ZM5.79558 58.0004L15.9447 57.6915L17.5984 63.9601L7.48203 64.3621L5.79558 58.0004ZM4.07985 51.4946H14.2944L15.7914 57.1219L5.64169 57.4308L4.07985 51.4946ZM49.2362 56.1038L16.3834 57.1035L14.8905 51.3201H47.923L49.2362 56.1038ZM50.9766 62.632L18.1893 63.94L16.5339 57.6737L49.3878 56.674L50.9766 62.632ZM52.7865 69.4208L20.1031 71.1865L18.3397 64.5091L51.1271 63.201L52.7865 69.4208ZM53.8 73.2198L21.1361 75.0975L20.253 71.7533L52.9381 69.987L53.8 73.2198ZM54.9226 77.4305L22.2501 79.3087L21.2872 75.6636L53.9522 73.786L54.9226 77.4305ZM22.3983 79.8755L55.0707 77.9966L55.8746 80.9998L23.3222 83.3804L22.3983 79.8755ZM47.3557 49.1673L47.7702 50.7872H3.92481L3.4775 49.1673H47.3557ZM12.8836 84.7206L22.8886 83.9885L23.8275 87.5429L13.8362 88.3232L12.8836 84.7206ZM24.4097 87.4975L23.4714 83.946L56.0222 81.5625L56.9271 84.9578L24.4097 87.4975Z" fill="black"/>
<path d="M104.273 94.2746L60.7957 87.3634L50.1877 47.4955C49.8587 46.2673 49.4861 45.7195 48.147 45.7195C44.5467 45.7195 8.08964 45.8917 2.9499 45.8917C2.50612 45.8925 2.06848 45.9955 1.67099 46.1929C1.2735 46.3902 0.92684 46.6765 0.65795 47.0295C0.38906 47.3826 0.205173 47.7928 0.120574 48.2285C0.0359743 48.6641 0.0529391 49.1134 0.170151 49.5414C2.98894 59.7681 10.8424 89.6424 11.1542 90.827V91.2359C11.1553 91.87 11.3756 92.4843 11.7778 92.9747C12.1799 93.465 12.7392 93.8013 13.3609 93.9266C51.7272 101.567 57.7868 102.781 58.744 102.969C58.8691 103.008 59.0026 103.011 59.1293 102.977L104.289 97.3167C104.358 97.3079 104.422 97.2738 104.469 97.2208C104.515 97.1679 104.54 97.0999 104.539 97.0296V94.5657C104.538 94.4931 104.51 94.4234 104.461 94.3698C104.412 94.3163 104.345 94.2824 104.273 94.2746ZM102.229 94.5318L58.9341 99.9587L13.6388 90.9327L60.5516 87.9054L102.229 94.5318ZM0.724262 49.3887C0.630223 49.0459 0.616494 48.6861 0.684145 48.3372C0.751795 47.9883 0.899002 47.6597 1.11432 47.3769C1.32964 47.0942 1.60727 46.8649 1.92563 46.7069C2.24398 46.5489 2.59449 46.4664 2.9499 46.466C8.09079 46.466 44.5479 46.2937 48.147 46.2937C49.1392 46.2937 49.3437 46.5647 49.6325 47.6437L60.1979 87.3525L11.6572 90.4854C10.9101 87.6396 3.45462 59.2978 0.724262 49.3887ZM11.7284 91.1371L58.6361 100.485V102.362L13.4734 93.3599C12.9657 93.2574 12.5112 92.9774 12.1913 92.57C11.8715 92.1626 11.7074 91.6546 11.7284 91.1371Z" fill="black"/>
<path fill-rule="evenodd" clip-rule="evenodd" d="M22.903 91.4897L58.7996 89.1929L76.758 91.8917L41.176 94.2459L22.903 91.4897Z" fill="#FF3535"/>
<path d="M41.0516 94.5155C40.5451 94.442 37.836 94.0292 22.8606 91.7742C22.7908 91.7635 22.7274 91.7273 22.6825 91.6727C22.6377 91.6182 22.6145 91.5489 22.6175 91.4783C22.6205 91.4077 22.6494 91.3407 22.6987 91.2901C22.748 91.2395 22.8143 91.2089 22.8847 91.204C52.1395 89.3137 57.5962 88.9692 58.6103 88.9135C58.7798 88.8939 58.9514 88.9056 59.1167 88.948L76.8024 91.6077C76.8722 91.6184 76.9356 91.6545 76.9805 91.709C77.0254 91.7636 77.0486 91.8328 77.0457 91.9033C77.0428 91.9739 77.0139 92.0409 76.9647 92.0916C76.9155 92.1422 76.8493 92.173 76.7788 92.1779L41.318 94.5212C41.2296 94.5363 41.1392 94.5343 41.0516 94.5155ZM25.595 91.606L41.1882 93.9551L74.0904 91.78L58.79 89.4791L25.595 91.606Z" fill="black"/>
<path d="M67.9786 97.6083C67.2494 97.455 64.9026 96.9503 57.2674 95.3063C57.1995 95.2919 57.1392 95.2535 57.0976 95.1981C57.0559 95.1427 57.0357 95.0741 57.0407 95.0049C57.0456 94.9358 57.0754 94.8707 57.1246 94.8219C57.1738 94.773 57.239 94.7436 57.3081 94.739L76.7991 93.4045L87.4759 94.7407C87.5452 94.7495 87.6089 94.7833 87.6551 94.8358C87.7013 94.8882 87.7268 94.9557 87.7268 95.0255C87.7268 95.0954 87.7013 95.1629 87.6551 95.2153C87.6089 95.2677 87.5452 95.3015 87.4759 95.3103C74.0917 96.9468 70.086 97.4493 68.8715 97.6037C68.198 97.6858 68.4041 97.6945 67.9786 97.6083ZM59.3793 95.1725L68.3329 97.0938L85.1165 95.0227L76.7813 93.973L59.3793 95.1725Z" fill="black"/>
<path d="M89.9427 0H62.5667C58.344 0 54.9091 3.2615 54.9091 7.27006V21.2342C54.9091 25.2422 58.344 28.5037 62.5667 28.5037H68.4966C67.2712 32.3429 64.3261 36.3187 59.5073 40.6431C59.4578 40.6874 59.4252 40.7475 59.4151 40.8132C59.4049 40.8789 59.4179 40.9461 59.4518 41.0033C59.4857 41.0605 59.5384 41.1042 59.6008 41.1269C59.6633 41.1495 59.7317 41.1498 59.7944 41.1277C67.8087 38.3112 72.9128 34.1798 75.3905 28.5037H89.9427C94.1648 28.5037 97.5997 25.2422 97.5997 21.2342V7.27006C97.5997 3.2615 94.1648 0 89.9427 0Z" fill="black"/>
<path fill-rule="evenodd" clip-rule="evenodd" d="M65.0093 9.02441V22.5315L71.6001 15.7777L65.0093 9.02441Z" fill="white"/>
<path fill-rule="evenodd" clip-rule="evenodd" d="M81.6281 8.6062H65.4033L76.207 19.6775L83.4994 12.2076C82.9548 11.7699 82.5072 11.2237 82.185 10.6037C81.8629 9.98371 81.6732 9.30346 81.6281 8.6062Z" fill="white"/>
<path fill-rule="evenodd" clip-rule="evenodd" d="M83.9661 12.5505L80.8172 15.7776L87.4074 22.5314V13.44C86.194 13.5263 84.9857 13.2139 83.9661 12.5505Z" fill="white"/>
<path fill-rule="evenodd" clip-rule="evenodd" d="M80.4159 16.1887C77.5104 19.1666 76.6836 20.0359 76.4074 20.2834C76.2742 20.4028 76.1714 20.4201 76.0365 20.3052C75.7849 20.0922 75.0115 19.2716 72.0015 16.1887L65.4033 22.9495H87.0136L80.4159 16.1887Z" fill="white"/>
<path fill-rule="evenodd" clip-rule="evenodd" d="M87.0225 3.75917C85.7784 3.72669 84.572 4.18812 83.6671 5.04257C82.7622 5.89702 82.2323 7.075 82.1935 8.31896C82.2646 9.55154 82.8044 10.7103 83.7022 11.5578C84.6 12.4052 85.7879 12.8773 87.0225 12.8773C88.2572 12.8773 89.4451 12.4052 90.3429 11.5578C91.2407 10.7103 91.7805 9.55154 91.8516 8.31896C91.8127 7.075 91.2829 5.89702 90.378 5.04257C89.4731 4.18812 88.2667 3.72669 87.0225 3.75917Z" fill="#00D7F9"/>
<path d="M87.4371 5.65323C85.3728 7.93227 85.4194 7.82144 85.4205 8.0161V8.82918C85.4212 8.89678 85.4415 8.96272 85.4789 9.01901C85.5164 9.07529 85.5694 9.1195 85.6314 9.14625C85.6935 9.173 85.762 9.18116 85.8287 9.16972C85.8953 9.15829 85.9572 9.12776 86.0068 9.08183L86.6022 8.52542L86.5793 10.7482C86.5784 10.7942 86.5868 10.8399 86.6039 10.8826C86.621 10.9254 86.6465 10.9642 86.6789 10.9969C86.7113 11.0296 86.7499 11.0555 86.7924 11.073C86.835 11.0906 86.8806 11.0994 86.9267 11.099L87.6972 11.0921C87.7889 11.0914 87.8765 11.0544 87.941 10.9894C88.0056 10.9243 88.0418 10.8364 88.0418 10.7447V5.88636C88.0417 5.81625 88.0204 5.7478 87.9807 5.69001C87.941 5.63222 87.8848 5.58779 87.8193 5.56257C87.7539 5.53734 87.6824 5.5325 87.6142 5.54869C87.546 5.56487 87.4842 5.60131 87.4371 5.65323Z" fill="black"/>
<path fill-rule="evenodd" clip-rule="evenodd" d="M74.0824 45.6426C74.0824 45.6426 68.2691 51.051 67.4497 52.8937C66.6303 54.7363 70.8662 53.7303 70.8662 53.7303L65.119 61.9581C65.119 61.9581 74.5934 53.612 74.0686 52.2781C73.3876 50.5446 69.7465 52.1995 69.7465 52.1995L74.0824 45.6426Z" fill="white"/>
<path fill-rule="evenodd" clip-rule="evenodd" d="M85.1718 51.6143C85.1718 51.6143 77.6233 54.0776 76.1056 55.404C74.588 56.7305 78.8544 57.5992 78.8544 57.5992L70.1838 62.6523C70.1838 62.6523 82.2876 59.06 82.3731 57.6302C82.4834 55.7704 78.484 55.7422 78.484 55.7422L85.1718 51.6143Z" fill="white"/>
<path d="M64.8835 61.7941L70.2202 54.1571C69.2727 54.3202 67.7511 54.462 67.24 53.843C67.1264 53.6914 67.0606 53.5093 67.051 53.3201C67.0415 53.1308 67.0887 52.943 67.1866 52.7808C68.0204 50.906 73.6476 45.6606 73.8865 45.4366C73.938 45.3895 74.005 45.3627 74.0748 45.3614C74.1446 45.36 74.2126 45.3842 74.2659 45.4293C74.3192 45.4745 74.3542 45.5375 74.3644 45.6066C74.3745 45.6757 74.3592 45.7461 74.3212 45.8047L70.4809 51.6122C71.8647 51.1466 73.7987 50.8112 74.3361 52.1767C74.8902 53.5875 67.5668 60.1875 65.3084 62.1765C65.2558 62.2249 65.1871 62.252 65.1156 62.2523C65.0441 62.2527 64.9751 62.2265 64.9219 62.1786C64.8688 62.1308 64.8354 62.0649 64.8283 61.9938C64.8212 61.9227 64.8409 61.8515 64.8835 61.7941ZM70.8667 53.444C70.9192 53.444 70.9707 53.4584 71.0155 53.4856C71.0604 53.5128 71.097 53.5518 71.1212 53.5983C71.1455 53.6448 71.1565 53.6971 71.1532 53.7494C71.1498 53.8018 71.1322 53.8522 71.1022 53.8953L66.787 60.0726C70.5682 56.6027 73.9858 53.0403 73.8015 52.3823C73.3525 51.2407 70.95 51.9682 69.8659 52.4615C69.8092 52.4873 69.7456 52.4939 69.6848 52.4804C69.6239 52.4669 69.5691 52.4339 69.5287 52.3865C69.4882 52.3391 69.4643 52.2799 69.4605 52.2177C69.4567 52.1555 69.4732 52.0937 69.5076 52.0417L72.4171 47.6416C71.7625 48.2853 67.1275 52.8043 67.6828 53.4738C68.1599 54.0509 70.8059 53.444 70.8667 53.444Z" fill="black"/>
<path d="M70.1822 62.9355C70.119 62.9355 70.0577 62.9148 70.0075 62.8764C69.9574 62.8381 69.9213 62.7843 69.9049 62.7233C69.8884 62.6624 69.8924 62.5978 69.9164 62.5394C69.9404 62.481 69.9829 62.4321 70.0375 62.4003L78.0902 57.7102C77.1622 57.4593 75.725 56.9511 75.5183 56.1742C75.4789 55.9887 75.4958 55.7957 75.5668 55.6198C75.6378 55.444 75.7596 55.2933 75.9168 55.1871C77.4608 53.8354 84.7722 51.4398 85.0829 51.3399C85.1495 51.3185 85.2217 51.3222 85.2858 51.3503C85.3499 51.3783 85.4016 51.4289 85.4311 51.4923C85.4606 51.5558 85.4658 51.6279 85.4459 51.695C85.426 51.7621 85.3822 51.8196 85.3229 51.8567L79.3971 55.5121C80.8487 55.6723 82.7441 56.1794 82.658 57.6442C82.5563 59.3438 70.2924 62.9355 70.1822 62.9355ZM82.8205 52.7244C81.977 53.0258 75.849 55.186 76.0735 56.0272C76.2108 56.544 77.8157 57.0929 78.9118 57.3163C78.9689 57.3279 79.021 57.3565 79.0614 57.3985C79.1017 57.4404 79.1284 57.4935 79.1379 57.5509C79.1474 57.6083 79.1391 57.6673 79.1144 57.7199C79.0896 57.7726 79.0494 57.8164 78.9991 57.8457L72.487 61.6355C77.3776 60.0759 81.9758 58.2792 82.0849 57.6051C82.1567 56.3838 79.6732 56.0324 78.48 56.0226C78.4176 56.0223 78.3571 56.0016 78.3075 55.9638C78.2579 55.9259 78.2219 55.8729 78.2051 55.8128C78.1883 55.7528 78.1915 55.6888 78.2143 55.6307C78.2371 55.5726 78.2782 55.5236 78.3313 55.4909L82.8205 52.7244Z" fill="black"/>
<path fill-rule="evenodd" clip-rule="evenodd" d="M19.8994 22.4925C19.8994 22.4925 19.1908 20.7182 20.0854 20.3565C20.98 19.9947 21.5077 21.8437 21.5077 21.8437L21.4836 21.8534C24.7928 21.5698 26.8169 27.5525 27.3515 28.9162C27.9159 30.3569 30.3161 30.4838 30.3161 30.4838L25.1924 32.2415C25.201 32.2696 25.8424 34.3367 25.0012 34.7106C24.16 35.0844 23.3119 32.9213 23.3004 32.892L17.8736 34.7536C18.7073 33.7459 19.6203 32.9213 19.4067 31.3801C19.4067 31.3796 17.2356 24.6843 19.8994 22.4925Z" fill="#00D7F9"/>
<path d="M30.3316 30.1968C30.3092 30.1968 28.1053 30.0619 27.619 28.8084C26.5429 26.0344 24.7089 21.5607 21.7144 21.5561C21.4152 20.7034 20.8186 19.7531 19.9763 20.0902C19.1339 20.4272 19.2935 21.6291 19.56 22.4083C19.2872 22.6693 19.0601 22.9742 18.8881 23.3103C17.4256 26.1194 19.0604 31.2511 19.1213 31.4187C19.3136 32.8118 18.5011 33.5393 17.6507 34.5706C17.6111 34.6188 17.5882 34.6786 17.5856 34.741C17.583 34.8034 17.6008 34.8649 17.6364 34.9162C17.6719 34.9676 17.7231 35.0059 17.7824 35.0255C17.8417 35.0451 17.9057 35.0449 17.9648 35.0248L23.1379 33.2499C23.5197 34.106 24.261 35.3504 25.1154 34.9725C25.9871 34.5867 25.7046 33.069 25.5404 32.4253L30.4074 30.7555C30.4706 30.7342 30.5244 30.6915 30.5596 30.6349C30.5947 30.5782 30.6091 30.511 30.6001 30.4449C30.5911 30.3788 30.5594 30.3179 30.5104 30.2726C30.4614 30.2273 30.3982 30.2005 30.3316 30.1968ZM20.1933 20.6231C20.5953 20.4571 20.9674 21.2105 21.1258 21.6147C20.7457 21.6895 20.3817 21.831 20.0509 22.0327C19.916 21.5412 19.796 20.7833 20.1933 20.6231ZM19.3998 23.5751C19.6118 23.1444 19.9396 22.7814 20.3464 22.5266C20.7532 22.2719 21.2229 22.1354 21.7029 22.1326C24.377 22.1326 26.1243 26.542 27.0844 29.0197C27.0947 29.0467 27.1062 29.0725 27.1177 29.0989L19.7162 31.7311C19.7131 31.5839 19.701 31.437 19.68 31.2913C19.6639 31.2402 18.0475 26.1705 19.3998 23.5751ZM24.8852 34.446C24.4832 34.6182 23.8809 33.4905 23.6851 33.0604L24.9972 32.6102C25.1792 33.3446 25.2515 34.2858 24.8852 34.446ZM18.7607 34.1428C19.2142 33.6358 19.5275 33.0193 19.6696 32.3541L27.4341 29.5933C27.9044 30.0805 28.5057 30.4211 29.1653 30.5741L18.7607 34.1428Z" fill="black"/>
<path d="M27.8735 22.1305C27.8152 22.1306 27.7583 22.1128 27.7103 22.0797C27.6622 22.0465 27.6255 21.9996 27.6048 21.945C27.5842 21.8904 27.5807 21.8309 27.5947 21.7743C27.6088 21.7177 27.6397 21.6667 27.6835 21.6281L30.9892 18.7123C31.0463 18.6619 31.1211 18.6362 31.1971 18.6409C31.2731 18.6457 31.3442 18.6804 31.3946 18.7375C31.445 18.7946 31.4707 18.8694 31.4659 18.9455C31.4612 19.0215 31.4264 19.0925 31.3693 19.1429C27.8494 22.2477 28.0309 22.1305 27.8735 22.1305Z" fill="black"/>
<path d="M24.663 17.7892L27.6196 12.224C27.6567 12.1596 27.7174 12.1121 27.7889 12.0915C27.8603 12.071 27.937 12.0789 28.0027 12.1138C28.0684 12.1486 28.118 12.2075 28.1411 12.2782C28.1642 12.3489 28.159 12.4258 28.1266 12.4927L25.17 18.0579C25.1328 18.1223 25.0721 18.1698 25.0007 18.1904C24.9292 18.2109 24.8525 18.203 24.7868 18.1681C24.7211 18.1333 24.6715 18.0744 24.6484 18.0037C24.6253 17.933 24.6305 17.8561 24.663 17.7892Z" fill="black"/>
<path d="M19.0425 17.6005L16.3845 11.89C16.3671 11.8556 16.3568 11.8181 16.3542 11.7797C16.3516 11.7413 16.3567 11.7028 16.3693 11.6664C16.3819 11.63 16.4017 11.5965 16.4274 11.5679C16.4532 11.5394 16.4845 11.5162 16.5194 11.5C16.5543 11.4837 16.5921 11.4747 16.6306 11.4733C16.6691 11.472 16.7074 11.4784 16.7434 11.4922C16.7793 11.5059 16.8121 11.5268 16.8398 11.5535C16.8676 11.5802 16.8896 11.6122 16.9047 11.6476L19.5627 17.3581C19.592 17.4267 19.5934 17.5039 19.5667 17.5735C19.5401 17.6431 19.4874 17.6995 19.4199 17.731C19.3523 17.7625 19.2752 17.7664 19.2048 17.7421C19.1344 17.7177 19.0762 17.6669 19.0425 17.6005Z" fill="black"/>
<path d="M15.1197 22.1306C15.0198 22.1306 15.3201 22.2546 10.0764 19.7189C10.0414 19.7032 10.0099 19.6806 9.9838 19.6525C9.95768 19.6244 9.93746 19.5913 9.92433 19.5552C9.9112 19.5192 9.90544 19.4808 9.90738 19.4425C9.90932 19.4042 9.91892 19.3666 9.93562 19.3321C9.95232 19.2975 9.97578 19.2667 10.0046 19.2414C10.0334 19.216 10.067 19.1967 10.1035 19.1846C10.1399 19.1725 10.1783 19.1678 10.2166 19.1708C10.2549 19.1738 10.2921 19.1845 10.3262 19.2021L15.2449 21.5834C15.3044 21.6111 15.3525 21.6585 15.3814 21.7174C15.4102 21.7764 15.4179 21.8435 15.4033 21.9075C15.3886 21.9715 15.3525 22.0286 15.3009 22.0692C15.2493 22.1097 15.1853 22.1314 15.1197 22.1306Z" fill="black"/>
<path d="M10.9425 26.8206C10.8725 26.8208 10.8049 26.7955 10.7523 26.7494C10.6998 26.7033 10.6658 26.6396 10.6568 26.5702C10.6479 26.5009 10.6646 26.4307 10.7037 26.3727C10.7429 26.3148 10.8018 26.2731 10.8695 26.2556L14.6765 25.2553C14.7133 25.2449 14.7517 25.2419 14.7896 25.2465C14.8275 25.2511 14.8641 25.2632 14.8973 25.2821C14.9305 25.3011 14.9595 25.3264 14.9828 25.3567C15.006 25.387 15.023 25.4216 15.0327 25.4586C15.0424 25.4955 15.0446 25.534 15.0393 25.5718C15.0339 25.6096 15.021 25.6459 15.0015 25.6787C14.9819 25.7115 14.956 25.74 14.9252 25.7627C14.8945 25.7853 14.8595 25.8016 14.8224 25.8106C10.7576 26.8786 11.0005 26.8206 10.9425 26.8206Z" fill="black"/>
<path fill-rule="evenodd" clip-rule="evenodd" d="M101.475 82.428C101.172 83.3977 100.681 84.2983 100.03 85.0786C96.1753 86.1081 92.1178 86.1081 88.2629 85.0786C84.8613 81.2515 85.9339 70.8261 85.9133 69.3338C85.8926 67.8414 85.8047 66.732 85.3902 66.0499C84.7384 64.9767 85.6566 64.0786 86.6586 63.7789C91.5731 62.5623 96.7102 62.5623 101.625 63.7789C102.627 64.0786 103.554 64.9772 102.902 66.0499C102.56 66.7661 102.39 67.5529 102.408 68.3467C102.991 67.9111 103.676 67.6317 104.398 67.5351C105.119 67.4384 105.853 67.5276 106.531 67.7943C108.762 68.7555 109.959 72.2088 109.25 75.0799C108.541 77.9509 106.801 80.4906 101.475 82.428ZM102.508 72.887C102.508 72.887 103.118 72.7675 103.118 71.6495C103.118 70.5316 104.109 69.6323 105.462 70.6234C106.815 71.6145 107.02 75.5542 105.462 77.0592C104.488 78.0346 103.376 78.8623 102.162 79.5162C102.464 77.3202 102.581 75.1026 102.51 72.887H102.508Z" fill="#FF3535"/>
<path fill-rule="evenodd" clip-rule="evenodd" d="M94.2877 64.4891C92.7717 64.4828 87.2134 64.7246 87.2306 65.5847C87.2467 66.407 101.345 67.0254 101.344 65.7845C101.344 64.8675 96.6367 64.4983 94.2877 64.4891Z" fill="white"/>
<path d="M106.645 67.5274C106.017 67.2655 105.337 67.1531 104.659 67.199C103.98 67.2448 103.321 67.4476 102.735 67.7915C102.754 67.2367 102.895 66.6929 103.148 66.1986C103.854 65.0347 103.127 63.9271 101.827 63.5378C99.3522 62.9418 96.8174 62.6278 94.2715 62.6018C91.7194 62.6326 89.1786 62.9467 86.6959 63.5383C85.3821 63.9317 84.4289 65.0187 85.1456 66.1986C85.7066 67.1214 85.6388 69.3315 85.5883 70.4122C85.4384 73.5491 85.0399 81.8843 88.0488 85.2687C88.0853 85.3101 88.1333 85.3398 88.1866 85.3543C92.0883 86.4037 96.198 86.4037 100.1 85.3543C100.156 85.3402 100.207 85.3096 100.246 85.2664C100.892 84.495 101.384 83.607 101.697 82.6503C107.489 80.5097 108.908 77.6547 109.529 75.1442C110.286 72.0762 108.937 68.5162 106.645 67.5274ZM101.211 82.3155C101.205 82.3289 101.201 82.3427 101.197 82.3569C100.913 83.2533 100.464 84.0889 99.8734 84.8208C96.1211 85.8159 92.1743 85.8159 88.422 84.8208C85.6296 81.5691 86.0149 73.4905 86.1608 70.4363C86.2182 69.1903 86.2802 66.9578 85.6359 65.8972C85.122 65.0514 85.9724 64.3514 86.8613 64.0856C91.7203 62.869 96.8043 62.869 101.663 64.0856C102.57 64.3566 103.171 65.0502 102.657 65.8972C102.011 66.9578 102.072 69.1932 102.131 70.4363C102.247 72.8704 102.515 78.4873 101.211 82.3155ZM102.8 73.0708C103.018 72.9102 103.19 72.6939 103.297 72.4443C103.404 72.1948 103.442 71.9211 103.407 71.6519C103.407 70.6562 104.218 70.0694 105.295 70.8572C106.497 71.738 106.697 75.4704 105.265 76.8548C104.45 77.6794 103.529 78.3908 102.525 78.9702C102.759 77.012 102.851 75.0394 102.8 73.0679V73.0708ZM108.971 75.011C108.402 77.3159 107.108 79.9291 101.922 81.9555C102.134 81.2148 102.3 80.4618 102.419 79.7006C103.612 79.0502 104.705 78.2308 105.664 77.2677C107.364 75.6243 107.119 71.4825 105.634 70.3938C104.149 69.3051 102.833 70.233 102.833 71.6519C102.835 71.8185 102.816 71.9847 102.775 72.1463C102.703 69.842 102.631 69.7817 102.687 68.4972C103.222 68.1172 103.844 67.8777 104.495 67.8008C105.147 67.724 105.807 67.8122 106.416 68.0574C108.474 68.9411 109.667 72.1905 108.971 75.0082V75.011Z" fill="black"/>
<path fill-rule="evenodd" clip-rule="evenodd" d="M97.4905 64.3672C97.4526 64.3645 97.4146 64.3694 97.3788 64.3818C97.3429 64.3942 97.31 64.4138 97.2819 64.4393C97.2538 64.4648 97.2312 64.4957 97.2154 64.5302C97.1997 64.5647 97.1911 64.602 97.1901 64.64C97.1866 64.7158 97.2132 64.79 97.2642 64.8463C97.3152 64.9026 97.3865 64.9364 97.4623 64.9403C98.0802 64.9707 98.6561 65.0293 99.1591 65.1039C99.2224 65.4243 99.1884 65.7562 99.0615 66.0571C95.8038 66.2836 92.5336 66.2583 89.2799 65.9813C89.1276 65.7023 89.0889 65.3752 89.1719 65.0683C89.9626 64.9466 91.1282 64.826 92.8468 64.729C92.923 64.7247 92.9943 64.6904 93.0451 64.6335C93.096 64.5766 93.1221 64.5019 93.1179 64.4258C93.1136 64.3496 93.0793 64.2783 93.0224 64.2275C92.9655 64.1766 92.8908 64.1505 92.8147 64.1547C88.2463 64.5021 87.343 64.8329 87.0542 65.2457C87.0009 65.3194 86.9657 65.4046 86.9518 65.4945C86.9378 65.5843 86.9454 65.6762 86.9738 65.7625C87.3413 66.9615 96.6693 66.7576 98.1026 66.6767C101.502 66.4814 101.581 66.0577 101.628 65.8044C101.839 64.6669 98.6481 64.4235 97.4905 64.3672Z" fill="black"/>
</svg>
