<svg width="114" height="96" viewBox="0 0 114 96" fill="none" xmlns="http://www.w3.org/2000/svg">
<path d="M14.7964 0.339111H96.1477V64.0387H14.7964V0.339111Z" fill="white"/>
<path d="M19.77 11.6779C19.77 12.0416 19.9164 12.3903 20.1772 12.6474C20.438 12.9045 20.7916 13.049 21.1604 13.049C21.5292 13.049 21.8828 12.9045 22.1436 12.6474C22.4043 12.3903 22.5508 12.0416 22.5508 11.6779C22.5508 11.3143 22.4043 10.9656 22.1436 10.7085C21.8828 10.4513 21.5292 10.3069 21.1604 10.3069C20.7916 10.3069 20.438 10.4513 20.1772 10.7085C19.9164 10.9656 19.77 11.3143 19.77 11.6779Z" fill="#FFD997"/>
<path d="M19.77 18.4672C19.77 18.8309 19.9164 19.1796 20.1772 19.4367C20.438 19.6938 20.7916 19.8383 21.1604 19.8383C21.5292 19.8383 21.8828 19.6938 22.1436 19.4367C22.4043 19.1796 22.5508 18.8309 22.5508 18.4672C22.5508 18.1036 22.4043 17.7549 22.1436 17.4978C21.8828 17.2406 21.5292 17.0962 21.1604 17.0962C20.7916 17.0962 20.438 17.2406 20.1772 17.4978C19.9164 17.7549 19.77 18.1036 19.77 18.4672Z" fill="#FFD997"/>
<path d="M19.77 25.2575C19.77 25.6211 19.9164 25.9699 20.1772 26.227C20.438 26.4841 20.7916 26.6286 21.1604 26.6286C21.5292 26.6286 21.8828 26.4841 22.1436 26.227C22.4043 25.9699 22.5508 25.6211 22.5508 25.2575C22.5508 24.8939 22.4043 24.5452 22.1436 24.288C21.8828 24.0309 21.5292 23.8865 21.1604 23.8865C20.7916 23.8865 20.438 24.0309 20.1772 24.288C19.9164 24.5452 19.77 24.8939 19.77 25.2575Z" fill="#FFD997"/>
<path fill-rule="evenodd" clip-rule="evenodd" d="M78.1491 24.199C77.1856 25.9851 75.7231 27.4615 73.9349 28.4533C72.1466 29.4451 70.1075 29.9106 68.0592 29.7948C66.0109 29.6789 64.0391 28.9866 62.3776 27.7997C60.716 26.6129 59.4343 24.9812 58.6843 23.0982C57.9342 21.2151 57.7473 19.1595 58.1456 17.1749C58.5439 15.1903 59.5108 13.3598 60.9317 11.9004C62.3526 10.441 64.168 9.41379 66.1627 8.94045C68.1575 8.46712 70.248 8.56751 72.1867 9.22973C71.4205 11.4456 68.6689 19.231 68.6689 19.231L78.1491 24.199Z" fill="#FF3535"/>
<path d="M96.1834 0H14.8315C14.7524 0 14.6766 0.0309709 14.6207 0.0860998C14.5648 0.141229 14.5334 0.216 14.5334 0.293964V63.9936C14.5334 64.0715 14.5648 64.1463 14.6207 64.2014C14.6766 64.2566 14.7524 64.2876 14.8315 64.2876H96.1834C96.2625 64.2876 96.3383 64.2566 96.3942 64.2014C96.4501 64.1463 96.4816 64.0715 96.4816 63.9936V0.293964C96.4816 0.216 96.4501 0.141229 96.3942 0.0860998C96.3383 0.0309709 96.2625 0 96.1834 0ZM95.8853 63.6996H15.1296V0.587928H95.8853V63.6996Z" fill="black"/>
<path d="M21.1604 13.3425C21.4943 13.3425 21.8208 13.2448 22.0985 13.0619C22.3762 12.8789 22.5926 12.6189 22.7204 12.3146C22.8482 12.0104 22.8816 11.6756 22.8165 11.3526C22.7513 11.0297 22.5905 10.733 22.3544 10.5001C22.1182 10.2673 21.8173 10.1087 21.4898 10.0444C21.1623 9.9802 20.8227 10.0132 20.5142 10.1392C20.2057 10.2652 19.9419 10.4786 19.7564 10.7524C19.5709 11.0262 19.4718 11.3482 19.4718 11.6775C19.4723 12.1189 19.6504 12.5421 19.9669 12.8543C20.2835 13.1664 20.7127 13.342 21.1604 13.3425ZM21.1604 10.6004C21.3764 10.6004 21.5876 10.6636 21.7672 10.7819C21.9469 10.9003 22.0869 11.0685 22.1695 11.2653C22.2522 11.4621 22.2738 11.6787 22.2317 11.8876C22.1896 12.0965 22.0855 12.2884 21.9328 12.4391C21.78 12.5897 21.5854 12.6923 21.3735 12.7339C21.1616 12.7754 20.942 12.7541 20.7424 12.6726C20.5428 12.591 20.3722 12.453 20.2522 12.2759C20.1321 12.0987 20.0681 11.8905 20.0681 11.6775C20.0684 11.3919 20.1836 11.1181 20.3883 10.9162C20.5931 10.7143 20.8708 10.6007 21.1604 10.6004Z" fill="black"/>
<path d="M21.1604 20.1323C21.4943 20.1323 21.8208 20.0346 22.0985 19.8517C22.3762 19.6687 22.5926 19.4087 22.7204 19.1044C22.8482 18.8002 22.8816 18.4654 22.8165 18.1424C22.7513 17.8195 22.5905 17.5228 22.3544 17.2899C22.1182 17.0571 21.8173 16.8985 21.4898 16.8342C21.1623 16.77 20.8227 16.803 20.5142 16.929C20.2057 17.055 19.9419 17.2684 19.7564 17.5422C19.5709 17.816 19.4718 18.138 19.4718 18.4673C19.4723 18.9087 19.6504 19.3319 19.9669 19.6441C20.2835 19.9562 20.7127 20.1318 21.1604 20.1323ZM21.1604 17.3902C21.3764 17.3902 21.5876 17.4533 21.7672 17.5717C21.9469 17.69 22.0869 17.8583 22.1695 18.0551C22.2522 18.2519 22.2738 18.4685 22.2317 18.6774C22.1896 18.8863 22.0855 19.0782 21.9328 19.2289C21.78 19.3795 21.5854 19.4821 21.3735 19.5236C21.1616 19.5652 20.942 19.5439 20.7424 19.4624C20.5428 19.3808 20.3722 19.2428 20.2522 19.0657C20.1321 18.8885 20.0681 18.6803 20.0681 18.4673C20.0684 18.1817 20.1836 17.9079 20.3883 17.706C20.5931 17.5041 20.8708 17.3905 21.1604 17.3902Z" fill="black"/>
<path d="M21.1604 26.9223C21.4943 26.9223 21.8208 26.8247 22.0985 26.6417C22.3762 26.4588 22.5926 26.1987 22.7204 25.8945C22.8482 25.5902 22.8816 25.2555 22.8165 24.9325C22.7513 24.6095 22.5905 24.3128 22.3544 24.08C22.1182 23.8471 21.8173 23.6885 21.4898 23.6243C21.1623 23.56 20.8227 23.593 20.5142 23.719C20.2057 23.845 19.9419 24.0585 19.7564 24.3323C19.5709 24.6061 19.4718 24.928 19.4718 25.2573C19.4723 25.6987 19.6504 26.122 19.9669 26.4341C20.2835 26.7463 20.7127 26.9218 21.1604 26.9223ZM21.1604 24.1802C21.3764 24.1802 21.5876 24.2434 21.7672 24.3617C21.9469 24.4801 22.0869 24.6483 22.1695 24.8451C22.2522 25.0419 22.2738 25.2585 22.2317 25.4674C22.1896 25.6764 22.0855 25.8683 21.9328 26.0189C21.78 26.1695 21.5854 26.2721 21.3735 26.3137C21.1616 26.3552 20.942 26.3339 20.7424 26.2524C20.5428 26.1709 20.3722 26.0328 20.2522 25.8557C20.1321 25.6786 20.0681 25.4703 20.0681 25.2573C20.0684 24.9717 20.1836 24.698 20.3883 24.496C20.5931 24.2941 20.8708 24.1805 21.1604 24.1802Z" fill="black"/>
<path d="M25.9365 11.7944H48.2799C48.3613 11.7889 48.4376 11.7529 48.493 11.6937C48.5484 11.6346 48.5788 11.5569 48.578 11.4764C48.5775 11.439 48.5692 11.4022 48.5537 11.3681C48.5382 11.334 48.5158 11.3034 48.4879 11.2781C48.46 11.2529 48.4271 11.2335 48.3914 11.2212C48.3556 11.2088 48.3177 11.2039 48.2799 11.2065H25.9365C25.855 11.2116 25.7786 11.2474 25.7231 11.3065C25.6676 11.3656 25.6373 11.4435 25.6383 11.524C25.6389 11.5614 25.6472 11.5982 25.6627 11.6323C25.6781 11.6665 25.7005 11.6971 25.7284 11.7224C25.7563 11.7477 25.7891 11.7672 25.8249 11.7795C25.8607 11.7919 25.8986 11.797 25.9365 11.7944Z" fill="black"/>
<path d="M25.9365 18.738H48.2799C48.3613 18.7327 48.4376 18.6969 48.4931 18.6378C48.5486 18.5788 48.5789 18.501 48.578 18.4205C48.5774 18.3831 48.5692 18.3463 48.5537 18.3121C48.5382 18.278 48.5158 18.2474 48.4879 18.2221C48.46 18.1968 48.4272 18.1773 48.3914 18.1649C48.3557 18.1526 48.3177 18.1475 48.2799 18.1501H25.9365C25.8549 18.1553 25.7785 18.1913 25.723 18.2504C25.6676 18.3096 25.6372 18.3875 25.6383 18.4681C25.6389 18.5055 25.6472 18.5423 25.6627 18.5764C25.6782 18.6105 25.7005 18.6411 25.7284 18.6664C25.7564 18.6916 25.7892 18.711 25.825 18.7233C25.8607 18.7356 25.8987 18.7406 25.9365 18.738Z" fill="black"/>
<path d="M25.9365 25.5742H48.2799C48.3613 25.5689 48.4376 25.5331 48.4931 25.474C48.5486 25.4149 48.5789 25.3372 48.578 25.2567C48.5774 25.2193 48.5692 25.1824 48.5537 25.1483C48.5382 25.1142 48.5158 25.0836 48.4879 25.0583C48.46 25.0329 48.4272 25.0135 48.3914 25.0011C48.3557 24.9887 48.3177 24.9837 48.2799 24.9862H25.9365C25.8549 24.9915 25.7785 25.0274 25.723 25.0866C25.6676 25.1458 25.6372 25.2237 25.6383 25.3043C25.6389 25.3417 25.6472 25.3785 25.6627 25.4126C25.6782 25.4467 25.7005 25.4773 25.7284 25.5026C25.7564 25.5278 25.7892 25.5472 25.825 25.5595C25.8607 25.5718 25.8987 25.5768 25.9365 25.5742Z" fill="black"/>
<path d="M53.3544 9.97245H59.6745L60.7382 11.6774C59.4475 12.9953 58.5153 14.6132 58.0281 16.3812C57.5409 18.1491 57.5145 20.0098 57.9513 21.7905C58.3881 23.5712 59.274 25.2143 60.5268 26.5672C61.7796 27.9202 63.3586 28.9391 65.1175 29.5296C66.8763 30.1201 68.7579 30.2629 70.5876 29.9448C72.4173 29.6267 74.136 28.8581 75.584 27.7101C77.032 26.5622 78.1625 25.0722 78.8705 23.3784C79.5786 21.6846 79.8413 19.8418 79.6342 18.0212H83.2224C83.3014 18.0212 83.3773 17.9902 83.4332 17.9351C83.4891 17.88 83.5205 17.8052 83.5205 17.7272C83.5205 17.6493 83.4891 17.5745 83.4332 17.5194C83.3773 17.4642 83.3014 17.4333 83.2224 17.4333H79.5513C79.2673 15.76 78.5882 14.176 77.5688 12.8092C77.5565 12.7877 77.5412 12.7679 77.5235 12.7504C76.914 11.943 76.1945 11.2223 75.3854 10.6086L76.4235 8.94416H82.7466C82.8256 8.94416 82.9015 8.91319 82.9574 8.85806C83.0133 8.80294 83.0447 8.72816 83.0447 8.6502C83.0447 8.57224 83.0133 8.49747 82.9574 8.44234C82.9015 8.38721 82.8256 8.35624 82.7466 8.35624H76.2589C76.208 8.35622 76.1579 8.36908 76.1134 8.39357C76.069 8.41807 76.0316 8.45339 76.0049 8.49616L74.9037 10.2599C72.8415 8.8635 70.3584 8.20156 67.8636 8.38324C65.3687 8.56493 63.0112 9.5794 61.1794 11.2594L60.0991 9.52798C60.0724 9.48529 60.0352 9.45002 59.9908 9.42553C59.9465 9.40104 59.8965 9.38814 59.8457 9.38805H53.3544C53.2754 9.38805 53.1995 9.41902 53.1436 9.47415C53.0877 9.52928 53.0563 9.60405 53.0563 9.68201C53.0563 9.75998 53.0877 9.83475 53.1436 9.88988C53.1995 9.94501 53.2754 9.97598 53.3544 9.97598V9.97245ZM75.3908 20.4846C75.4204 20.51 75.4547 20.5293 75.4919 20.5416C75.5291 20.5538 75.5683 20.5587 75.6074 20.556C75.6465 20.5532 75.6847 20.5429 75.7198 20.5256C75.7548 20.5084 75.7861 20.4844 75.8117 20.4552L77.9534 18.0212H79.0344C79.2751 20.0196 78.9147 22.0436 77.9981 23.8417L69.2275 19.1917L77.2409 13.3654C78.1019 14.5833 78.6838 15.9713 78.9462 17.4333H77.8175C77.7748 17.4332 77.7325 17.4422 77.6936 17.4596C77.6548 17.4771 77.6201 17.5026 77.5921 17.5344L75.361 20.0707C75.3094 20.1295 75.2836 20.2061 75.2892 20.2837C75.2948 20.3613 75.3313 20.4335 75.3908 20.4846ZM73.4232 13.1943C73.4566 13.2145 73.4936 13.2281 73.5323 13.2342C73.571 13.2403 73.6105 13.2388 73.6486 13.2299C73.6867 13.2209 73.7226 13.2047 73.7543 13.182C73.786 13.1594 73.8129 13.1308 73.8334 13.0979L75.0718 11.1113C75.7482 11.6308 76.3577 12.2298 76.8867 12.895L69.2591 18.4386L72.3064 9.58559C73.1138 9.88292 73.8807 10.2779 74.5894 10.7614L73.3248 12.7886C73.2836 12.855 73.2707 12.9348 73.289 13.0105C73.3073 13.0862 73.3554 13.1517 73.4226 13.1925L73.4232 13.1943ZM71.7424 9.39804L68.3886 19.1382C68.371 19.1911 68.3691 19.2478 68.3829 19.3017C68.3967 19.3556 68.4258 19.4045 68.4667 19.4428C68.5263 19.4975 68.0284 19.2223 77.7155 24.3585C76.9837 25.6201 75.9891 26.7146 74.7973 27.5698C73.6054 28.4249 72.2433 29.0214 70.8008 29.3199C69.3582 29.6184 67.8678 29.612 66.4279 29.3014C64.988 28.9907 63.6311 28.3828 62.4467 27.5175C61.2624 26.6523 60.2773 25.5495 59.5566 24.2816C58.8358 23.0138 58.3956 21.6098 58.265 20.1621C58.1344 18.7143 58.3163 17.2557 58.7988 15.8824C59.2813 14.509 60.0535 13.252 61.0644 12.1942L62.2688 14.125C62.2888 14.1589 62.3154 14.1885 62.3472 14.212C62.3789 14.2356 62.4151 14.2527 62.4537 14.2623C62.4922 14.2718 62.5323 14.2737 62.5716 14.2678C62.6109 14.2619 62.6486 14.2482 62.6824 14.2277C62.7163 14.2072 62.7457 14.1803 62.7688 14.1484C62.792 14.1165 62.8084 14.0804 62.8172 14.0422C62.826 14.004 62.827 13.9644 62.82 13.9258C62.8131 13.8872 62.7984 13.8504 62.7768 13.8175L61.4966 11.7656C62.8374 10.5095 64.493 9.628 66.2935 9.2116C68.094 8.7952 69.9745 8.85895 71.7418 9.39628L71.7424 9.39804Z" fill="black"/>
<path d="M53.0556 36.5998L55.1424 35.732C52.3204 38.4853 48.3924 42.0522 47.4158 42.2163C46.8792 42.3056 46.8035 42.1198 46.6544 41.7459C46.6245 41.5983 46.5625 41.4589 46.4728 41.3372C46.3831 41.2154 46.2677 41.1143 46.1346 41.0406C46.0015 40.967 45.8538 40.9227 45.7016 40.9107C45.5495 40.8987 45.3965 40.9192 45.2532 40.971C43.2159 41.4084 39.1436 45.8879 36.6674 46.1695C35.5256 46.3006 35.4302 45.9637 35.2531 45.3558C35.1938 44.9631 35.0072 44.5999 34.7211 44.3205C34.4349 44.0411 34.0648 43.8606 33.6659 43.806C31.6322 43.4039 24.438 50.1503 22.1436 52.3621V50.5983C22.1639 50.5584 22.175 50.5146 22.176 50.47C22.1771 50.4253 22.168 50.381 22.1496 50.3402C22.1496 43.5356 22.1496 58.6112 22.1723 31.9722C22.1732 31.9341 22.1665 31.8963 22.1524 31.8608C22.1384 31.8253 22.1173 31.793 22.0904 31.7656C22.0636 31.7382 22.0315 31.7164 21.996 31.7014C21.9605 31.6864 21.9223 31.6785 21.8837 31.6782C21.8443 31.6778 21.8052 31.6852 21.7687 31.6998C21.7322 31.7144 21.6989 31.736 21.6709 31.7633C21.6429 31.7906 21.6207 31.8232 21.6055 31.859C21.5904 31.8949 21.5826 31.9333 21.5826 31.9722V34.5891H20.4014C20.3212 34.5908 20.245 34.6236 20.1892 34.6804C20.1334 34.7372 20.1025 34.8134 20.1033 34.8924C20.1036 34.9307 20.1116 34.9685 20.1267 35.0037C20.1419 35.0389 20.164 35.0708 20.1917 35.0975C20.2194 35.1243 20.2522 35.1454 20.2882 35.1597C20.3242 35.1739 20.3626 35.181 20.4014 35.1805H21.5766V38.293H20.4014C20.3212 38.2947 20.245 38.3275 20.1892 38.3843C20.1334 38.4411 20.1025 38.5173 20.1033 38.5964C20.1036 38.6346 20.1116 38.6724 20.1267 38.7076C20.1419 38.7428 20.164 38.7747 20.1917 38.8015C20.2194 38.8283 20.2522 38.8494 20.2882 38.8636C20.3242 38.8778 20.3626 38.8849 20.4014 38.8845H21.5718V42.2545H20.4014C20.3212 42.2562 20.245 42.289 20.1892 42.3458C20.1334 42.4026 20.1025 42.4788 20.1033 42.5578C20.1047 42.6349 20.1367 42.7083 20.1925 42.7623C20.2483 42.8163 20.3233 42.8465 20.4014 42.8465H21.5617V46.2165H20.399C20.3188 46.2179 20.2423 46.2506 20.1864 46.3075C20.1306 46.3643 20.0998 46.4407 20.1009 46.5199C20.1012 46.5581 20.1092 46.5959 20.1244 46.6311C20.1395 46.6663 20.1616 46.6982 20.1893 46.725C20.217 46.7518 20.2498 46.7729 20.2858 46.7871C20.3218 46.8013 20.3603 46.8084 20.399 46.808H21.5516V50.1809H20.4014C20.3212 50.1826 20.245 50.2154 20.1892 50.2722C20.1334 50.329 20.1025 50.4052 20.1033 50.4843C20.1036 50.5225 20.1116 50.5603 20.1267 50.5955C20.1419 50.6307 20.164 50.6626 20.1917 50.6894C20.2194 50.7162 20.2522 50.7373 20.2882 50.7515C20.3242 50.7657 20.3626 50.7728 20.4014 50.7724H21.5462V52.9477C21.4883 52.9927 21.4497 53.0575 21.4381 53.1293C21.4265 53.2011 21.4429 53.2745 21.4838 53.335C21.5248 53.3954 21.5874 53.4384 21.6591 53.4553C21.7307 53.4722 21.8063 53.4619 21.8706 53.4263H25.1839V54.6298C25.1856 54.7085 25.2186 54.7835 25.2758 54.8384C25.333 54.8934 25.4098 54.9241 25.4897 54.9237C25.5682 54.9228 25.6431 54.8914 25.6982 54.8364C25.7534 54.7814 25.7843 54.7071 25.7843 54.6298V53.4145H29.2007V54.6304C29.2026 54.7092 29.2357 54.7841 29.293 54.8391C29.3503 54.894 29.4272 54.9246 29.5072 54.9243C29.5855 54.9232 29.6603 54.8918 29.7153 54.8368C29.7703 54.7818 29.8011 54.7076 29.8011 54.6304V53.3957H33.2194V54.6339C33.2211 54.7126 33.2541 54.7876 33.3113 54.8426C33.3685 54.8975 33.4453 54.9282 33.5252 54.9278C33.6036 54.9268 33.6783 54.8953 33.7333 54.8403C33.7883 54.7853 33.8192 54.7111 33.8192 54.6339V53.3675H37.2362V54.6274C37.2381 54.7062 37.2712 54.7812 37.3285 54.8361C37.3858 54.8911 37.4627 54.9217 37.5427 54.9214C37.621 54.9203 37.6958 54.8888 37.7508 54.8338C37.8058 54.7788 37.8366 54.7047 37.8366 54.6274V53.3493H40.9925V54.6315C40.9944 54.7103 41.0275 54.7853 41.0848 54.8402C41.1421 54.8952 41.219 54.9258 41.299 54.9255C41.3773 54.9244 41.4521 54.893 41.5071 54.8379C41.5621 54.7829 41.5929 54.7088 41.5929 54.6315V53.3328H45.0159V54.6356C45.0178 54.7145 45.051 54.7894 45.1083 54.8444C45.1656 54.8993 45.2425 54.9299 45.3224 54.9296C45.4007 54.9285 45.4755 54.8971 45.5305 54.8421C45.5855 54.7871 45.6164 54.7129 45.6163 54.6356V53.3028H49.0328V54.6274C49.0348 54.7063 49.0681 54.7812 49.1255 54.8362C49.1829 54.8911 49.2598 54.9217 49.3398 54.9214C49.4182 54.9203 49.493 54.8888 49.548 54.8338C49.603 54.7788 49.6338 54.7047 49.6338 54.6274V53.2846H53.0502V54.6315C53.0523 54.7104 53.0856 54.7853 53.143 54.8403C53.2004 54.8952 53.2773 54.9258 53.3573 54.9255C53.4355 54.9243 53.5102 54.8927 53.565 54.8377C53.6199 54.7828 53.6507 54.7087 53.6507 54.6315V53.2664H56.1763C56.2571 53.2633 56.3334 53.2293 56.3891 53.1715C56.4448 53.1137 56.4754 53.0368 56.4744 52.9571C56.4744 52.7954 56.3403 52.7572 56.1763 52.7572H22.499C26.2499 49.1332 32.1294 44.1206 33.5497 44.3928C34.3981 44.5597 34.5287 45.0083 34.6825 45.5281C34.8668 46.1624 35.0945 46.9526 36.7378 46.7627C39.49 46.4493 43.4806 41.9629 45.3832 41.5542C45.8906 41.4437 45.9532 41.5989 46.1029 41.9717C46.1354 42.1207 46.1989 42.2614 46.2893 42.385C46.3798 42.5086 46.4953 42.6124 46.6284 42.6898C46.7616 42.7672 46.9096 42.8165 47.0631 42.8347C47.2165 42.8529 47.3722 42.8395 47.5201 42.7954C48.9016 42.5637 53.9279 37.7515 55.7333 35.9854L55.2855 37.9738C55.2709 38.0489 55.2865 38.1268 55.3292 38.1908C55.3718 38.2547 55.4381 38.2998 55.5139 38.3163C55.5897 38.3329 55.669 38.3196 55.7351 38.2793C55.8011 38.2391 55.8486 38.175 55.8675 38.1008L56.5645 35.0088C56.5763 34.9562 56.5732 34.9014 56.5556 34.8504C56.5379 34.7994 56.5064 34.7541 56.4644 34.7196C56.4224 34.685 56.3716 34.6626 56.3175 34.6546C56.2635 34.6466 56.2082 34.6534 56.1578 34.6743L52.8267 36.0571C52.7538 36.0874 52.696 36.1449 52.6662 36.2172C52.6363 36.2894 52.6368 36.3703 52.6675 36.4422C52.6981 36.5141 52.7565 36.571 52.8298 36.6005C52.903 36.6299 52.9851 36.6294 53.058 36.5992L53.0556 36.5998Z" fill="black"/>
<path fill-rule="evenodd" clip-rule="evenodd" d="M83.2164 58.8822C84.9748 56.9767 85.7892 47.7986 85.7892 47.7986C83.3977 43.91 80.9156 45.7514 80.9156 45.7514C80.218 48.6911 79.6539 51.2468 79.6539 51.2468C79.0308 50.9021 78.3882 50.593 77.7293 50.3208C76.9512 50.0268 72.9474 46.354 72.3083 45.371C71.6691 44.388 71.2273 43.1775 70.3824 42.4232C69.615 41.716 68.6137 41.3071 67.564 41.272C66.5409 41.2326 64.7253 40.5383 64.3002 40.5447C63.8751 40.5512 63.7606 41.1744 64.3246 41.6177C64.8887 42.061 67.2653 42.653 67.2653 42.653C66.3831 42.7122 65.4969 42.6651 64.6263 42.5125C63.596 42.2644 61.3107 41.5001 61.1026 41.9246C60.8945 42.3491 61.8968 43.1969 64.9674 43.8648C64.8706 44.1595 64.8805 44.4783 64.9954 44.7666C64.9954 44.7666 64.5482 45.3751 64.9006 45.7444C64.8621 45.9794 64.8976 46.2204 65.0023 46.435C65.107 46.6495 65.2758 46.8273 65.4861 46.9443C66.7576 47.4731 68.1161 47.7692 69.4952 47.818C69.4952 47.818 71.1605 49.7152 72.9087 51.6442C74.6568 53.5732 78.8102 60.4696 83.2164 58.8822Z" fill="#FFD997"/>
<path fill-rule="evenodd" clip-rule="evenodd" d="M90.998 32.8075L90.9073 30.6627C90.9073 30.6627 91.875 31.44 94.4251 31.1625C96.1254 30.9559 97.7418 30.3162 99.1152 29.3064L99.3036 30.7539C99.3036 30.7539 108.503 33.9822 109.976 36.1463C111.45 38.3105 112.711 44.6654 113.218 49.4806C112.145 49.0625 111.361 48.9638 109.091 49.1631C106.822 49.3624 106.456 50.5082 106.456 50.5082L105.964 47.2688C105.964 47.2688 103.156 52.8864 102.352 54.9165L103.163 57.4382L83.5128 57.8944C83.4603 54.9965 85.3343 49.8298 85.3343 49.8298C83.4585 47.1518 83.0531 45.5285 83.0531 45.5285C82.4569 44.8124 80.9263 45.6937 80.9263 45.6937C81.7068 42.409 82.6488 38.6656 83.1521 37.4898C84.1335 35.2033 90.998 32.8075 90.998 32.8075Z" fill="#FF3535"/>
<path fill-rule="evenodd" clip-rule="evenodd" d="M90.7893 30.0255L90.8454 30.5411C90.8454 30.5411 93.1939 32.914 99.2243 29.2959L98.9321 26.4961L97.2108 24.8564C97.5468 24.6369 97.8168 24.3323 97.9925 23.9745C98.9297 22.2366 98.8045 20.969 97.8673 20.9044C97.556 20.8531 97.2363 20.8942 96.9488 21.0226C96.6613 21.1509 96.419 21.3607 96.2526 21.6252C95.846 22.0926 95.3231 15.7541 92.8577 14.7211C90.3922 13.6881 89.0596 14.6565 89.0596 14.6565C89.0596 14.6565 85.2145 18.0735 86.1231 21.5123C85.6779 22.0363 85.3118 22.6211 85.0362 23.2484C84.9766 23.7094 85.9103 24.068 85.9103 24.068C85.9103 24.068 85.4363 25.3238 85.5663 25.6107C85.8551 26.0384 86.1764 26.4438 86.5274 26.8236C86.3754 27.1772 86.3152 27.5625 86.3521 27.9448C86.4821 28.294 86.8005 28.1365 86.9907 28.4998C87.1809 28.8631 86.6759 30.3224 88.2499 30.5282C89.122 30.5304 89.9857 30.3595 90.7893 30.0255Z" fill="#FFD997"/>
<path fill-rule="evenodd" clip-rule="evenodd" d="M85.8584 25.9322C85.8282 25.8934 85.8107 25.8466 85.8081 25.7978C85.8055 25.749 85.8179 25.7006 85.8436 25.6588C85.8694 25.6171 85.9074 25.5841 85.9526 25.564C85.9978 25.544 86.0481 25.5379 86.0969 25.5465C86.9027 25.6625 87.6732 25.9502 88.3548 26.3896C88.2478 26.7842 88.038 27.1443 87.7461 27.4341C87.4543 27.7239 87.0907 27.9334 86.6913 28.0417C86.3544 28.03 86.3425 27.6743 86.4355 27.4567C86.504 27.2606 86.551 27.0578 86.5756 26.8517L85.8584 25.9322Z" fill="white"/>
<path fill-rule="evenodd" clip-rule="evenodd" d="M98.4205 13.2002C98.2947 12.942 98.2286 12.6594 98.227 12.3729C98.2254 12.0864 98.2884 11.8031 98.4114 11.5435C98.5344 11.284 98.7144 11.0546 98.9383 10.8719C99.1622 10.6893 99.4244 10.558 99.706 10.4875C101.893 9.76439 102.803 10.8185 104.042 12.5964C105.281 14.3743 106.262 14.1333 105.849 16.2275C105.458 18.2094 103.881 19.0801 101.867 18.9319C101.897 19.4799 101.9 20.0637 101.881 20.6775C101.804 23.0245 98.9071 26.5985 98.9071 26.5985C98.2202 25.9853 97.1559 24.8935 97.1559 24.8935C97.711 24.4561 98.1266 23.8703 98.3532 23.2062C98.7312 22.1479 98.8152 21.2043 98.1397 20.9721C97.3431 20.6951 96.2526 21.6317 96.2526 21.6317C93.1826 21.3236 93.8754 18.0759 93.8754 18.0759C93.3677 17.6686 92.9691 17.1448 92.7144 16.5503C92.4598 15.9558 92.3568 15.3088 92.4146 14.6659C91.3068 14.452 90.1674 14.452 89.0596 14.6659C89.0596 14.6659 88.5558 13.7841 92.6144 12.6458C93.5703 12.3491 94.5771 12.2452 95.5747 12.3405C96.5722 12.4358 97.5401 12.7281 98.4205 13.2002Z" fill="#FF3535"/>
<path fill-rule="evenodd" clip-rule="evenodd" d="M113.22 49.4806C113.727 54.2957 113.843 58.48 112.393 59.8164C110.943 61.1527 109.327 61.5002 107.074 61.4385C103.803 61.3055 100.546 60.9356 97.3299 60.332C97.0188 60.2957 96.7034 60.3248 96.4046 60.4175C96.1057 60.5101 95.8302 60.6641 95.596 60.8694C94.744 61.5749 92.6065 63.762 90.6252 63.7502C88.6439 63.7385 88.6499 62.923 88.6499 62.923C88.6499 62.923 87.5766 62.8824 87.2785 62.1269C86.9387 62.0592 86.6295 61.8866 86.3957 61.6341C86.1619 61.3816 86.0157 61.0623 85.9781 60.7224C85.9781 60.7224 85.2143 60.3443 85.1875 59.8082C85.1875 59.8082 88.5861 59.5671 90.5984 57.8939L89.394 56.2871C90.2578 56.0185 91.1651 55.9124 92.0687 55.9743C93.1032 56.1618 94.8245 56.6445 96.1428 56.621C97.4611 56.5975 100.921 56.2183 102.382 56.0525C103.844 55.8867 106.208 55.0789 107.431 54.9942C106.985 53.484 106.65 51.9442 106.428 50.3866C107.746 48.6028 111.772 49.1067 113.22 49.4806Z" fill="#FFD997"/>
<path fill-rule="evenodd" clip-rule="evenodd" d="M85.2204 59.7448C87.4969 60.141 90.6552 57.9539 90.6552 57.9539C90.6552 57.9539 87.9465 54.6698 87.3937 54.0625C87.2737 53.9003 87.0954 53.7894 86.8953 53.7525C86.6952 53.7155 86.4883 53.7553 86.3169 53.8637L82.8087 55.8627C82.6617 55.9515 82.5557 56.0935 82.5136 56.2583C82.4715 56.4232 82.4965 56.5977 82.5833 56.7446C83.41 57.7882 84.2902 58.7896 85.2204 59.7448Z" fill="white"/>
<path fill-rule="evenodd" clip-rule="evenodd" d="M88.4221 21.4951C87.9081 21.1453 88.2128 20.3716 88.2128 20.3716C88.2128 20.3716 88.3368 20.1058 90.1494 20.8778L88.4221 21.4951Z" fill="white"/>
<path d="M113.544 49.3077C113.021 44.3391 111.713 38.1659 110.226 35.9823C108.813 33.9075 100.917 31.0143 99.5842 30.5405L99.2145 26.6843C99.6856 26.0869 102.107 22.9121 102.178 20.6827C102.195 20.1469 102.194 19.6446 102.175 19.1758C104.42 19.3634 105.844 18.3627 106.196 15.9581C106.477 14.045 105.421 14.0567 104.289 12.427C102.999 10.5774 101.977 9.42387 99.6122 10.2058C99.0732 10.327 98.602 10.6475 98.2957 11.1013C97.9894 11.5551 97.8714 12.1075 97.966 12.6445C96.2501 11.9051 94.3213 11.8007 92.5337 12.3506C91.4706 12.6492 88.7607 13.4576 88.7428 14.5441C88.0869 15.165 85.064 18.2299 85.8004 21.4405C85.3431 21.9625 84.9845 22.5611 84.7414 23.2078C84.6782 23.697 85.1922 24.0445 85.538 24.2202C85.3164 24.6907 85.2322 25.2127 85.2947 25.7277C85.5561 26.1397 85.8555 26.527 86.1891 26.8847C86.039 27.252 85.9991 27.654 86.074 28.043C86.1121 28.1468 86.1736 28.2407 86.254 28.3175C86.3344 28.3943 86.4315 28.452 86.5379 28.4863C86.7519 28.575 86.7424 28.6003 86.7502 28.9537C86.7621 29.5416 86.7847 30.6298 88.2121 30.8168C89.0118 30.8279 89.8066 30.6921 90.5559 30.4164L90.6877 32.6017C89.5018 33.0327 83.8077 35.198 82.877 37.3734C82.0077 39.4041 79.9018 48.7468 79.4451 50.7969C78.9219 50.5158 78.3832 50.2635 77.8316 50.0414C77.1203 49.7745 73.1756 46.1611 72.5555 45.2081C71.9199 44.2304 71.4721 42.9975 70.5796 42.2014C69.7599 41.4487 68.6922 41.013 67.5728 40.9744C66.8593 40.8918 66.1561 40.7381 65.474 40.5158C65.0903 40.3871 64.6943 40.2969 64.2922 40.2466C63.609 40.2572 63.3138 41.1978 64.136 41.8434C64.4234 42.0339 64.7354 42.1853 65.0638 42.2937C64.6685 42.2239 64.2781 42.1291 63.8952 42.0098C61.9979 41.4853 61.0761 41.2925 60.8311 41.7911C60.7918 41.8755 60.7729 41.9677 60.7757 42.0605C60.7786 42.1533 60.8033 42.2442 60.8478 42.3261C61.162 42.9657 62.5274 43.6001 64.6124 44.0816C64.5777 44.3 64.5925 44.5233 64.656 44.7354C64.5466 44.895 64.4828 45.0808 64.4713 45.2731C64.4599 45.4654 64.5012 45.6572 64.591 45.8284C64.5628 46.1074 64.6211 46.3884 64.7581 46.6342C64.895 46.88 65.1043 47.0791 65.3583 47.2053C66.6261 47.7336 67.9784 48.0375 69.3531 48.103C69.7174 48.5146 71.1776 50.1726 72.6837 51.8346C74.5565 53.9012 78.3533 60.282 82.7715 59.3125C80.9392 65.404 74.16 88.2085 73.2489 95.0985C73.2435 95.1401 73.2471 95.1824 73.2597 95.2225C73.2722 95.2627 73.2933 95.2997 73.3215 95.3311C73.3498 95.3625 73.3845 95.3876 73.4234 95.4047C73.4623 95.4217 73.5045 95.4304 73.5471 95.4301L83.0779 95.3184C83.1324 95.3178 83.1856 95.3025 83.2318 95.2742C83.2781 95.2459 83.3156 95.2057 83.3403 95.1578C83.3999 95.0456 88.6748 84.8485 90.4027 82.0035L92.9159 94.6017C92.9282 94.6711 92.9635 94.7346 93.0162 94.7822C93.069 94.8299 93.1362 94.859 93.2074 94.8651H103.493C103.526 94.8709 103.56 94.87 103.594 94.8624C103.627 94.8548 103.658 94.8407 103.686 94.8208C103.713 94.801 103.736 94.7759 103.754 94.747C103.771 94.7182 103.783 94.6861 103.787 94.6528C103.921 93.9596 107.076 77.6288 106.351 72.3639C105.729 67.8333 104.599 62.8506 104.297 61.5589C105.433 61.653 106.422 61.7124 107.063 61.73C109.611 61.7971 111.208 61.3061 112.595 60.0286C113.906 58.8233 114.197 55.518 113.544 49.3077ZM102.141 18.5826C102.094 17.7806 101.94 16.9881 101.683 16.2256C102.838 16.8535 104.283 17.2251 105.449 16.6083C105.005 18.1258 103.942 18.7578 102.141 18.5826ZM98.6594 11.6586C98.7743 11.438 98.9355 11.2441 99.1323 11.0897C99.329 10.9354 99.5569 10.824 99.8006 10.7632C101.716 10.13 102.489 10.8855 103.795 12.7621C104.977 14.4589 105.807 14.2943 105.622 15.7664C104.03 17.2515 101.474 15.4225 101.158 15.1856C100.919 14.8542 100.649 14.5453 100.353 14.2625C101.329 14.3366 102.524 14.2437 103.23 13.5699C103.287 13.5154 103.32 13.4408 103.321 13.3625C103.322 13.2843 103.291 13.2089 103.236 13.1528C103.181 13.0967 103.105 13.0647 103.026 13.0636C102.946 13.0626 102.87 13.0926 102.813 13.1472C101.924 13.9956 99.8734 13.6276 99.5192 13.5588C99.2442 13.354 98.9562 13.1666 98.657 12.9979C98.4944 12.5657 98.4953 12.0902 98.6594 11.6586ZM92.697 12.9173C94.1228 12.4839 95.6495 12.4949 97.0687 12.9487C98.4879 13.4025 99.7305 14.2771 100.627 15.4531C101.353 16.4525 101.666 18.1546 101.586 20.6645C101.527 22.5394 99.5162 25.3173 98.8729 26.1604C98.4335 25.7489 97.9141 25.2315 97.6166 24.9311C97.8813 24.699 98.0992 24.4197 98.2588 24.108C98.9343 22.8568 99.1161 21.7745 98.759 21.1383C98.6727 20.9841 98.5475 20.8543 98.3956 20.7617C98.2436 20.669 98.07 20.6165 97.8915 20.6092C97.5646 20.5859 97.2366 20.6375 96.9332 20.7599C96.6299 20.8823 96.3593 21.0722 96.1427 21.3147C94.6312 21.1054 94.0278 20.0377 94.1185 18.565C95.2075 18.9157 96.373 18.9661 97.489 18.7108C97.5274 18.7031 97.5639 18.6879 97.5964 18.6663C97.6289 18.6447 97.6567 18.617 97.6783 18.5847C97.7 18.5525 97.7149 18.5164 97.7224 18.4784C97.7299 18.4405 97.7297 18.4015 97.7218 18.3636C97.714 18.3257 97.6987 18.2898 97.6768 18.2577C97.6548 18.2257 97.6267 18.1982 97.594 18.1769C97.5613 18.1556 97.5247 18.1408 97.4862 18.1335C97.4477 18.1261 97.4082 18.1263 97.3698 18.134C96.699 18.2681 94.8024 18.4721 94.0744 17.8483L94.0565 17.8342C93.592 17.4558 93.2272 16.9724 92.9932 16.425C92.7592 15.8776 92.6629 15.2825 92.7125 14.6905C92.7215 14.6154 92.7009 14.5398 92.6548 14.4794C92.6087 14.4189 92.5408 14.3783 92.4651 14.366C91.4977 14.1976 90.5108 14.1671 89.5346 14.2754C89.8411 13.9844 90.6382 13.4941 92.6959 12.9173H92.697ZM98.8562 29.1588C97.5281 30.0684 96.0003 30.6547 94.3981 30.8697C92.3709 31.0919 91.402 30.6193 91.1582 30.4734L91.1421 30.2177C92.858 29.5945 94.5925 28.6497 94.7648 28.1276C94.9323 27.6173 95.556 25.9405 95.8106 25.2597C96.226 25.406 96.6809 25.4003 97.0925 25.2438C97.3954 25.5513 98.0918 26.2521 98.6237 26.7354L98.8562 29.1588ZM86.6333 27.8519C86.6078 27.5347 86.6662 27.2165 86.8026 26.9282C86.8224 26.8779 86.8277 26.8232 86.818 26.7701C86.8084 26.717 86.7841 26.6676 86.7478 26.6272C86.5266 26.3809 86.2302 26.034 86.0359 25.7835C86.7994 25.8212 87.5388 26.0595 88.1776 26.4738C87.8496 26.987 87.1818 27.8478 86.6333 27.8519ZM88.2867 30.2353C86.9702 30.0625 87.5151 28.8649 87.2528 28.3634C87.2401 28.3388 87.2262 28.3149 87.2111 28.2916C87.8956 27.8483 88.4555 27.2416 88.8388 26.5279C88.8743 26.4646 88.885 26.3907 88.8687 26.3202C88.8524 26.2497 88.8103 26.1876 88.7505 26.1457C87.9194 25.5348 86.9121 25.2015 85.8755 25.1944C85.9551 24.8459 86.0593 24.5033 86.1873 24.1691C86.2032 24.1263 86.2087 24.0804 86.2034 24.035C86.5814 24.1373 86.6029 24.3696 86.836 24.3696C86.8952 24.3697 86.9531 24.3524 87.0023 24.32C87.0515 24.2875 87.0898 24.2414 87.1123 24.1874C87.1348 24.1334 87.1405 24.0741 87.1287 24.0169C87.1168 23.9597 87.088 23.9073 87.0459 23.8663C86.9086 23.7223 86.742 23.6086 86.5571 23.5324C86.3722 23.4562 86.173 23.4193 85.9727 23.4242C85.911 23.4296 85.8526 23.4541 85.8059 23.4941C85.7591 23.5341 85.7263 23.5876 85.7121 23.647C85.4861 23.5165 85.3168 23.3648 85.3269 23.2843C85.5869 22.708 85.9324 22.173 86.3519 21.6969C86.5798 21.4003 86.7397 21.0584 86.8204 20.6949C86.9011 20.3313 86.9008 19.9549 86.8193 19.5915C86.7978 19.524 86.7522 19.4665 86.6911 19.4295C86.63 19.3924 86.5574 19.3784 86.4866 19.3898C86.455 19.3951 86.427 19.401 86.3966 19.4069C86.8998 17.1692 88.8471 15.2579 89.1989 14.9263C90.1568 14.7612 91.136 14.7549 92.096 14.9075C92.0746 15.5272 92.1937 16.1438 92.4446 16.7124C92.6956 17.281 93.0721 17.7871 93.5467 18.194C93.3082 19.9096 93.964 21.4446 95.7218 21.8391C95.7123 21.9021 95.7239 21.9664 95.7546 22.0223C95.7854 22.0783 95.8338 22.1229 95.8925 22.1494C95.9512 22.1759 96.017 22.1829 96.0801 22.1694C96.1432 22.1558 96.2001 22.1225 96.2423 22.0743C96.7032 21.5452 97.0985 21.1436 97.8408 21.1965C97.9205 21.1963 97.9988 21.2176 98.0671 21.2581C98.1354 21.2986 98.1912 21.3568 98.2283 21.4264C98.4156 21.7592 98.3959 22.5899 97.7239 23.8369C97.6328 24.0442 97.4998 24.231 97.3328 24.3858C97.1659 24.5406 96.9687 24.6601 96.7532 24.737C96.4267 24.8155 96.0824 24.7737 95.785 24.6194C95.7474 24.5971 95.7053 24.5833 95.6616 24.5788C95.618 24.5744 95.5739 24.5795 95.5325 24.5939C95.4911 24.6082 95.4534 24.6313 95.4221 24.6617C95.3908 24.692 95.3667 24.7288 95.3515 24.7694C95.3127 24.8723 94.4041 27.2975 94.1918 27.9442C93.8883 28.565 89.655 30.4152 88.289 30.2353H88.2867ZM83.4267 37.6044C84.1422 35.9335 88.6343 33.9875 90.7265 33.2167L90.7551 33.67C90.7575 33.7086 90.7676 33.7464 90.7847 33.7811C90.8019 33.8159 90.8259 33.847 90.8553 33.8726C90.8846 33.8983 90.9188 33.9179 90.9559 33.9305C90.993 33.9431 91.0322 33.9484 91.0714 33.946C91.1105 33.9437 91.1488 33.9337 91.1841 33.9168C91.2194 33.8999 91.2509 33.8762 91.2769 33.8473C91.3029 33.8183 91.3228 33.7846 91.3356 33.748C91.3484 33.7114 91.3537 33.6727 91.3513 33.6341L91.1963 31.1496C92.2431 31.5089 93.3623 31.6136 94.4589 31.4547C96.0469 31.2395 97.5682 30.6851 98.9164 29.8303C98.9344 30.1716 98.97 30.5119 99.0231 30.8497V30.8562C99.0368 30.8915 99.057 30.924 99.0827 30.952L99.0893 30.9591C99.1172 30.9877 99.1509 31.0101 99.1883 31.0249C99.7332 31.2524 108.35 34.2856 109.728 36.3104C111.106 38.3352 112.384 44.3062 112.911 49.0331C111.875 48.78 110.802 48.7025 109.739 48.8039C107.982 48.8909 107.082 49.3612 106.623 49.7851C106.266 47.591 106.035 45.4409 105.836 43.228C105.829 43.15 105.791 43.0779 105.73 43.0277C105.669 42.9774 105.59 42.953 105.511 42.9599C105.432 42.9667 105.359 43.0043 105.308 43.0642C105.257 43.1242 105.233 43.2017 105.24 43.2797C105.355 44.5608 105.486 45.8766 105.653 47.2188C105.295 47.939 102.828 52.8988 102.072 54.8101C102.019 54.9453 102.062 54.9965 102.286 55.7667C100.823 55.9325 97.4204 56.3035 96.1284 56.327C94.7748 56.234 93.4327 56.0193 92.1187 55.6856C91.2227 55.6077 90.32 55.7013 89.4601 55.9613C89.0183 55.4539 88.0368 54.3304 87.6147 53.8659C87.4503 53.6516 87.21 53.5061 86.9418 53.4585C86.6735 53.4109 86.3969 53.4646 86.167 53.609L84.1732 54.7466C84.487 53.0982 84.9711 51.4857 85.6179 49.9344C85.6395 49.8864 85.6476 49.8335 85.6414 49.7812C85.6353 49.729 85.615 49.6794 85.5827 49.6375C85.5636 49.6128 83.6652 47.1283 83.3856 45.4921C83.159 44.1645 85.6358 39.8333 86.6094 38.2764C86.6306 38.2436 86.645 38.2069 86.6516 38.1685C86.6583 38.1301 86.6572 38.0909 86.6483 38.0529C86.6395 38.015 86.6231 37.9791 86.6001 37.9475C86.5771 37.9159 86.5479 37.889 86.5143 37.8686C86.4807 37.8482 86.4434 37.8345 86.4044 37.8284C86.3654 37.8224 86.3255 37.824 86.2872 37.8332C86.2488 37.8424 86.2127 37.8591 86.1809 37.8822C86.1491 37.9053 86.1223 37.9344 86.102 37.9678C85.7646 38.5069 83.0487 42.9064 82.7965 45.0341C82.3091 44.9285 81.7998 44.989 81.3518 45.2057C81.9105 42.6383 82.6039 40.1011 83.4291 37.6044H83.4267ZM107.05 54.739C105.947 54.8942 104.141 55.4498 102.884 55.6797L102.667 54.933C103.297 53.3715 104.992 49.908 105.795 48.2788C106.086 50.4545 106.506 52.6115 107.053 54.739H107.05ZM85.3872 59.493C84.9006 58.9809 83.5585 57.5528 83.0022 56.8373L86.5939 54.7796L89.6205 58.206C88.3066 58.898 86.8704 59.3349 85.3895 59.493H85.3872ZM64.8921 43.5431C62.2466 42.9516 61.4935 42.292 61.385 42.0897C62.1852 42.1659 62.9743 42.3297 63.7377 42.5783C64.4588 42.8173 65.2125 42.9466 65.973 42.9616C65.5851 43.1007 65.2207 43.2967 64.8921 43.5431ZM67.277 43.3497C68.2674 43.4114 68.4844 43.6407 68.4904 43.6836C68.4904 43.6836 68.3908 43.8776 67.5883 44.0534C66.7881 43.8451 65.9384 43.9313 65.1979 44.2956C65.202 44.206 65.2137 44.1169 65.2331 44.0293C65.8134 43.5772 66.5345 43.337 67.274 43.3497H67.277ZM65.2397 44.9371C66.5758 44.1827 67.9019 44.6484 67.9293 44.9594C67.9329 45.0006 67.8697 45.0823 67.7027 45.1575C67.3038 44.9385 66.8433 44.8537 66.391 44.9159C65.9274 45.0241 65.483 45.2005 65.0727 45.4391C65.0722 45.2585 65.1296 45.0824 65.2367 44.9359L65.2397 44.9371ZM74.2763 52.8617C72.9407 51.1379 73.7045 52.1339 70.0865 48.036C70.224 48.0131 70.3597 47.9805 70.4925 47.9384C70.53 47.9264 70.5648 47.9071 70.5947 47.8818C70.6246 47.8564 70.6491 47.8254 70.6668 47.7906C70.6845 47.7558 70.695 47.718 70.6977 47.6791C70.7004 47.6403 70.6953 47.6014 70.6826 47.5645C70.67 47.5277 70.65 47.4937 70.6239 47.4645C70.5978 47.4353 70.5661 47.4115 70.5306 47.3945C70.4951 47.3775 70.4566 47.3676 70.4172 47.3654C70.3778 47.3632 70.3383 47.3687 70.3011 47.3817C70.0356 47.454 69.7637 47.5008 69.4891 47.5216C68.1563 47.4701 66.8436 47.1834 65.6135 46.675C65.4932 46.6161 65.3911 46.5265 65.3177 46.4156C65.2443 46.3047 65.2023 46.1764 65.1961 46.0441C65.5954 45.8017 66.0279 45.6169 66.4804 45.4956C66.8206 45.4488 67.1666 45.5223 67.4571 45.7031C67.503 45.7413 67.5167 45.769 67.4946 45.8148C67.0346 46.0331 66.5256 46.1319 66.016 46.1017C65.9768 46.1014 65.938 46.1086 65.9017 46.123C65.8653 46.1374 65.8323 46.1587 65.8043 46.1858C65.7763 46.2128 65.7541 46.245 65.7387 46.2805C65.7234 46.316 65.7153 46.3542 65.7149 46.3928C65.7145 46.4314 65.7218 46.4697 65.7364 46.5055C65.751 46.5413 65.7727 46.5739 65.8001 46.6015C65.8275 46.6291 65.8601 46.651 65.8962 46.6662C65.9322 46.6813 65.9709 46.6893 66.01 46.6897C66.5693 46.6897 67.5274 46.6191 67.918 46.2281C67.9989 46.1508 68.0575 46.0536 68.0877 45.9466C68.1179 45.8395 68.1186 45.7265 68.0897 45.6191C68.2821 45.5183 68.4276 45.3481 68.4957 45.144C69.3709 45.1348 70.2193 45.4418 70.8807 46.0071C70.9388 46.0582 71.015 46.0848 71.0928 46.0813C71.1706 46.0778 71.2439 46.0443 71.297 45.9882C71.3502 45.932 71.3789 45.8576 71.3771 45.7808C71.3753 45.704 71.343 45.631 71.2873 45.5773C70.4876 44.8848 69.4497 44.5196 68.386 44.5567C68.3628 44.5233 68.3371 44.4916 68.3091 44.462C68.7104 44.3139 69.1075 44.0675 69.0806 43.6595C69.0467 43.1703 68.5267 42.8752 67.5334 42.7776C67.5524 42.7384 67.5624 42.6956 67.5625 42.6521C67.5627 42.6087 67.5532 42.5657 67.5345 42.5264C67.5159 42.487 67.4886 42.4522 67.4547 42.4245C67.4208 42.3968 67.3811 42.3768 67.3384 42.366C66.3589 42.1538 65.4093 41.8247 64.5105 41.386C64.2577 41.1878 64.2124 40.9744 64.2481 40.8792C64.2618 40.8398 64.2791 40.8368 64.3048 40.8368C64.6327 40.8075 66.4274 41.5206 67.5525 41.5641C68.5318 41.5988 69.4656 41.9806 70.1825 42.6394C70.9808 43.352 71.4048 44.5249 72.0571 45.5279C72.6825 46.4904 76.7322 50.2596 77.6229 50.5935C79.3222 51.232 80.6638 52.0398 81.2397 53.7548C81.2646 53.8289 81.3182 53.8902 81.3889 53.9252C81.4595 53.9603 81.5414 53.9662 81.6166 53.9418C81.6917 53.9173 81.7538 53.8644 81.7894 53.7947C81.8249 53.725 81.831 53.6442 81.8062 53.5702C81.4635 52.5906 80.8301 51.7352 79.9882 51.115C80.1295 50.48 80.6053 48.3564 81.1741 45.9548C81.4579 45.7884 82.307 45.3457 82.8168 45.6878C83.1286 47.2423 84.5954 49.3024 85.0044 49.8551C84.3101 51.5548 83.8053 53.3238 83.4989 55.1311L82.651 55.615C82.4387 55.743 82.2855 55.9477 82.2242 56.1855C82.1628 56.4233 82.1981 56.6754 82.3225 56.8879C82.5808 57.2681 82.868 57.6283 83.1817 57.9655C83.1387 58.1061 83.069 58.3383 82.9742 58.6516C79.5977 59.7234 76.2701 55.4369 74.2733 52.8606L74.2763 52.8617ZM112.193 59.6029C110.916 60.7788 109.489 61.2109 107.084 61.1456C103.83 61.015 100.59 60.6471 97.39 60.045C97.0352 59.9997 96.6747 60.0299 96.3327 60.1336C95.9908 60.2372 95.6753 60.4119 95.4075 60.6459C94.2795 61.5807 92.4383 63.4632 90.6299 63.458C90.157 63.4831 89.6846 63.4002 89.2496 63.2157C89.8575 63.2195 90.4558 63.0671 90.9858 62.7736C91.0185 62.7523 91.0466 62.7249 91.0686 62.6929C91.0905 62.6609 91.1059 62.625 91.1137 62.5872C91.1216 62.5493 91.1218 62.5104 91.1144 62.4724C91.107 62.4345 91.0921 62.3984 91.0705 62.3662C91.0489 62.3339 91.0211 62.3062 90.9887 62.2846C90.9563 62.2629 90.9198 62.2478 90.8814 62.24C90.8431 62.2323 90.8035 62.2321 90.7651 62.2394C90.7266 62.2467 90.69 62.2614 90.6573 62.2827C89.9156 62.7654 88.6343 62.5978 88.5281 62.616C88.3119 62.5872 88.1032 62.5184 87.9128 62.4132C88.7153 62.4407 89.5084 62.2363 90.1946 61.8253C90.2544 61.7767 90.2926 61.7071 90.3013 61.6313C90.3099 61.5554 90.2883 61.4792 90.241 61.4187C90.1936 61.3583 90.1243 61.3184 90.0477 61.3075C89.971 61.2966 89.8931 61.3155 89.8303 61.3602C89.0433 61.9599 87.285 61.8076 87.2224 61.8112C87.0255 61.7549 86.8441 61.6553 86.6921 61.5197C86.54 61.3841 86.4212 61.2162 86.3447 61.0286C87.3828 61.1132 88.4267 60.9628 89.3969 60.5889C89.4687 60.5562 89.5243 60.4967 89.5517 60.4236C89.579 60.3504 89.5758 60.2696 89.5426 60.1988C89.5095 60.128 89.4492 60.0731 89.375 60.0461C89.3008 60.0192 89.2188 60.0224 89.147 60.055C88.147 60.407 87.0788 60.5301 86.0233 60.4148C85.865 60.3214 85.7239 60.2021 85.606 60.0621C86.5802 59.9445 89.1166 59.5112 90.7932 58.1219C90.8513 58.0738 90.8885 58.0056 90.8974 57.9313C90.9063 57.8571 90.8861 57.7822 90.8409 57.7221L89.8953 56.461C90.8795 56.1524 91.9362 56.1499 92.9218 56.454C93.9784 56.7205 95.0607 56.8758 96.1505 56.9173C97.4842 56.8926 100.98 56.5104 102.419 56.347C103.291 56.2148 104.155 56.0312 105.005 55.7973C105.801 55.5624 106.615 55.3927 107.44 55.2899C107.456 55.2895 107.472 55.2878 107.487 55.2846C108.354 55.1285 109.247 55.2177 110.064 55.5421C110.103 55.5596 110.145 55.5687 110.187 55.5686C110.255 55.5685 110.321 55.5455 110.374 55.5035C110.427 55.4615 110.463 55.4029 110.478 55.3375C110.493 55.2721 110.484 55.2037 110.454 55.1437C110.424 55.0837 110.373 55.0357 110.312 55.0077C109.47 54.6706 108.555 54.5526 107.654 54.6649C107.293 53.2897 107.004 51.9252 106.766 50.5788C106.85 50.3789 107.353 49.5135 109.777 49.3935C111.917 49.2871 112.75 49.5782 112.989 49.6916C113.361 53.3856 113.649 58.2566 112.19 59.6017L112.193 59.6029Z" fill="black"/>
<path d="M89.7697 19.3784C89.7985 19.4053 89.8326 19.4263 89.8698 19.44C89.907 19.4538 89.9466 19.4601 89.9863 19.4586C90.026 19.457 90.0649 19.4477 90.1009 19.4311C90.1369 19.4145 90.1692 19.3909 90.1958 19.3618C90.2224 19.3328 90.2429 19.2987 90.256 19.2617C90.2691 19.2248 90.2745 19.1856 90.2721 19.1465C90.2696 19.1074 90.2592 19.0691 90.2415 19.0341C90.2238 18.999 90.1992 18.9677 90.1691 18.9421C89.0363 17.9362 87.334 19.0356 87.2619 19.0832C87.1975 19.127 87.1532 19.1939 87.1383 19.2696C87.1235 19.3453 87.1395 19.4237 87.1827 19.4879C87.2259 19.5521 87.293 19.597 87.3695 19.6129C87.446 19.6288 87.5257 19.6145 87.5916 19.573C87.6053 19.5642 88.9838 18.6799 89.7697 19.3784Z" fill="black"/>
<path d="M90.2704 20.6078C88.4024 19.8124 87.7662 20.1304 87.6553 20.2016C87.5889 20.2451 87.5422 20.3122 87.525 20.389C87.5077 20.4657 87.5213 20.546 87.5629 20.6131C87.5832 20.6455 87.6099 20.6735 87.6414 20.6954C87.6729 20.7174 87.7085 20.733 87.7462 20.7411C87.7839 20.7493 87.8229 20.7499 87.8608 20.743C87.8988 20.7361 87.9349 20.7217 87.9671 20.7007C87.9923 20.691 88.0185 20.6839 88.0452 20.6796C87.9856 21.0323 88.1573 21.4803 88.4745 21.4803C88.7917 21.4803 88.8984 21.0576 88.8323 20.7401C89.2444 20.8391 89.6465 20.9749 90.0337 21.1458C90.0696 21.1612 90.1083 21.1695 90.1475 21.1702C90.1867 21.1709 90.2256 21.164 90.2621 21.1499C90.2986 21.1357 90.3319 21.1147 90.3601 21.0878C90.3883 21.061 90.4109 21.0289 90.4266 20.9935C90.4423 20.9581 90.4507 20.9199 90.4514 20.8813C90.4521 20.8426 90.4451 20.8042 90.4307 20.7683C90.4164 20.7323 90.395 20.6994 90.3678 20.6716C90.3406 20.6438 90.3081 20.6215 90.2722 20.6061L90.2704 20.6078Z" fill="black"/>
<path d="M95.0118 50.5501C95.0462 50.5685 95.084 50.58 95.1229 50.5841C95.1619 50.5881 95.2012 50.5845 95.2388 50.5735C95.2763 50.5626 95.3113 50.5444 95.3417 50.5201C95.3721 50.4958 95.3974 50.4658 95.4161 50.4319C95.4347 50.398 95.4464 50.3607 95.4505 50.3223C95.4546 50.2839 95.451 50.2451 95.4399 50.2081C95.4287 50.1711 95.4103 50.1366 95.3857 50.1066C95.361 50.0766 95.3306 50.0517 95.2962 50.0333C93.5582 49.1026 92.5917 47.9708 92.4247 46.6697C92.1266 44.3662 94.4233 42.228 94.446 42.2068C94.4766 42.1811 94.5016 42.1495 94.5194 42.114C94.5373 42.0785 94.5478 42.0398 94.5501 42.0002C94.5524 41.9606 94.5466 41.921 94.533 41.8837C94.5194 41.8464 94.4982 41.8121 94.4709 41.7831C94.4435 41.7541 94.4105 41.7308 94.3737 41.7146C94.337 41.6985 94.2974 41.6899 94.2572 41.6892C94.217 41.6886 94.177 41.696 94.1398 41.711C94.1026 41.726 94.0688 41.7482 94.0405 41.7764C93.9362 41.8711 91.4994 44.137 91.8345 46.7409C92.0247 48.2407 93.0943 49.523 95.0118 50.5501Z" fill="black"/>
<path d="M88.568 73.7481C88.4184 72.2595 88.8065 63.8709 88.8065 63.7886C88.8101 63.7162 88.786 63.6451 88.7391 63.5893C88.7111 63.567 88.6837 63.544 88.6581 63.5205C88.6137 63.4952 88.5635 63.4816 88.5123 63.481C88.4611 63.4804 88.4106 63.4928 88.3657 63.517C88.3207 63.5412 88.2829 63.5764 88.2558 63.6193C88.2287 63.6621 88.2132 63.7111 88.2109 63.7616C88.1948 64.1084 87.8197 72.2753 87.9849 73.8622L89.1374 77.622C87.9145 79.9149 80.322 93.2179 79.4331 94.7759L80.1217 94.7677C81.4543 92.4325 87.6468 81.5746 89.3813 78.418L90.2268 81.1813C90.2802 81.0884 90.3545 81.0089 90.4441 80.9489C90.5336 80.8888 90.6359 80.8499 90.7431 80.835L88.568 73.7481Z" fill="#FF3535"/>
<path d="M84.6574 59.5809C84.5281 59.4427 84.3719 59.2757 84.2019 59.0923C83.6319 60.5392 82.4514 65.8005 81.7788 67.3333C81.5262 67.6837 81.1836 67.9615 80.7861 68.1381C80.7127 68.3904 80.6388 68.6461 80.5637 68.9024C80.9655 68.7261 82.0489 68.1969 82.3262 67.5655C82.9767 66.0833 84.0797 61.2788 84.6574 59.5809Z" fill="#FF3535"/>
<path d="M105.379 69.9511C105.347 69.7575 105.314 69.5647 105.281 69.3726C104.702 69.6272 102.061 69.8324 99.9022 69.4825C98.4438 69.2474 98.0891 68.8811 98.0038 68.7347C97.3897 67.6823 97.1095 62.712 97.0421 60.6072C96.8387 60.6117 96.6373 60.6486 96.4458 60.7165C96.4947 62.1323 96.7338 67.7423 97.4839 69.0281C98.259 70.3574 102.66 70.3421 104.29 70.1616C104.147 72.1106 103.081 86.3649 101.885 94.5506C101.88 94.5888 101.882 94.6278 101.891 94.6652C101.901 94.7026 101.918 94.7378 101.942 94.7687C101.965 94.7996 101.994 94.8257 102.028 94.8454C102.062 94.8652 102.099 94.8781 102.138 94.8837C102.177 94.8892 102.216 94.8871 102.254 94.8776C102.292 94.8681 102.328 94.8513 102.359 94.8282C102.39 94.805 102.417 94.776 102.437 94.7428C102.457 94.7096 102.47 94.6729 102.476 94.6347C103.706 86.2085 104.801 71.3839 104.894 70.0734C105.058 70.0435 105.22 70.0027 105.379 69.9511Z" fill="#FF3535"/>
<path fill-rule="evenodd" clip-rule="evenodd" d="M25.6691 83.0234L23.2699 95.7062L24.5494 95.6115L26.7573 82.6448L25.6691 83.0234Z" fill="white"/>
<path fill-rule="evenodd" clip-rule="evenodd" d="M16.6559 95.6919H15.7406L11.5568 82.6616C11.5568 82.6616 8.14933 86.639 5.54615 87.5079C2.94298 88.3769 3.46767 87.9489 3.62328 87.2727C3.7789 86.5966 6.37135 79.4874 9.79256 78.5773C13.2138 77.6672 16.6559 95.6919 16.6559 95.6919Z" fill="white"/>
<path fill-rule="evenodd" clip-rule="evenodd" d="M18.5153 95.6921H17.7509C17.7509 95.6921 19.7656 75.3315 22.1958 72.9651C24.6261 70.5987 31.5288 66.0276 32.0833 66.7654C32.6378 67.5033 27.6323 73.5313 22.9608 75.3245L18.5153 95.6921Z" fill="white"/>
<path fill-rule="evenodd" clip-rule="evenodd" d="M20.1869 78.2689L19.4422 72.6324C19.4422 72.6324 19.7963 71.7881 18.7267 64.569C17.4471 55.9452 9.21667 51.8245 9.21667 51.8245C9.21667 51.8245 10.7872 65.4756 18.1901 73.1327L19.4422 83.1275L20.1869 78.2689Z" fill="white"/>
<path fill-rule="evenodd" clip-rule="evenodd" d="M36.811 71.4636C34.274 73.0255 31.5465 74.2641 28.6938 75.1499C28.6938 75.1499 31.1598 68.8191 35.4569 65.201C39.754 61.5829 50.1655 56.6172 51.2817 57.7607C52.3978 58.9043 40.6794 69.0096 36.811 71.4636Z" fill="white"/>
<path fill-rule="evenodd" clip-rule="evenodd" d="M20.8682 95.6972H19.4431L22.3504 83.1437C22.3504 83.1437 22.0338 79.5862 28.695 75.1514C35.8033 70.4192 38.555 71.5222 40.9614 71.0818C43.3678 70.6414 44.4339 70.0876 43.2003 71.999C41.873 74.0567 40.265 76.7059 35.628 79.1029C31.6929 81.1365 23.7164 83.6752 23.7164 83.6752L20.8682 95.6972Z" fill="white"/>
<path fill-rule="evenodd" clip-rule="evenodd" d="M17.1746 95.6923L15.9326 82.8055C15.9326 82.8055 2.42069 75.3271 0.29808 60.3179C0.29808 60.3179 19.1344 65.6474 17.2503 82.6627L17.9467 92.7674L17.1746 95.6923Z" fill="white"/>
<path d="M35.2632 64.9796C31.1802 68.4178 28.7744 74.1512 28.4506 74.9602C22.1448 79.1851 22.0321 82.6421 22.0488 83.1189L19.2047 95.4066H18.8828L23.2216 75.5376C27.5515 73.7979 31.9219 68.7676 32.3756 67.2149C32.5295 66.6857 32.2826 66.4188 31.9291 66.3918C30.5154 66.2742 24.169 70.6248 21.9862 72.7537C21.3971 73.327 20.8372 74.8744 20.3245 76.911L19.7455 72.6467C19.826 72.2622 19.9339 70.6866 19.0199 64.5245C17.7326 55.8508 9.43358 51.6024 9.35011 51.5601C9.3022 51.536 9.24859 51.5252 9.19494 51.5287C9.14129 51.5323 9.08961 51.55 9.04537 51.5802C9.00113 51.6103 8.96597 51.6516 8.94363 51.6999C8.92128 51.7481 8.91258 51.8014 8.91844 51.8541C8.93453 51.9916 10.5754 65.6075 17.9043 73.2617L19.1183 82.9366C18.7009 85.4583 18.3432 88.0546 18.0707 90.2405L17.5466 82.6932C19.4361 65.6292 0.571099 60.0874 0.380302 60.0333C0.332551 60.0198 0.282134 60.0183 0.233634 60.0289C0.185133 60.0395 0.140087 60.0619 0.102588 60.094C0.0650889 60.1261 0.0363262 60.167 0.0189138 60.2129C0.0015013 60.2587 -0.00400894 60.3082 0.0028836 60.3567C1.16078 68.543 5.72677 74.5399 9.65121 78.3073C6.07378 79.3373 3.50996 86.4266 3.33407 87.205C3.25834 87.536 3.03953 87.8946 3.30485 88.1522C3.54335 88.3844 3.9154 88.3615 5.6433 87.7853C7.82732 87.0557 10.4859 84.2906 11.434 83.2471L15.3369 95.3995H11.5586C11.4795 95.3995 11.4037 95.4305 11.3478 95.4856C11.2919 95.5408 11.2605 95.6155 11.2605 95.6935C11.2598 95.7728 11.2906 95.8493 11.3463 95.9065C11.402 95.9637 11.4782 95.9972 11.5586 95.9998H29.249C29.2874 96.0011 29.3258 95.9949 29.3617 95.9813C29.3977 95.9678 29.4305 95.9473 29.4583 95.9211C29.4861 95.8948 29.5083 95.8633 29.5235 95.8285C29.5388 95.7936 29.5468 95.7561 29.5471 95.7182C29.5471 95.6402 29.5157 95.5655 29.4598 95.5103C29.4039 95.4552 29.328 95.4242 29.249 95.4242H24.8064L27.0065 82.8861C29.9967 81.8915 32.922 80.7165 35.7659 79.3679C38.9563 77.8471 41.5962 75.3969 43.3285 72.3486C43.5116 72.0506 44.2694 71.0887 43.9248 70.5978C43.5802 70.1069 42.721 70.462 40.909 70.793C40.113 70.9388 39.075 70.9106 38.0047 71.0099C42.2028 68.0033 51.4111 60.0745 51.6496 58.0685C51.9961 55.1335 39.4506 61.4526 35.2632 64.9796ZM18.404 72.9301C12.0189 66.3253 9.99703 55.0571 9.59159 52.3744C11.3916 53.4415 17.3725 57.4852 18.4302 64.6121C18.8136 67.199 19.0128 68.9563 19.1123 70.1445C17.4923 65.31 13.655 59.1991 13.4636 58.8963C13.421 58.8318 13.3545 58.7863 13.2784 58.7696C13.2022 58.7529 13.1225 58.7663 13.0562 58.8069C12.99 58.8476 12.9425 58.9122 12.924 58.9869C12.9055 59.0617 12.9175 59.1406 12.9574 59.2067C13.0122 59.2931 18.4207 67.908 19.1475 72.6767L19.9441 78.5454C19.7789 79.3097 19.6203 80.1117 19.4671 80.9389C18.4034 72.4574 18.5077 73.0377 18.404 72.9301ZM22.4053 73.1741C24.8827 70.7636 30.8159 66.982 31.8259 66.975C31.7198 67.9286 27.3672 73.3187 22.8555 75.0502C22.8095 75.0678 22.7686 75.0964 22.7365 75.1334C22.7045 75.1705 22.6823 75.2148 22.6719 75.2624L18.2728 95.4072H18.079C18.3784 92.4387 20.2684 75.2554 22.4053 73.1741ZM0.663516 60.7435C3.4879 61.6948 18.627 67.5288 16.9527 82.6832L17.6939 93.4217C17.447 95.6253 17.5067 95.4066 17.4464 95.4066L16.2295 82.7779C16.225 82.7306 16.2089 82.6851 16.1826 82.6452C16.1563 82.6054 16.1207 82.5725 16.0787 82.5492C14.5606 81.6402 13.126 80.6023 11.7911 79.4473C11.488 78.9736 11.0577 78.592 10.548 78.3449C6.66942 74.7527 1.95616 68.8699 0.663516 60.7435ZM16.7959 94.871C16.2993 92.434 14.6692 84.938 12.6533 80.9054C13.6082 81.6577 14.6092 82.3514 15.6506 82.9825L16.7959 94.871ZM11.8424 82.5757C11.8262 82.5256 11.7967 82.4808 11.757 82.4458C11.7173 82.4109 11.6689 82.387 11.6166 82.3767C11.5644 82.3665 11.5104 82.3702 11.4601 82.3875C11.4099 82.4048 11.3652 82.435 11.3308 82.4751C11.2974 82.5139 7.94836 86.3984 5.4525 87.232C4.91822 87.4297 4.36897 87.5856 3.80987 87.6983C4.66845 84.935 7.07606 79.6066 9.87063 78.8611C9.99216 78.8292 10.1202 78.8308 10.2409 78.8658C10.635 79.2286 11.0208 79.5678 11.3928 79.8841C13.7682 83.2394 15.8944 93.4094 16.2951 95.4054H15.9624L11.8424 82.5757ZM21.2397 95.4154L23.9687 83.9038C24.1959 83.8303 24.6532 83.681 25.2685 83.4752L23.0242 95.4101L21.2397 95.4154ZM24.2012 95.4154H23.63L25.9154 83.2565L26.362 83.1042L24.2012 95.4154ZM39.3254 71.5226C40.2648 71.5082 41.1991 71.3849 42.1092 71.1552C42.5364 71.0428 42.9742 70.9747 43.4156 70.9517C43.2687 71.3376 43.0701 71.7024 42.8253 72.0365C41.1236 74.9764 38.5698 77.3478 35.4916 78.8464C31.625 80.8454 23.7063 83.3735 23.6264 83.3982C23.5774 83.4137 23.5332 83.4416 23.4983 83.479C23.4634 83.5164 23.4389 83.5621 23.4273 83.6116L20.6297 95.4107H19.8159C22.8293 82.3905 22.6522 83.1906 22.6456 83.1189C22.6456 83.0848 22.4197 79.6836 28.8608 75.3959C34.3641 71.7325 37.2314 71.6096 39.3254 71.5226ZM36.6978 71.191C35.0243 71.5256 33.4107 72.104 31.91 72.9072C34.0326 70.4802 41.2596 63.6767 47.4885 60.5836C47.5592 60.5486 47.6129 60.4874 47.6377 60.4133C47.6626 60.3393 47.6567 60.2585 47.6212 60.1888C47.5857 60.1191 47.5235 60.0662 47.4485 60.0417C47.3734 60.0171 47.2915 60.023 47.2208 60.058C40.4517 63.4186 31.2231 72.1923 30.7336 73.5439C30.2936 73.7952 29.8339 74.0719 29.3545 74.3741C30.1988 72.5162 32.4084 68.1591 35.6502 65.4293C40.3867 61.4402 50.2682 57.1531 51.0564 57.9532C51.4106 59.1379 41.2095 68.3049 36.6978 71.1881V71.191Z" fill="black"/>
<path d="M23.6784 82.1002C23.701 82.1319 23.7298 82.1589 23.7631 82.1797C23.7964 82.2004 23.8335 82.2144 23.8723 82.2209C23.9111 82.2274 23.9508 82.2263 23.9892 82.2175C24.0275 82.2088 24.0637 82.1927 24.0958 82.1701C24.2007 82.0966 34.6999 74.7887 38.9701 73.41C39.0083 73.3988 39.0439 73.3802 39.0746 73.3553C39.1054 73.3303 39.1308 73.2995 39.1493 73.2647C39.1678 73.2299 39.1791 73.1918 39.1824 73.1527C39.1857 73.1135 39.181 73.0741 39.1686 73.0367C39.1562 72.9994 39.1364 72.9649 39.1102 72.9352C39.084 72.9056 39.0521 72.8814 39.0163 72.8641C38.9805 72.8469 38.9416 72.8369 38.9018 72.8347C38.862 72.8325 38.8222 72.8382 38.7847 72.8515C34.4321 74.2555 24.1852 81.3858 23.7511 81.6886C23.7188 81.7108 23.6912 81.7391 23.6701 81.7719C23.6489 81.8046 23.6345 81.8412 23.6277 81.8794C23.621 81.9177 23.622 81.9569 23.6306 81.9948C23.6393 82.0327 23.6556 82.0685 23.6784 82.1002Z" fill="black"/>
<path d="M16.3266 81.8834C16.3775 81.8834 16.4276 81.8706 16.4721 81.846C16.5166 81.8215 16.5539 81.7862 16.5806 81.7433C16.6073 81.7005 16.6224 81.6517 16.6244 81.6015C16.6265 81.5513 16.6155 81.5014 16.5925 81.4566C13.4962 75.4009 5.06542 65.7472 4.98076 65.6502C4.95515 65.6209 4.92396 65.597 4.88897 65.5796C4.85397 65.5623 4.81585 65.5519 4.77679 65.5491C4.73773 65.5463 4.69849 65.5511 4.66132 65.5633C4.62414 65.5754 4.58975 65.5946 4.56011 65.6199C4.53047 65.6451 4.50617 65.6759 4.48859 65.7104C4.47101 65.7449 4.46049 65.7825 4.45764 65.821C4.45479 65.8595 4.45966 65.8982 4.47197 65.9349C4.48429 65.9715 4.5038 66.0054 4.52941 66.0347C4.61347 66.1311 12.996 75.7267 16.0607 81.7218C16.0855 81.7703 16.1235 81.8112 16.1704 81.8397C16.2174 81.8682 16.2714 81.8834 16.3266 81.8834Z" fill="black"/>
</svg>
