<svg width="120" height="125" viewBox="0 0 120 125" fill="none" xmlns="http://www.w3.org/2000/svg">
<path d="M86.118 81.4151C84.7299 64.5409 69.5082 60.0148 64.5063 58.5272C64.4593 58.5133 64.4098 58.5101 64.3615 58.5178C64.3131 58.5255 64.2671 58.544 64.2268 58.5719C64.1866 58.5998 64.1531 58.6364 64.1289 58.6789C64.1046 58.7215 64.0902 58.7689 64.0868 58.8178L40.1203 57.1306C40.1235 57.0858 40.1174 57.0407 40.1023 56.9984C40.0873 56.956 40.0637 56.9172 40.033 56.8843C40.0023 56.8514 39.9651 56.8253 39.9239 56.8074C39.8826 56.7896 39.8381 56.7804 39.7931 56.7805H37.7774C34.9928 52.8597 28.7618 48.562 26.2815 49.6241C23.9909 50.6058 25.0563 58.272 25.3273 60.0004C18.4052 62.9755 15.2024 67.9918 13.0741 71.3223C12.8215 71.7182 12.5807 72.0945 12.349 72.4453C10.1782 75.7293 6.55649 76.0585 2.57681 76.692C-1.95456 77.4119 0.48259 89.0302 2.39684 90.9445C4.14879 92.6964 9.99625 94.6958 10.9701 95.0204C16.3719 105.55 23.4837 108.702 24.9209 109.247C24.5518 113.694 25.4058 119.563 29.8757 119.901C35.2382 120.294 38.0228 114.093 38.5759 112.698C45.3411 113.857 52.2671 113.688 58.9677 112.2C60.9546 116.316 64.7137 120.381 69.3563 119.9C75.6835 119.235 75.4604 109.211 75.3962 107.783C76.6227 106.597 87.3019 95.807 86.118 81.4151Z" fill="black"/>
<path d="M27.4805 76.6677C27.4023 76.6677 27.3267 76.6396 27.2674 76.5886C27.208 76.5375 27.169 76.4669 27.1572 76.3896C26.9478 75.0009 25.2083 62.7883 28.6625 61.7889C32.0617 60.7974 40.0269 71.6233 40.9235 72.8602C40.9744 72.9305 40.9954 73.0181 40.9817 73.1038C40.968 73.1896 40.9208 73.2663 40.8505 73.3173C40.8157 73.3425 40.7763 73.3606 40.7345 73.3706C40.6927 73.3806 40.6493 73.3823 40.6068 73.3755C40.5211 73.3618 40.4443 73.3146 40.3934 73.2443C38.0322 69.9871 31.3542 61.6953 28.8438 62.4178C26.3785 63.1305 27.2554 72.6743 27.8012 76.2921C27.8082 76.3384 27.8051 76.3856 27.7922 76.4306C27.7793 76.4756 27.7569 76.5174 27.7265 76.553C27.6961 76.5886 27.6584 76.6172 27.616 76.637C27.5735 76.6568 27.5274 76.6673 27.4805 76.6677Z" fill="white"/>
<path d="M14.5445 73.8476C12.6649 74.095 13.318 79.1172 15.2029 78.8744C17.1014 78.6238 16.4208 73.616 14.5445 73.8476Z" fill="white"/>
<path d="M3.72931 88.3784C3.65273 88.3785 3.57856 88.3516 3.51972 88.3026C3.46089 88.2536 3.42111 88.1854 3.40733 88.1101L2.18024 81.4093C2.17076 81.3663 2.17003 81.3219 2.1781 81.2787C2.18616 81.2355 2.20285 81.1943 2.22717 81.1577C2.2515 81.121 2.28295 81.0897 2.31966 81.0655C2.35637 81.0413 2.39758 81.0247 2.44083 81.0168C2.48408 81.0089 2.52848 81.0098 2.57139 81.0194C2.61429 81.029 2.65481 81.0472 2.69053 81.0728C2.72626 81.0985 2.75645 81.131 2.77931 81.1686C2.80216 81.2062 2.81721 81.2479 2.82356 81.2915L4.0513 87.9923C4.05994 88.0395 4.05809 88.088 4.04589 88.1344C4.0337 88.1808 4.01145 88.2239 3.98073 88.2608C3.95001 88.2976 3.91156 88.3273 3.86812 88.3476C3.82467 88.3679 3.77728 88.3784 3.72931 88.3784Z" fill="white"/>
<path fill-rule="evenodd" clip-rule="evenodd" d="M40.6614 63.5547C40.4008 62.7379 40.2324 61.8945 40.1595 61.0403C39.3977 61.0536 38.6385 61.1313 37.8898 61.2726C37.7404 61.3011 37.6054 61.3807 37.5083 61.4979C37.4112 61.6151 37.358 61.7624 37.3578 61.9146V62.9539C37.3578 63.0414 37.3753 63.1281 37.4094 63.2088C37.4434 63.2895 37.4933 63.3625 37.5561 63.4235C37.6189 63.4845 37.6933 63.5323 37.7749 63.5641C37.8565 63.5958 37.9437 63.6109 38.0312 63.6083C38.5967 63.592 39.4978 63.5704 40.6614 63.5547Z" fill="#00D7F9"/>
<path fill-rule="evenodd" clip-rule="evenodd" d="M64.7686 62.8806L65.0225 64.7268C65.7699 64.8269 66.5081 64.9356 67.2319 65.054C67.3415 65.0717 67.4537 65.0613 67.5582 65.0237C67.6626 64.9861 67.7557 64.9225 67.8288 64.839C67.9019 64.7555 67.9526 64.6548 67.976 64.5463C67.9995 64.4379 67.995 64.3252 67.9629 64.219L67.8929 63.9879C67.8601 63.8794 67.7997 63.7813 67.7175 63.7032C67.6354 63.625 67.5343 63.5696 67.4243 63.5423L64.7686 62.8806Z" fill="#00D7F9"/>
<path fill-rule="evenodd" clip-rule="evenodd" d="M97.1324 74.7399C97.1324 73.395 100.053 72.3027 103.642 72.3027C107.232 72.3027 110.149 73.395 110.149 74.7399V111.048C108.107 114.152 98.565 113.709 97.1324 111.048V74.7399Z" fill="#FFD997"/>
<path d="M110.47 74.6494C110.358 73.12 107.46 71.9773 103.642 71.9773C99.7474 71.9773 96.8102 73.1658 96.8102 74.7417C96.8102 112.629 96.7775 111.089 96.839 111.205C98.3933 114.093 108.249 114.528 110.419 111.229C110.478 111.142 110.478 74.6782 110.47 74.6494ZM109.82 108.434C109.65 109.403 107.165 110.439 103.652 110.439C100.011 110.439 97.4745 109.326 97.4745 108.329C97.4745 108.292 97.4681 108.255 97.4555 108.22V106.951C99.8115 109.021 107.419 109.034 109.82 106.975V108.434ZM109.828 77.3444C109.797 78.3372 107.269 79.4353 103.652 79.4353C100.011 79.4353 97.4745 78.3228 97.4745 77.3254C97.4746 77.2985 97.4713 77.2717 97.4647 77.2456V75.9629C99.8508 78.025 107.459 78.0204 109.828 75.955V77.3444ZM109.825 90.3122C109.713 91.2939 107.207 92.3534 103.652 92.3534C100.011 92.3534 97.4745 91.2409 97.4745 90.2442C97.4746 90.212 97.47 90.18 97.4607 90.1493V88.8757C99.8383 90.9385 107.448 90.9405 109.825 88.8757V90.3122ZM109.821 105.847C109.657 106.817 107.169 107.856 103.652 107.856C100.011 107.856 97.4745 106.743 97.4745 105.746C97.4744 105.709 97.4682 105.673 97.4561 105.639V104.368C99.8121 106.437 107.42 106.45 109.821 104.391V105.847ZM109.821 103.259C109.663 104.23 107.173 105.272 103.651 105.272C100.01 105.272 97.4738 104.16 97.4738 103.162C97.474 103.126 97.4682 103.091 97.4568 103.057V101.784C99.8128 103.853 107.421 103.866 109.821 101.806V103.259ZM109.821 100.671C109.669 101.644 107.177 102.688 103.65 102.688C100.01 102.688 97.4732 101.575 97.4732 100.579C97.4732 100.543 97.4677 100.508 97.4568 100.475V99.2015C99.8128 101.27 107.422 101.283 109.821 99.2218V100.671ZM109.821 98.0818C109.679 99.0563 107.184 100.105 103.65 100.105C100.009 100.105 97.4725 98.9921 97.4725 97.9947C97.4727 97.9605 97.4674 97.9265 97.4568 97.894V96.6184C99.8128 98.6858 107.423 98.6989 109.821 96.6374V98.0818ZM109.821 95.4922C109.69 96.4679 107.191 97.5209 103.649 97.5209C100.008 97.5209 97.4719 96.4084 97.4719 95.411C97.4719 95.3775 97.4669 95.3442 97.4568 95.3122V94.0354C99.8187 96.106 107.428 96.1113 109.821 94.053V95.4922ZM109.821 92.9019C109.698 93.8796 107.198 94.9372 103.648 94.9372C100.007 94.9372 97.4705 93.8246 97.4705 92.8273C97.4708 92.7942 97.4659 92.7613 97.4561 92.7297V91.4523C99.8187 93.5223 107.428 93.5282 109.821 91.4693V92.9019ZM109.821 87.5943C109.816 87.6158 109.813 87.6378 109.813 87.6598C109.813 88.6578 107.277 89.7697 103.637 89.7697C99.9967 89.7697 97.4594 88.6571 97.4594 87.6598C97.4608 87.6445 97.4608 87.6292 97.4594 87.6139V86.2861C99.8239 88.3554 107.433 88.3613 109.824 86.3005L109.821 87.5943ZM109.821 85.1323C109.728 86.114 107.218 87.1866 103.646 87.1866C100.005 87.1866 97.4686 86.074 97.4686 85.076C97.4688 85.0461 97.4646 85.0163 97.4561 84.9877V83.7056C99.8207 85.773 107.431 85.7802 109.821 83.7187V85.1323ZM109.821 82.5427C109.738 83.5243 107.224 84.6028 103.645 84.6028C100.005 84.6028 97.4679 83.4903 97.4679 82.4929C97.4681 82.4639 97.4641 82.4351 97.4561 82.4072V81.1199C99.8213 83.1866 107.431 83.1938 109.821 81.1317V82.5427ZM109.821 79.9465C109.758 80.934 107.239 82.0184 103.645 82.0184C100.004 82.0184 97.4673 80.9059 97.4673 79.9092C97.4672 79.8811 97.4637 79.8532 97.4568 79.8261V78.5355C99.8226 80.6016 107.432 80.6088 109.821 78.546V79.9465ZM103.635 72.6317C107.275 72.6317 109.812 73.7443 109.812 74.7417C109.812 75.739 107.275 76.8516 103.635 76.8516C101.882 76.8516 97.3194 76.2763 97.4594 74.6919C97.5537 73.7057 100.065 72.6317 103.642 72.6317H103.635ZM97.4476 110.963V109.533C99.8004 111.605 107.41 111.616 109.812 109.559V110.948C107.837 113.699 98.9116 113.342 97.4548 110.963H97.4476Z" fill="black"/>
<path fill-rule="evenodd" clip-rule="evenodd" d="M85.5399 101.83C85.5622 99.907 88.4686 98.3481 92.0444 98.3481C95.6341 98.3481 98.549 99.9188 98.549 101.852H98.5588V121.656C97.3454 125.07 88.3422 126.246 85.5399 121.656V101.83Z" fill="#FFD997"/>
<path d="M98.8745 101.768C98.794 99.6623 95.8234 98.0249 92.0447 98.0249C88.2142 98.0249 85.2129 99.7081 85.2129 101.856C85.2129 123.069 85.1861 121.707 85.2607 121.83C88.2011 126.648 97.5544 125.46 98.8673 121.769C98.8987 121.679 98.8941 101.834 98.8745 101.768ZM92.0447 98.6793C95.3928 98.6793 98.222 100.134 98.222 101.856C98.222 103.578 95.3928 105.032 92.0447 105.032C88.6965 105.032 85.8674 103.578 85.8674 101.856C85.8674 100.134 88.6978 98.6761 92.0447 98.6761V98.6793ZM98.2318 103.507C98.2318 103.507 98.222 104.62 98.222 104.65C98.222 105.952 96.6166 107.144 94.2299 107.618C93.5111 107.759 92.7803 107.829 92.0479 107.827C88.6991 107.827 85.8706 106.372 85.8706 104.65V103.516C88.3012 106.415 95.8208 106.402 98.2318 103.504V103.507ZM98.2318 106.3C98.2318 106.3 98.222 107.417 98.222 107.444C98.222 108.745 96.6166 109.938 94.2299 110.413C90.2607 111.198 85.87 109.641 85.87 107.444V106.314C88.3176 109.229 95.8411 109.167 98.2318 106.297V106.3ZM98.2318 109.094C98.2318 109.094 98.222 110.211 98.222 110.239C98.222 111.54 96.6166 112.732 94.2299 113.207C90.243 113.999 85.8706 112.422 85.8706 110.239V109.105C88.3169 112.022 95.8391 111.964 98.2318 109.091V109.094ZM98.2318 111.889C98.2318 111.889 98.222 113.006 98.222 113.033C98.222 114.334 96.6166 115.527 94.2299 116.001C90.243 116.793 85.8706 115.216 85.8706 113.033V111.899C88.3163 114.815 95.8385 114.759 98.2318 111.885V111.889ZM98.2318 114.683C98.2318 114.683 98.222 115.8 98.222 115.828C98.222 117.129 96.6166 118.321 94.2299 118.796C93.5111 118.936 92.7803 119.006 92.0479 119.004C88.6991 119.004 85.8706 117.55 85.8706 115.828V114.694C88.3176 117.611 95.8411 117.552 98.2318 114.68V114.683ZM98.2318 117.478C98.2318 117.478 98.222 118.594 98.222 118.622C98.222 119.923 96.6166 121.116 94.2299 121.59C90.2607 122.375 85.87 120.819 85.87 118.622V117.488C88.3176 120.406 95.8411 120.345 98.2318 117.475V117.478ZM85.8674 121.566V120.285C88.3392 123.23 95.8614 123.118 98.2318 120.271V121.598C97.044 124.681 88.5702 125.817 85.8674 121.563V121.566Z" fill="black"/>
<path fill-rule="evenodd" clip-rule="evenodd" d="M65.0224 64.7267C56.9267 63.9299 48.7962 63.5387 40.6614 63.5546C40.6614 63.5546 39.0357 59.2405 40.6614 47.8479C42.287 36.4553 45.5337 20.3396 45.5337 20.3396L70.5872 26.1327C70.5872 26.1327 61.8117 43.7923 65.0224 64.7267Z" fill="#00D7F9"/>
<path fill-rule="evenodd" clip-rule="evenodd" d="M47.5033 63.5291C46.3415 61.8517 44.5981 60.6657 42.6113 60.2012C42.4739 42.1562 46.8907 25.1459 46.8907 25.1459C51.3619 26.7741 52.3763 24.5261 52.3763 24.5261L56.4875 25.3946L64.2858 30.0804C64.7374 31.2548 65.5365 32.2634 66.5764 32.9717C66.5764 32.9717 60.6334 46.9808 62.4351 60.1999C60.7164 60.956 59.3304 62.3101 58.5346 64.0107L47.5033 63.5291Z" fill="white"/>
<path d="M65.0221 65.0541C64.9442 65.054 64.8688 65.026 64.8097 64.9753C64.7506 64.9245 64.7115 64.8543 64.6995 64.7773C61.7649 45.642 68.8925 29.0296 70.1189 26.3614L45.7893 20.7332C45.3187 23.0892 42.464 37.5334 40.9857 47.8926C39.3901 59.0745 40.9516 63.3971 40.968 63.4396C40.9986 63.5209 40.9957 63.6109 40.96 63.69C40.9242 63.7691 40.8584 63.8308 40.7772 63.8614C40.696 63.8921 40.6059 63.8892 40.5268 63.8534C40.4477 63.8176 40.3861 63.7519 40.3554 63.6707C40.29 63.4913 38.7193 59.1471 40.3378 47.8004C41.9457 36.5282 45.1806 20.4354 45.2134 20.2744C45.2788 19.9472 45.5857 20.0388 45.6852 20.0584C46.6852 20.2548 51.0517 21.3019 70.6608 25.8123C70.709 25.8234 70.7541 25.8452 70.7927 25.8762C70.8313 25.9072 70.8623 25.9466 70.8835 25.9913C70.9046 26.036 70.9154 26.085 70.9149 26.1345C70.9144 26.1839 70.9027 26.2327 70.8807 26.277C70.7936 26.453 62.189 44.0923 65.3461 64.6772C65.3532 64.7239 65.3502 64.7715 65.3372 64.8169C65.3242 64.8623 65.3016 64.9044 65.2708 64.9402C65.24 64.976 65.2019 65.0047 65.1589 65.0244C65.116 65.0441 65.0693 65.0542 65.0221 65.0541Z" fill="black"/>
<path d="M59.8583 30.6837L59.266 30.6975C59.2708 30.2793 59.1376 29.8711 58.8872 29.5361C58.6368 29.2012 58.283 28.9579 57.8806 28.8441C56.3008 28.477 55.5154 29.2368 55.147 30.795L52.4179 30.8604C52.5613 29.3801 53.6221 29.3225 53.7523 29.3212C53.8391 29.3212 53.9224 29.2867 53.9837 29.2254C54.0451 29.164 54.0796 29.0808 54.0796 28.994C54.0796 28.9072 54.0451 28.824 53.9837 28.7626C53.9224 28.7012 53.8391 28.6667 53.7523 28.6667C53.7235 28.6667 51.9238 28.689 51.7582 30.8762L51.0141 30.8938C50.9274 30.8949 50.8445 30.9303 50.7839 30.9924C50.7233 31.0545 50.6898 31.1382 50.6909 31.225C50.6919 31.3118 50.7274 31.3946 50.7895 31.4552C50.8516 31.5158 50.9352 31.5493 51.022 31.5483L51.7713 31.5306C52.0822 33.6903 55.2 33.952 55.5514 32.1314C55.5514 32.1314 55.66 31.5424 55.6823 31.4383L58.6005 31.3696C58.5869 31.6861 58.4915 31.9937 58.3235 32.2623C58.1556 32.5309 57.9209 32.7514 57.6424 32.9023C57.5689 32.927 57.5065 32.9769 57.4664 33.0433C57.4263 33.1096 57.4111 33.1881 57.4234 33.2646C57.4358 33.3411 57.4749 33.4108 57.5338 33.4612C57.5927 33.5116 57.6676 33.5394 57.7451 33.5397C58.2032 33.5397 59.1044 32.7871 59.2601 31.3539L59.8747 31.3395C59.9176 31.3385 59.96 31.329 59.9993 31.3116C60.0386 31.2942 60.0741 31.2693 60.1038 31.2381C60.1334 31.207 60.1567 31.1704 60.1722 31.1303C60.1877 31.0902 60.1951 31.0474 60.194 31.0044C60.1869 30.9192 60.1488 30.8395 60.087 30.7804C60.0251 30.7214 59.9438 30.687 59.8583 30.6837ZM54.9101 32.0044C54.7137 33.0306 52.7118 32.9141 52.4349 31.5123L55.0121 31.4514C55.0082 31.475 54.9938 31.562 54.9101 32.0044ZM57.732 29.4809C57.9873 29.5706 58.2087 29.737 58.3658 29.9574C58.5229 30.1777 58.6081 30.4413 58.6096 30.7119L55.8243 30.7773C56.1162 29.6667 56.5939 29.2165 57.732 29.4822V29.4809Z" fill="black"/>
<path fill-rule="evenodd" clip-rule="evenodd" d="M118.828 22.7454C118.828 22.7454 106.836 17.9196 99.8914 21.7055C92.9465 25.4915 91.9988 28.2029 82.7659 28.0536C73.533 27.9044 72.0474 28.1086 69.323 29.072C66.5985 30.0353 63.2366 30.1073 59.6267 30.6348C56.0168 31.1623 54.6968 32.7545 53.238 30.6348C51.7793 28.515 54.3735 24.2075 58.0482 23.235L55.2635 22.591C55.2635 22.591 63.3407 9.13953 67.3165 4.41837C67.3165 4.41837 68.8989 0.0636944 75.5559 0.345106C82.2129 0.626517 105.766 2.60687 117.491 0.345106L118.828 22.7454Z" fill="#FFD997"/>
<path d="M47.2301 63.7098C46.078 62.1445 44.4265 61.019 42.5482 60.5193C42.4777 60.5019 42.415 60.4615 42.37 60.4045C42.325 60.3475 42.3002 60.2772 42.2995 60.2046C42.4304 48.407 43.8531 36.6592 46.5423 25.1715C46.5532 25.1267 46.5734 25.0848 46.6017 25.0484C46.6299 25.012 46.6656 24.9819 46.7062 24.9602C46.7469 24.9386 46.7916 24.9257 46.8376 24.9225C46.8836 24.9193 46.9297 24.9259 46.9729 24.9418C47.0128 24.9562 50.9245 26.3573 52.022 24.3423C52.0567 24.2806 52.1102 24.2316 52.1747 24.2023C52.2392 24.173 52.3113 24.1649 52.3806 24.1793L54.8714 24.7356C54.9562 24.7544 55.03 24.8062 55.0767 24.8795C55.1233 24.9527 55.1389 25.0415 55.1201 25.1263C55.1013 25.2111 55.0495 25.2849 54.9763 25.3316C54.903 25.3782 54.8142 25.3938 54.7294 25.375L52.467 24.8711C51.2118 26.7284 48.1372 25.9895 47.0946 25.6721C44.4924 36.9169 43.1036 48.4083 42.952 59.9493C44.8946 60.5131 46.5924 61.7112 47.7746 63.3524C47.8123 63.4244 47.8219 63.5078 47.8015 63.5864C47.7811 63.665 47.7322 63.7332 47.6643 63.7778C47.5964 63.8223 47.5143 63.8401 47.4341 63.8275C47.3538 63.8149 47.2811 63.773 47.2301 63.7098Z" fill="black"/>
<path d="M58.2375 63.8819C59.0235 62.1773 60.3841 60.8035 62.081 60.0011C60.5156 47.8559 65.4187 34.983 66.1811 33.0838C65.1772 32.3504 64.4096 31.3395 63.973 30.1754C63.9504 30.0931 63.9609 30.0052 64.0021 29.9305C64.0434 29.8558 64.1122 29.8001 64.194 29.7754C64.2757 29.7508 64.3638 29.759 64.4395 29.7984C64.5153 29.8378 64.5726 29.9052 64.5993 29.9863C65.0355 31.0907 65.7931 32.0389 66.7741 32.7081C66.834 32.7515 66.8775 32.814 66.8973 32.8853C66.9172 32.9567 66.9122 33.0326 66.8834 33.1008C66.8245 33.2402 60.9934 47.1825 62.7649 60.1575C62.7749 60.2301 62.7602 60.3039 62.7231 60.3672C62.6861 60.4304 62.6289 60.4794 62.5607 60.5063C60.9257 61.2346 59.606 62.5249 58.8409 64.1431C58.8063 64.2231 58.7413 64.286 58.6602 64.3181C58.5791 64.3502 58.4886 64.3488 58.4086 64.3142C58.3286 64.2796 58.2656 64.2146 58.2335 64.1335C58.2014 64.0524 58.2029 63.9619 58.2375 63.8819Z" fill="black"/>
<path d="M53.0257 48.1786C53.9312 48.2912 54.8433 48.2792 55.7098 48.1432C56.5762 48.0072 57.3802 47.75 58.0756 47.3862C58.7711 47.0223 59.3445 46.5591 59.7631 46.0228C60.1816 45.4865 60.4372 44.8877 60.5152 44.2606C60.5931 43.6335 60.492 42.9903 60.2175 42.3679C59.9429 41.7454 59.5004 41.1558 58.9152 40.6328C58.33 40.1097 57.6136 39.6635 56.8068 39.3195C56 38.9755 55.1186 38.7405 54.2131 38.6279C52.3842 38.4005 50.5677 38.6856 49.1631 39.4203C47.7586 40.1551 46.881 41.2794 46.7236 42.5459C46.5661 43.8124 47.1416 45.1174 48.3235 46.1737C49.5054 47.2301 51.1968 47.9512 53.0257 48.1786Z" fill="#FFD997"/>
<path d="M54.2673 48.5829C47.1254 48.5829 43.5855 41.9691 49.0115 39.1308C50.6365 38.336 52.4628 38.0478 54.2536 38.3036C60.7116 39.1072 63.2018 45.0738 58.2274 47.6765C56.9989 48.2912 55.6409 48.602 54.2673 48.5829ZM52.9689 38.8762C50.3649 38.8762 47.3577 40.102 47.0482 42.5849C46.558 46.5267 53.4355 49.4403 57.9237 47.0947C62.7856 44.5542 59.3399 38.8762 52.9689 38.8762Z" fill="black"/>
<path d="M57.4239 57.6743L56.8349 57.688C56.8394 57.2697 56.7062 56.8616 56.4556 56.5266C56.2051 56.1916 55.8513 55.9484 55.4488 55.8346C53.8657 55.4675 53.0836 56.2305 52.7151 57.7855L49.9868 57.851C50.1294 56.3699 51.1909 56.3124 51.3205 56.311C51.4073 56.311 51.4905 56.2766 51.5519 56.2152C51.6133 56.1538 51.6477 56.0706 51.6477 55.9838C51.6477 55.897 51.6133 55.8138 51.5519 55.7524C51.4905 55.6911 51.4073 55.6566 51.3205 55.6566C51.3205 55.6468 49.4927 55.6566 49.3264 57.8667L48.5823 57.8837C48.4955 57.8847 48.4127 57.9202 48.3521 57.9823C48.2915 58.0444 48.258 58.128 48.259 58.2148C48.2601 58.3016 48.2955 58.3844 48.3576 58.4451C48.4197 58.5057 48.5034 58.5392 48.5902 58.5381L49.3395 58.5211C49.6504 60.6808 52.7682 60.9386 53.1189 59.1212C53.1189 59.1212 53.2276 58.5322 53.2498 58.4288L56.1686 58.3601C56.1549 58.6765 56.0595 58.9839 55.8916 59.2524C55.7237 59.521 55.489 59.7414 55.2105 59.8922C55.1371 59.9168 55.0747 59.9668 55.0346 60.0331C54.9945 60.0995 54.9793 60.1779 54.9916 60.2545C55.004 60.331 55.0431 60.4007 55.102 60.451C55.1609 60.5014 55.2358 60.5293 55.3133 60.5296C55.7714 60.5296 56.6726 59.7731 56.8283 58.3444L57.4428 58.33C57.4858 58.329 57.5282 58.3195 57.5675 58.3021C57.6068 58.2847 57.6423 58.2598 57.672 58.2286C57.7016 58.1975 57.7249 58.1609 57.7403 58.1208C57.7558 58.0807 57.7633 58.0379 57.7622 57.9949C57.7566 57.9087 57.7186 57.8277 57.6559 57.7683C57.5932 57.7088 57.5103 57.6752 57.4239 57.6743ZM52.4763 58.9962C52.2799 60.027 50.278 59.902 50.0012 58.5041L52.5784 58.4432C52.5371 58.6677 52.5607 58.5479 52.4763 58.9962ZM55.2982 56.4727C55.5536 56.5624 55.7749 56.7288 55.932 56.9492C56.0891 57.1696 56.1743 57.4331 56.1758 57.7037L53.3905 57.7691C53.685 56.6487 54.1647 56.2103 55.2982 56.4727Z" fill="black"/>
<path d="M118.95 22.4417C118.455 22.2415 106.735 17.6041 99.7346 21.4182C92.6901 25.2637 91.9048 27.8815 82.7714 27.7283C73.4782 27.5798 72.0051 27.7768 69.2139 28.765C67.0333 29.5359 64.3808 29.7316 61.5163 30.0627C61.5006 29.9973 61.4018 29.7394 60.1636 26.2598C60.1419 26.1992 60.103 26.1464 60.0515 26.1079C60.0001 26.0694 59.9385 26.0468 59.8743 26.0431C59.8265 26.0353 55.2447 25.8239 54.5432 30.0869C54.5343 30.1301 54.5343 30.1746 54.543 30.2178C54.5518 30.261 54.5692 30.3019 54.5942 30.3382C54.6192 30.3745 54.6512 30.4054 54.6884 30.429C54.7256 30.4526 54.7672 30.4685 54.8107 30.4756C54.8542 30.4827 54.8986 30.481 54.9414 30.4706C54.9842 30.4601 55.0245 30.4411 55.0597 30.4147C55.095 30.3883 55.1246 30.3551 55.1467 30.317C55.1689 30.2789 55.183 30.2367 55.1885 30.193C55.7205 26.9652 58.7742 26.7028 59.623 26.693L60.852 30.1419C59.4424 30.2753 58.0512 30.5605 56.7029 30.9927C55.0982 31.4757 54.3665 31.6949 53.5078 30.4475C52.2566 28.6301 54.5504 24.5674 58.1322 23.5451C62.0942 22.4155 69.4717 20.089 73.6425 19.8377C73.7293 19.8325 73.8104 19.793 73.8681 19.728C73.9258 19.6629 73.9553 19.5776 73.9501 19.4908C73.9449 19.404 73.9054 19.3229 73.8404 19.2652C73.7753 19.2075 73.69 19.178 73.6032 19.1832C73.3938 19.1957 73.1752 19.214 72.9488 19.2363L72.6772 17.714C72.6065 16.2346 72.7095 14.752 72.9841 13.2965C72.9963 13.2537 72.9995 13.2089 72.9938 13.1649C72.988 13.1208 72.9733 13.0783 72.9506 13.0401C72.9279 13.0019 72.8976 12.9687 72.8617 12.9425C72.8257 12.9164 72.7848 12.8979 72.7414 12.8881C72.698 12.8783 72.6531 12.8774 72.6094 12.8856C72.5657 12.8937 72.5241 12.9107 72.4872 12.9354C72.4502 12.9602 72.4187 12.9922 72.3946 13.0295C72.3704 13.0668 72.3541 13.1087 72.3467 13.1525C72.0836 14.5033 71.9706 15.879 72.0097 17.2546C70.4796 18.1813 68.8225 19.428 68.2139 19.8946C66.8954 19.4473 65.7869 18.5317 65.0987 17.3213C65.0576 17.2499 64.9911 17.1966 64.9124 17.1721C64.8337 17.1476 64.7487 17.1537 64.6743 17.1891C64.5999 17.2246 64.5416 17.2868 64.5111 17.3634C64.4806 17.4399 64.4801 17.5252 64.5097 17.6021C65.1511 18.7798 66.1607 19.7149 67.384 20.2644C63.0994 21.2794 58.7454 22.6642 58.0346 22.8933L55.7775 22.3697C65.3906 6.4988 67.4554 4.97852 67.6229 4.52695C67.6851 4.35876 69.2302 0.386936 75.5417 0.66573C82.467 0.957612 105.777 2.93142 117.557 0.65984C117.642 0.643351 117.718 0.593648 117.766 0.521666C117.815 0.449683 117.833 0.361317 117.817 0.276008C117.8 0.190699 117.75 0.115434 117.678 0.0667703C117.606 0.018107 117.518 3.14587e-05 117.433 0.0165206C105.914 2.24163 83.3191 0.343743 75.5731 0.0112851C69.1654 -0.237404 67.2676 3.70104 67.0365 4.23965C63.0785 8.96147 55.0667 22.2814 54.9862 22.4155C54.9596 22.4598 54.9438 22.5097 54.9402 22.5613C54.9365 22.6128 54.9451 22.6644 54.9653 22.712C55.055 22.9227 55.0713 22.875 56.9011 23.301C55.0423 24.161 53.5804 25.6962 52.8122 27.5948C52.5761 28.1054 52.4673 28.6655 52.4951 29.2273C52.5229 29.7892 52.6865 30.3358 52.9719 30.8206C54.0668 32.4115 55.1623 32.1426 56.8946 31.6216C61.1099 30.3526 65.7486 30.6838 69.4357 29.3815C72.136 28.426 73.5797 28.2316 82.7648 28.3815C92.0854 28.5431 93.16 25.7467 100.051 21.9921C106.782 18.324 118.592 23.0006 118.71 23.0477C118.788 23.0715 118.873 23.0649 118.946 23.0293C119.02 22.9937 119.078 22.9316 119.108 22.8554C119.139 22.7792 119.139 22.6944 119.11 22.6178C119.081 22.5412 119.024 22.4783 118.95 22.4417Z" fill="black"/>
<path d="M74.6927 45.0011C74.6297 45.001 74.5681 44.9827 74.5152 44.9484C74.4623 44.9141 74.4205 44.8652 74.3947 44.8077C74.3689 44.7502 74.3603 44.6865 74.3699 44.6242C74.3794 44.5619 74.4068 44.5037 74.4486 44.4566L82.3249 35.6085C82.3838 35.5487 82.4634 35.5139 82.5472 35.5112C82.6311 35.5084 82.7128 35.538 82.7755 35.5938C82.8381 35.6496 82.877 35.7273 82.884 35.8109C82.891 35.8945 82.8656 35.9776 82.8131 36.043C74.2844 45.6228 74.9139 45.0011 74.6927 45.0011Z" fill="black"/>
<path d="M89.573 57.3753C89.4977 57.3753 90.4061 57.6267 76.8768 53.6777C76.7957 53.6514 76.7282 53.5945 76.6885 53.5192C76.6487 53.4438 76.6399 53.3559 76.664 53.2742C76.688 53.1925 76.7429 53.1234 76.8171 53.0815C76.8913 53.0397 76.9789 53.0284 77.0613 53.0501L89.6646 56.7346C89.7397 56.7571 89.8042 56.8058 89.8465 56.8718C89.8887 56.9379 89.9058 57.0169 89.8947 57.0945C89.8836 57.172 89.845 57.2431 89.786 57.2946C89.727 57.3462 89.6514 57.3748 89.573 57.3753Z" fill="black"/>
<path d="M81.2784 47.9207C81.1973 47.9207 81.119 47.8907 81.0588 47.8363C80.9986 47.7819 80.9607 47.7071 80.9526 47.6263C80.9444 47.5456 80.9665 47.4647 81.0147 47.3994C81.0628 47.334 81.1335 47.2889 81.213 47.2728L94.4557 44.4508C94.5406 44.4338 94.6287 44.4506 94.7013 44.4977C94.7739 44.5448 94.8253 44.6184 94.8444 44.7028C94.8625 44.7876 94.8461 44.8762 94.7988 44.949C94.7516 45.0218 94.6773 45.0728 94.5925 45.0908C80.7824 48.0385 81.3439 47.9207 81.2784 47.9207Z" fill="black"/>
<path d="M20.1773 34.8252C19.8344 32.6479 19.0314 31.1492 17.7225 30.2441C16 29.0524 13.7552 29.1316 11.4261 29.5242L7.74612 21.0178C12.9692 19.2508 14.5785 23.0119 14.6459 23.1774C14.7105 23.3386 14.8364 23.4675 14.9961 23.5358C15.1557 23.6041 15.3359 23.6062 15.497 23.5416C15.6582 23.4771 15.7871 23.3511 15.8554 23.1915C15.9237 23.0319 15.9258 22.8517 15.8612 22.6905C15.8396 22.6382 13.7271 17.5472 7.22256 19.811L6.1604 17.3548C6.12678 17.2753 6.07774 17.2031 6.01611 17.1426C5.95448 17.0821 5.88148 17.0343 5.80131 17.0022C5.72114 16.97 5.6354 16.954 5.54903 16.9551C5.46265 16.9563 5.37735 16.9745 5.29805 17.0087C5.21875 17.043 5.14701 17.0926 5.08698 17.1547C5.02694 17.2168 4.9798 17.2902 4.94827 17.3706C4.91673 17.451 4.90143 17.5369 4.90324 17.6233C4.90506 17.7096 4.92395 17.7948 4.95884 17.8738L6.01707 20.3208C0.0616269 23.4392 2.83255 32.5432 8.17085 31.4961C8.56352 31.4195 10.2075 31.0779 10.6316 30.9954L14.5543 40.0693C12.2304 40.7748 9.48563 40.6282 8.17543 39.0876C8.06261 38.9553 7.90184 38.8732 7.72848 38.8594C7.55512 38.8456 7.38338 38.9012 7.25103 39.014C7.11868 39.1268 7.03657 39.2876 7.02277 39.461C7.00896 39.6343 7.06459 39.8061 7.17741 39.9384C8.97255 42.051 12.4182 42.1275 15.0766 41.2826L15.9731 43.3572C16.0068 43.4368 16.0558 43.5089 16.1174 43.5695C16.1791 43.63 16.2521 43.6777 16.3322 43.7099C16.4124 43.7421 16.4981 43.758 16.5845 43.7569C16.6709 43.7558 16.7562 43.7376 16.8355 43.7033C16.9148 43.6691 16.9865 43.6195 17.0466 43.5574C17.1066 43.4952 17.1537 43.4219 17.1853 43.3414C17.2168 43.261 17.2321 43.1752 17.2303 43.0888C17.2285 43.0024 17.2096 42.9173 17.1747 42.8383L16.2964 40.8095C19.1092 39.4888 20.5575 37.2585 20.1773 34.8252ZM7.92216 30.2127C4.17219 30.9326 1.95297 24.0282 6.54063 21.5282L10.1028 29.767C9.33773 29.9202 8.65318 30.07 7.92216 30.2127ZM15.7794 39.6014L11.9588 30.7611C15.9692 30.1492 18.2414 30.9575 18.8808 35.0268C19.1668 36.8429 18.0085 38.549 15.7794 39.6014Z" fill="black"/>
<path d="M32.3658 23.4831C31.9077 20.5774 30.0844 19.8836 27.288 20.3241L25.2592 15.6252C28.0079 14.7528 28.8737 16.6127 28.9686 16.8411C29.017 16.962 29.1113 17.0588 29.231 17.1101C29.3507 17.1614 29.4858 17.163 29.6067 17.1147C29.7276 17.0663 29.8243 16.972 29.8756 16.8523C29.9269 16.7326 29.9286 16.5975 29.8803 16.4766C29.8678 16.4452 28.6309 13.4701 24.8679 14.7201L24.2985 13.4033C24.2729 13.3442 24.236 13.2906 24.1897 13.2457C24.1434 13.2008 24.0888 13.1655 24.0289 13.1417C23.9689 13.118 23.9049 13.1063 23.8405 13.1072C23.776 13.1082 23.7124 13.1219 23.6532 13.1474C23.594 13.173 23.5405 13.21 23.4956 13.2562C23.4507 13.3025 23.4154 13.3572 23.3916 13.4171C23.3679 13.477 23.3561 13.541 23.3571 13.6055C23.3581 13.6699 23.3718 13.7336 23.3973 13.7927L23.9641 15.1049C20.561 16.9956 22.1827 22.3241 25.3724 21.6984C25.5976 21.6546 26.485 21.47 26.6977 21.4281L28.8678 26.4471C27.5969 26.8018 26.1408 26.7056 25.4398 25.8797C25.3981 25.8305 25.3471 25.79 25.2898 25.7606C25.2324 25.7311 25.1698 25.7133 25.1055 25.708C25.0413 25.7028 24.9766 25.7102 24.9152 25.73C24.8538 25.7497 24.7969 25.7813 24.7478 25.8231C24.6986 25.8648 24.6582 25.9158 24.6287 25.9731C24.5993 26.0305 24.5814 26.0931 24.5761 26.1574C24.5709 26.2216 24.5783 26.2863 24.5981 26.3477C24.6178 26.4091 24.6494 26.466 24.6912 26.5151C25.7337 27.7416 27.7016 27.8194 29.2598 27.3535L29.735 28.4542C29.787 28.5738 29.8844 28.6677 30.0058 28.7154C30.1271 28.763 30.2624 28.7606 30.3819 28.7085C30.5014 28.6564 30.5953 28.559 30.643 28.4377C30.6907 28.3164 30.6882 28.1811 30.6361 28.0616L30.178 26.9942C31.7723 26.2121 32.5903 24.9078 32.3658 23.4831ZM25.1813 20.7344C23.1899 21.1271 21.9693 17.4393 24.3541 16.0119L26.2972 20.506C25.9699 20.5734 25.5334 20.6657 25.1813 20.7351V20.7344ZM29.7821 26.093L27.6879 21.2547C29.8816 20.9471 31.0484 21.4438 31.394 23.6349C31.6093 24.9863 30.3698 25.7926 29.7821 26.0937V26.093Z" fill="black"/>
</svg>
