<svg width="103" height="98" viewBox="0 0 103 98" fill="none" xmlns="http://www.w3.org/2000/svg">
<path d="M41.7675 58.5814C38.9794 40.7725 36.3094 22.9475 33.3385 5.17083C33.0269 3.32279 31.7806 1.84543 29.7015 2.59217L8.01391 11.1501C4.66703 12.5737 4.39841 14.1371 4.66702 16.4578L12.9993 73.3227C13.5365 76.4493 15.2557 77.0833 17.6946 75.7832L39.7207 63.4271C41.7675 62.3956 42.0737 60.7195 41.7675 58.5814ZM27.4291 67.8592L26.5319 64.8346L31.0661 62.632L31.7376 65.7855L27.4291 67.8592ZM15.9326 68.3642L7.55728 15.0181L31.1628 5.78326L39.1137 57.0019L15.9326 68.3642Z" fill="#FF3535"/>
<path d="M95.9409 11.1501L74.248 2.59217C72.1689 1.84543 70.9226 3.32279 70.611 5.17083C67.6401 22.9475 64.9701 40.7725 62.2088 58.5814C61.8757 60.7302 62.1658 62.3956 64.2341 63.4164L86.2602 75.7724C88.7046 77.0779 90.4183 76.4386 90.9555 73.312L99.2825 16.4578C99.5511 14.137 99.2825 12.5737 95.9409 11.1501ZM76.515 67.8592L72.2172 65.7855L72.8888 62.632L77.4229 64.8346L76.515 67.8592ZM88.0116 68.3642L64.8358 57.0288L72.7867 5.81549L96.3922 15.0503L88.0116 68.3642Z" fill="#00D7F9"/>
<path d="M67.017 81.6822C67.017 81.0267 67.6133 80.6077 68.5373 80.6399C73.7485 80.7527 77.0256 80.6775 81.533 80.8709C82.8385 80.93 83.1447 81.6392 83.2038 82.7566C83.4993 87.1136 83.4294 91.2395 83.6658 95.3332C83.7303 96.4077 83.2575 97.1383 81.8231 97.1598C77.3318 97.2243 73.9526 97.004 68.994 97.0201C67.667 97.0201 67.2158 96.456 67.1298 94.8712C67.2211 90.4498 67.017 86.0713 67.017 81.6822Z" fill="#00D7F9"/>
<path d="M38.9849 84.5611C39.1514 88.2626 39.146 91.8084 39.3502 95.3057C39.4093 96.3802 38.9419 97.1108 37.5021 97.1323C33.0162 97.2022 29.6317 96.9765 24.6784 96.998C23.3514 96.998 22.9001 96.4286 22.8142 94.8491C22.9162 90.4438 22.7175 86.0654 22.696 81.6762C22.696 81.0207 23.2923 80.6017 24.2164 80.6393C28.5787 80.7306 31.5818 80.6984 35.0846 80.7897C35.0643 81.3015 35.1523 81.8118 35.3429 82.2872C35.5335 82.7626 35.8224 83.1924 36.1906 83.5484C36.5588 83.9045 36.998 84.1787 37.4795 84.3532C37.9611 84.5277 38.4741 84.5986 38.9849 84.5611Z" fill="#FF3535"/>
<path d="M26.5641 92.8026L30.3247 84.6636C30.3809 84.5491 30.4681 84.4526 30.5763 84.3852C30.6846 84.3177 30.8096 84.282 30.9371 84.282C31.0647 84.282 31.1897 84.3177 31.2979 84.3852C31.4062 84.4526 31.4934 84.5491 31.5496 84.6636L35.3102 93.2055C35.4064 93.4178 35.4143 93.6597 35.3322 93.8778C35.2501 94.0959 35.0847 94.2725 34.8724 94.3687C34.6601 94.4648 34.4183 94.4727 34.2001 94.3906C33.982 94.3085 33.8054 94.1431 33.7093 93.9308L32.6993 91.8302H29.0085L28.1274 93.5601C28.0186 93.7529 27.8404 93.8969 27.6291 93.9629C27.4178 94.0289 27.1893 94.0119 26.9901 93.9154C26.7909 93.8189 26.6359 93.6501 26.5568 93.4434C26.4776 93.2366 26.4802 93.0075 26.5641 92.8026ZM31.974 90.2669L30.7921 87.3981L29.5726 90.2669H31.974Z" fill="black"/>
<path d="M77.6595 88.3438C78.5782 86.99 78.3848 86.0981 78.3096 85.8403C77.8368 84.1802 74.9948 82.9876 71.2987 83.7289L71.5028 94.3124C72.9534 94.5005 76.4346 94.7368 77.7616 94.1351C78.2558 93.9095 79.3733 93.3991 79.7332 92.2333C80.1361 90.9601 79.3733 89.0798 77.6595 88.3438ZM73.3616 85.5126C74.8068 85.2977 75.9511 85.6899 76.1929 86.3883C76.2808 86.6276 76.2808 86.8903 76.1929 87.1296C75.8974 87.8764 74.7746 88.3115 73.3885 88.1665L73.3616 85.5126ZM77.3855 91.6155C77.1921 92.4858 75.6073 93.066 73.3616 93.0231V89.5042C76.3648 89.2195 77.5467 90.6431 77.3963 91.6155H77.3855Z" fill="black"/>
<path d="M35.1811 78.7057C34.9394 78.9958 39.3769 83.111 39.7798 83.4763C40.2784 81.9886 40.9895 80.5808 41.8912 79.2966C43.4115 77.1477 44.9749 76.041 44.8567 75.896C44.7385 75.7509 41.1766 77.5077 39.5273 81.4939C39.205 81.2414 38.743 80.8869 38.1735 80.4893C37.604 80.0918 35.3477 78.5015 35.1811 78.7057Z" fill="black"/>
<path d="M14.8314 17.6021L16.2175 22.4962L20.8538 22.7004C21.0472 24.903 19.9727 26.8747 18.2751 27.6214C16.2443 28.5186 14.2297 27.976 13.5313 27.4065C10.727 25.1072 10.4207 21.8462 11.9196 19.52C12.6219 18.5449 13.6583 17.8622 14.8314 17.6021Z" fill="black"/>
<path d="M15.0407 9.7052C14.9444 9.74917 14.8676 9.8272 14.8252 9.9243C14.7829 10.0214 14.7778 10.1307 14.8111 10.2313C14.8444 10.3319 14.9137 10.4166 15.0057 10.4692C15.0976 10.5219 15.2058 10.5387 15.3094 10.5164L23.8352 7.29303C24.2543 7.1426 24.0125 6.3851 23.4914 6.57851L15.0407 9.7052Z" fill="black"/>
<path d="M80.4475 6.61591C80.3445 6.58698 80.2343 6.59801 80.1391 6.6468C80.0439 6.69559 79.9706 6.77854 79.934 6.87904C79.8973 6.97954 79.8999 7.09018 79.9414 7.18882C79.9828 7.28746 80.0599 7.36682 80.1573 7.41101L88.5059 10.4894C89.2043 10.7311 89.4622 9.95212 88.8014 9.72111L80.4475 6.61591Z" fill="black"/>
<path d="M83.6707 28.7871C86.4643 29.9529 87.9685 30.2592 91.7882 31.6613L92.1213 30.4579C88.7905 29.0181 87.6247 29.045 83.9339 27.5837L83.6707 28.7871Z" fill="black"/>
<path d="M84.2079 26.2246C84.5249 24.4947 84.7451 23.6996 84.9976 22.1094L86.4589 22.5338C86.2835 23.9389 86.027 25.3326 85.6907 26.7081L84.2079 26.2246Z" fill="black"/>
<path d="M86.3569 26.9557L87.8558 27.4929C88.5004 24.8658 88.393 24.3232 88.9893 21.6102L87.3776 21.1482C87.1305 22.459 86.416 26.5796 86.3569 26.9557Z" fill="black"/>
<path d="M88.7476 27.7663L90.2895 28.3036C90.5312 26.5468 91.004 23.6619 91.4284 20.648L90.0047 20.3579C89.9295 20.8468 88.9303 26.6167 88.7476 27.7663Z" fill="black"/>
<path d="M91.0308 28.5131L92.3362 28.9967C92.9809 25.5476 93.5772 21.9213 94.0661 18.3165L92.5458 17.9941C91.9494 21.8998 91.7829 24.3066 91.0308 28.5131Z" fill="black"/>
<path d="M42.4177 80.355C42.4062 80.312 42.3786 80.2751 42.3405 80.2521C42.3024 80.229 42.2569 80.2216 42.2135 80.2315C42.1918 80.2365 42.1714 80.2458 42.1534 80.2589C42.1354 80.2719 42.1202 80.2884 42.1087 80.3075C42.0971 80.3265 42.0896 80.3476 42.0863 80.3696C42.0831 80.3916 42.0844 80.4141 42.09 80.4356C42.2823 81.2262 42.1771 82.0599 41.7945 82.7779C41.492 83.2507 41.0804 83.6439 40.5942 83.9244C40.1081 84.2048 39.5616 84.3644 39.0009 84.3896H38.9472C38.4225 84.4329 37.8949 84.3516 37.4076 84.1524C36.9202 83.9532 36.4868 83.6416 36.1427 83.243C35.7987 82.8445 35.5536 82.3703 35.4276 81.8591C35.3016 81.3478 35.2982 80.8141 35.4177 80.3013C35.4276 80.2578 35.4199 80.2122 35.3963 80.1744C35.3726 80.1366 35.3349 80.1098 35.2914 80.0998C35.248 80.0899 35.2023 80.0976 35.1645 80.1212C35.1268 80.1449 35.0999 80.1826 35.09 80.2261C35.0633 80.3539 35.0435 80.483 35.0309 80.6129C33.7791 80.5807 32.6026 80.5753 31.3831 80.5753C33.763 72.9145 34.9771 71.7434 36.7929 65.2537L39.7906 63.5615C42.1544 62.3796 42.1867 60.3382 41.9073 58.5385C39.1066 40.7564 36.3059 22.9583 33.5052 5.14404C33.3834 4.33407 33.0632 3.5668 32.5729 2.91065C32.0827 2.2545 31.4377 1.72985 30.6955 1.38349C30.0281 1.01536 29.2875 0.799405 28.5268 0.751109C27.7662 0.702812 27.0042 0.823367 26.2956 1.10413L3.43688 9.83935C1.11071 10.8171 0.75077 12.6114 1.01401 15.0611L9.87816 73.3819C10.4852 76.8094 14.3801 77.5991 17.0823 76.2829C17.6518 76.0519 16.1314 76.8792 36.3739 65.5385C34.5689 71.8777 33.3923 72.979 31.0286 80.6236C30.9748 80.6236 26.7791 80.5645 24.2166 80.5108C23.1744 80.5108 22.5297 80.9728 22.5297 81.7196C22.562 86.0657 22.7446 90.4816 22.6425 94.8976C22.7339 96.6221 23.2657 97.2291 24.6786 97.2291C29.562 97.1969 33.156 97.4977 37.5021 97.3688C38.9418 97.3688 39.5865 96.6382 39.5167 95.3596C39.3018 91.9697 39.3179 88.3274 39.1621 84.7656C41.6709 84.4755 42.9173 82.4072 42.4177 80.355ZM4.16213 32.8754C3.82905 30.7265 3.53716 28.5776 3.28645 26.4287C3.21124 25.7518 4.2642 25.7733 4.3609 26.2837L5.38699 32.6981C5.49981 33.3106 4.29106 33.606 4.16213 32.8754ZM5.23657 39.408C5.00019 37.9092 4.82291 36.4049 4.61339 34.9061C4.59344 34.7878 4.62129 34.6665 4.69081 34.5688C4.76032 34.4711 4.86582 34.4049 4.98407 34.385C5.10233 34.365 5.22367 34.3929 5.3214 34.4624C5.41912 34.5319 5.48523 34.6374 5.50518 34.7557L6.31101 39.2307C6.33538 39.305 6.34322 39.3838 6.334 39.4614C6.32478 39.5391 6.29872 39.6138 6.25763 39.6803C6.21654 39.7469 6.16142 39.8037 6.09612 39.8467C6.03082 39.8897 5.95691 39.918 5.87955 39.9295C5.8022 39.941 5.72327 39.9355 5.64827 39.9133C5.57327 39.8911 5.50401 39.8529 5.44534 39.8011C5.38667 39.7494 5.33999 39.6856 5.30857 39.6139C5.27715 39.5423 5.26174 39.4647 5.26343 39.3865L5.23657 39.408ZM11.8336 73.3443C11.1997 70.4594 3.94186 19.9875 3.41539 16.098C2.98024 12.8747 4.44148 11.1287 7.67018 10.0166C15.1053 7.22308 22.8682 4.39193 30.3194 1.59838C30.7889 1.78575 31.2245 2.0489 31.6088 2.37735C30.9702 2.14334 30.2659 2.1645 29.6425 2.43644L7.94954 10.9944C4.65637 12.3965 4.18899 13.9384 4.50058 16.4848L12.8329 73.3497C13.0531 74.6336 13.4775 75.5469 14.1007 76.068C13.5384 75.8237 13.0421 75.4494 12.6526 74.9759C12.2632 74.5024 11.9917 73.9432 11.8605 73.3443H11.8336ZM17.5927 75.6328C15.2074 76.9114 13.6602 76.2506 13.1498 73.2959L4.83902 16.4418C4.5919 14.3466 4.68323 12.7511 8.06235 11.3113L29.7607 2.7534C31.6249 2.08188 32.8336 3.29062 33.1721 5.19776C35.9692 23.0013 38.7699 40.8048 41.5742 58.6083C41.9449 61.0473 41.3862 62.4011 39.6295 63.2768L36.9434 64.7971C37.0669 64.3405 37.1851 63.8838 37.2979 63.4218C37.3996 63.4332 37.5025 63.4234 37.6001 63.3931C37.6978 63.3627 37.7881 63.3125 37.8655 63.2456C37.9428 63.1787 38.0054 63.0965 38.0495 63.0042C38.0935 62.9119 38.1179 62.8115 38.1213 62.7093C38.1246 62.6071 38.1068 62.5053 38.0689 62.4103C38.031 62.3153 37.9739 62.2292 37.9011 62.1574C37.8283 62.0855 37.7414 62.0295 37.6459 61.9929C37.5505 61.9562 37.4484 61.9398 37.3463 61.9444C37.1748 61.9291 37.0033 61.9748 36.8622 62.0735C36.7211 62.1723 36.6194 62.3177 36.5751 62.4841C36.5307 62.6505 36.5466 62.8272 36.6199 62.983C36.6932 63.1389 36.8192 63.2638 36.9756 63.3358C36.8306 63.8731 36.6855 64.4694 36.5297 65.0335L17.5927 75.6328ZM39.1621 95.3381C39.2266 96.5039 38.6249 96.9874 37.4806 96.9874C32.9948 97.1217 29.5834 96.8101 24.6625 96.8477C23.443 96.8477 23.0508 96.3803 22.9649 94.8546C23.0669 90.4816 22.8897 86.0764 22.8521 81.6766C22.8521 81.1394 23.357 80.7902 24.1897 80.8063C26.7577 80.86 30.8889 80.9191 30.9104 80.9191C30.8137 81.2253 30.7224 81.5315 30.631 81.8431C30.5266 81.8206 30.4185 81.8211 30.3143 81.8446C30.2101 81.868 30.1122 81.9139 30.0275 81.979C29.9428 82.0441 29.8732 82.1268 29.8237 82.2215C29.7742 82.3162 29.7459 82.4205 29.7408 82.5272C29.7356 82.6339 29.7538 82.7404 29.794 82.8394C29.8342 82.9384 29.8954 83.0275 29.9735 83.1004C30.0515 83.1733 30.1446 83.2284 30.246 83.2618C30.3475 83.2951 30.4551 83.306 30.5612 83.2936C30.7287 83.311 30.8969 83.269 31.0367 83.1751C31.1765 83.0812 31.2789 82.9413 31.3262 82.7797C31.3735 82.618 31.3626 82.445 31.2955 82.2905C31.2283 82.1361 31.1092 82.0101 30.9587 81.9344C31.0554 81.5978 31.1575 81.2593 31.2649 80.9191C32.5167 80.9191 33.72 80.9191 35.0255 80.9567C35.0086 81.4592 35.096 81.9598 35.2821 82.4269C35.4682 82.894 35.749 83.3175 36.1068 83.6707C36.4646 84.024 36.8916 84.2993 37.3611 84.4795C37.8305 84.6596 38.3321 84.7405 38.8344 84.7173C38.9794 88.3328 38.9633 91.9053 39.1782 95.3381H39.1621Z" fill="black"/>
<path d="M36.7875 78.1309C36.7686 78.1423 36.7522 78.1575 36.7393 78.1756C36.7265 78.1937 36.7176 78.2142 36.713 78.2358C36.7085 78.2575 36.7085 78.2799 36.713 78.3016C36.7175 78.3233 36.7264 78.3438 36.7392 78.3619C36.7511 78.381 36.7669 78.3975 36.7854 78.4104C36.8039 78.4232 36.8249 78.4322 36.847 78.4367C36.8691 78.4412 36.8919 78.4412 36.914 78.4367C36.9361 78.4321 36.957 78.4231 36.9756 78.4102C37.5068 78.0526 38.1362 77.8692 38.7764 77.8856C39.4166 77.902 40.0359 78.1172 40.5481 78.5016C40.5838 78.5286 40.6287 78.5404 40.673 78.5344C40.7173 78.5283 40.7575 78.5049 40.7845 78.4693C40.8116 78.4337 40.8234 78.3888 40.8174 78.3445C40.8113 78.3001 40.7879 78.26 40.7523 78.2329C40.1842 77.8056 39.4969 77.5661 38.7862 77.5478C38.0756 77.5295 37.3769 77.7333 36.7875 78.1309Z" fill="black"/>
<path d="M32.8714 28.8193C32.8714 28.2123 32.5168 27.7449 32.0763 27.7449C31.6357 27.7449 31.2865 28.2391 31.2865 28.8193C31.2664 29.0308 31.3061 29.2436 31.4011 29.4336C31.4961 29.6236 31.6426 29.783 31.8238 29.8938C31.4638 33.3589 31.3295 37.0444 30.7493 41.3368C30.5914 41.3357 30.4372 41.3846 30.3088 41.4765C29.2719 40.069 28.1599 38.8226 27.1445 37.2593C27.354 36.5394 27.0639 35.5723 26.5052 35.5723C25.9465 35.5723 25.5973 36.6468 25.9142 37.4097C24.7484 39.5586 24.7054 40.2301 23.5182 42.2985C23.4638 42.2314 23.3959 42.1766 23.3188 42.1376C23.2418 42.0986 23.1574 42.0764 23.0712 42.0723C22.9849 42.0683 22.8988 42.0825 22.8184 42.1141C22.7381 42.1456 22.6653 42.1938 22.6049 42.2555C21.6916 40.993 20.7353 39.752 19.6286 38.4304C19.9402 37.6837 19.548 36.7596 18.9248 36.7596C18.1244 36.7596 17.8128 38.1672 18.4574 38.785C17.2487 43.3891 17.34 44.8342 16.0453 50.0346C15.5403 49.9917 15.1964 50.5719 15.1964 51.1091C15.1964 51.6463 15.5564 52.1836 15.9915 52.1836C16.8189 52.1836 17.066 50.6739 16.3622 50.1528C17.6623 44.9417 17.5603 43.5556 18.7637 38.9623C18.8873 38.9929 19.0171 38.9868 19.1373 38.9449C19.2575 38.9029 19.3629 38.8268 19.4406 38.7259C20.5473 40.0582 21.4928 41.2885 22.3954 42.5402C22.0354 43.2601 22.3954 44.2486 23.04 44.2486C23.6847 44.2486 24.0124 43.3354 23.7223 42.6369C24.9526 40.5256 25.0385 39.8004 26.1237 37.7535C26.1824 37.8144 26.2547 37.8605 26.3346 37.8882C26.4145 37.9158 26.4998 37.9242 26.5835 37.9127C26.6673 37.9012 26.7472 37.8701 26.8166 37.8219C26.8861 37.7737 26.9432 37.7097 26.9833 37.6353C27.9664 39.102 28.8099 40.026 30.067 41.729C29.5996 42.4113 29.9918 43.475 30.7386 43.475C30.9959 43.4466 31.2316 43.3178 31.3945 43.1167C31.5575 42.9155 31.6345 42.6582 31.6089 42.4006C31.6174 42.204 31.5718 42.0089 31.4771 41.8365C31.3824 41.6641 31.2421 41.521 31.0716 41.4228C31.6841 36.9477 31.7915 33.4073 32.1461 29.9368C32.3796 29.8663 32.5806 29.7154 32.7133 29.5108C32.8461 29.3063 32.9021 29.0613 32.8714 28.8193Z" fill="black"/>
<path d="M36.7557 54.2246C36.4495 52.1563 35.9714 49.8999 35.4879 46.7034C35.4848 46.6766 35.4752 46.651 35.4601 46.6287C35.4449 46.6064 35.4246 46.5882 35.4008 46.5755C35.377 46.5628 35.3505 46.5561 35.3236 46.5559C35.2966 46.5557 35.27 46.5621 35.2461 46.5744C28.4823 50.0611 22.8253 52.758 15.8628 56.1425C15.829 56.1584 15.8013 56.1848 15.7839 56.2177C15.7665 56.2506 15.7602 56.2884 15.7661 56.3252C16.2603 58.9039 16.5397 61.3322 17.0017 63.6691C17.0063 63.695 17.0169 63.7194 17.0327 63.7403C17.0485 63.7612 17.069 63.7782 17.0925 63.7897C17.1161 63.8012 17.142 63.807 17.1683 63.8066C17.1945 63.8062 17.2203 63.7996 17.2434 63.7873C20.7784 62.0306 32.9521 56.2661 36.6644 54.3911C36.6948 54.376 36.7198 54.3519 36.7361 54.3222C36.7524 54.2924 36.7593 54.2584 36.7557 54.2246ZM17.2918 63.3898C16.8728 61.2086 16.588 58.8555 16.126 56.4058C23.0294 53.0696 28.5683 50.4103 35.1924 47.0042C35.6383 49.9321 36.1057 52.2046 36.4011 54.1601C29.6857 57.5608 24.5767 59.8011 17.2918 63.3898Z" fill="black"/>
<path d="M31.4531 63.7762C31.3553 63.3934 31.287 63.0036 31.2489 62.6104C31.2167 62.4438 31.1146 62.4062 31.0018 62.4546C30.889 62.5029 30.5344 62.7178 29.5567 63.1799C28.4231 63.7171 28.0954 63.7869 26.4568 64.6572C26.418 64.6769 26.3884 64.7109 26.3744 64.752C26.3603 64.7932 26.3629 64.8382 26.3816 64.8775C26.9511 66.1937 26.7093 66.602 27.2788 67.9021C27.2916 67.9327 27.3133 67.9588 27.3411 67.977C27.3688 67.9952 27.4014 68.0046 27.4346 68.0042C27.5635 68.0042 28.9227 67.3541 29.0839 67.2789C29.6963 66.9727 30.8245 66.3442 31.8077 65.9144C31.8424 65.8994 31.8712 65.8734 31.8897 65.8403C31.9081 65.8073 31.9152 65.7691 31.9097 65.7317C31.7916 65.0724 31.6392 64.4196 31.4531 63.7762ZM27.5259 67.612C27.0693 66.4999 27.2466 66.1024 26.7523 64.8882C28.638 63.8783 29.014 63.8836 30.9373 62.8683C31.0931 64.0394 31.3188 64.3456 31.5552 65.6565C29.9488 66.3871 29.2397 66.8975 27.5259 67.612Z" fill="black"/>
<path d="M23.454 26.4562C22.7019 21.9721 21.948 17.4827 21.1923 12.9878C21.1753 12.8258 21.1197 12.6701 21.0302 12.5339C20.9407 12.3977 20.8199 12.2849 20.6779 12.205C20.5359 12.125 20.3768 12.0803 20.2139 12.0744C20.0511 12.0685 19.8892 12.1017 19.7418 12.1712L10.3724 15.6901C9.2335 16.179 9.21739 17.0278 9.3517 17.7907L11.6081 31.5707C11.7478 32.2046 12.0916 32.8171 12.7416 32.8171C13.0801 32.8171 12.3817 33.1179 22.7664 28.5837C23.6851 28.1861 23.583 27.4233 23.454 26.4562ZM13.1392 32.4034C12.4676 32.715 12.1023 32.2583 11.9412 31.5331L9.68478 17.737C9.51824 16.7968 9.74387 16.3294 10.5014 16.0017L19.8546 12.4882C19.954 12.4358 20.0649 12.4085 20.1773 12.4089C20.2897 12.4092 20.4004 12.4371 20.4995 12.4901C20.5987 12.5431 20.6833 12.6197 20.746 12.713C20.8087 12.8063 20.8476 12.9136 20.8592 13.0254C21.6185 17.5095 22.3706 21.9865 23.1156 26.4562C23.2606 27.5307 23.2553 27.9497 22.6267 28.2291L13.1392 32.4034Z" fill="black"/>
<path d="M22.3202 13.4227C22.3332 13.5248 22.3829 13.6187 22.4599 13.6869C22.537 13.7551 22.6363 13.793 22.7392 13.7934C22.9219 13.7934 22.8305 13.7934 24.7753 13.052C26.387 12.4342 27.9289 11.8863 29.7393 11.0643C30.2766 10.8172 30.1423 10.4572 30.0241 9.49557C29.9811 9.06041 29.4868 9.03355 29.0463 9.18397L22.6801 11.7627C22.5001 11.8176 22.3482 11.9399 22.2562 12.104C22.1641 12.2682 22.1389 12.4615 22.1858 12.6437C22.2288 12.9016 22.2664 13.1595 22.3202 13.4227ZM22.809 12.0743L29.1591 9.50094C29.3145 9.43066 29.4902 9.41921 29.6534 9.46871C29.6964 9.49557 29.6534 9.46871 29.7769 10.2477C29.8145 10.6238 29.8092 10.6614 29.5996 10.7527C27.8053 11.5747 26.2634 12.1173 24.6571 12.7351C22.8681 13.4227 22.7822 13.4872 22.7016 13.4442C22.621 13.4012 22.6317 13.2562 22.5189 12.59C22.5019 12.5371 22.4959 12.4813 22.5015 12.426C22.507 12.3707 22.5239 12.3171 22.5512 12.2687C22.5784 12.2203 22.6154 12.178 22.6598 12.1445C22.7042 12.1111 22.755 12.0872 22.809 12.0743Z" fill="black"/>
<path d="M23.3731 14.9592C23.1931 15.0141 23.0412 15.1364 22.9491 15.3005C22.8571 15.4647 22.8319 15.658 22.8788 15.8402C22.911 16.0498 23.0131 16.6192 23.0131 16.6192C23.0263 16.7222 23.0767 16.8169 23.1549 16.8852C23.2331 16.9535 23.3337 16.9908 23.4375 16.9899C23.6021 16.975 23.7624 16.9294 23.9103 16.8556C25.2104 16.3184 28.09 15.3245 30.4323 14.2608C30.8567 14.0674 30.8513 13.8041 30.8084 13.4066C30.7761 13.1702 30.7493 12.9285 30.7224 12.6921C30.674 12.2623 30.1852 12.23 29.7393 12.3805L23.3731 14.9592ZM30.3571 12.6652C30.4054 12.6921 30.3571 12.6652 30.4806 13.4442C30.5236 13.8203 30.5129 13.8579 30.3034 13.9492C27.9933 15.0237 25.0653 16.0175 23.7921 16.5387C23.6793 16.587 23.4751 16.6783 23.4053 16.6407C23.3355 16.6031 23.3677 16.5977 23.3569 16.5494C23.3462 16.501 23.2549 16.0122 23.2226 15.7865C23.201 15.7324 23.1915 15.6743 23.1949 15.6161C23.1982 15.558 23.2143 15.5013 23.242 15.45C23.2696 15.3988 23.3082 15.3542 23.355 15.3195C23.4018 15.2849 23.4557 15.2609 23.5127 15.2493L29.8682 12.676C30.0213 12.6162 30.1907 12.6124 30.3463 12.6652H30.3571Z" fill="black"/>
<path d="M24.1575 18.9723C23.9771 19.0283 23.8252 19.1517 23.7332 19.3167C23.6412 19.4817 23.6162 19.6757 23.6633 19.8587C23.7063 20.1112 23.7492 20.3959 23.803 20.6323C23.8137 20.7353 23.8627 20.8306 23.9403 20.8992C24.0179 20.9679 24.1184 21.0049 24.222 21.003C24.41 21.003 24.3671 21.003 26.2689 20.2616C27.8806 19.6384 29.417 19.0958 31.2221 18.2739C31.7594 18.0429 31.6304 17.7796 31.5069 16.7105C31.4585 16.2807 30.9696 16.2377 30.5237 16.3989L24.1575 18.9723ZM31.1416 16.6783C31.1517 16.6869 31.1598 16.6976 31.1654 16.7096C31.171 16.7217 31.1738 16.7348 31.1738 16.7481C31.3027 17.8548 31.3511 17.8226 31.0825 17.9676C29.2935 18.7789 27.757 19.3268 26.156 19.9447C24.3724 20.6269 24.265 20.6968 24.1898 20.6592C24.1146 20.6216 24.1253 20.5141 24.0017 19.7996C23.9801 19.7455 23.9706 19.6873 23.974 19.6292C23.9773 19.571 23.9934 19.5143 24.0211 19.4631C24.0487 19.4118 24.0873 19.3673 24.1341 19.3326C24.1809 19.2979 24.2348 19.2739 24.2918 19.2624L30.6473 16.689C30.8014 16.621 30.9745 16.6096 31.1362 16.6568L31.1416 16.6783Z" fill="black"/>
<path d="M31.0607 19.4502L24.6945 22.029C24.5153 22.085 24.3642 22.2075 24.2724 22.3713C24.1805 22.5351 24.1547 22.7278 24.2003 22.91C24.2432 23.1625 24.2862 23.4473 24.3399 23.689C24.3497 23.7573 24.3758 23.8223 24.416 23.8784C24.4563 23.9345 24.5094 23.9801 24.571 24.0113C24.6813 24.0438 24.7972 24.0525 24.9112 24.0367C25.0251 24.021 25.1344 23.9812 25.2317 23.92C26.5641 23.3828 29.406 22.3943 31.7591 21.3306C32.2963 21.0995 32.1728 20.8524 32.0439 19.7618C31.9955 19.3321 31.5227 19.2944 31.0607 19.4502ZM31.6732 19.735L31.7054 19.8048C31.8343 20.8793 31.8881 20.8793 31.6141 21.019C29.1965 22.0934 26.5641 23.0121 25.1028 23.6084C24.99 23.6568 24.7858 23.7427 24.7214 23.7105C24.6569 23.6783 24.6408 23.4795 24.5387 22.8563C24.5181 22.8021 24.5093 22.7442 24.5131 22.6863C24.5169 22.6285 24.5331 22.5722 24.5606 22.5212C24.5882 22.4702 24.6264 22.4257 24.6727 22.3908C24.7189 22.356 24.7722 22.3315 24.8288 22.3191L31.1789 19.7457C31.3369 19.6825 31.5125 19.6787 31.6732 19.735Z" fill="black"/>
<path d="M31.2862 61.0093C31.2862 61.0093 36.1212 58.6671 39.1888 57.1467C39.2205 57.1303 39.2464 57.1045 39.2628 57.0727C39.2791 57.0409 39.2852 57.0048 39.2801 56.9694C38.9578 54.8206 32.1082 11.6441 31.3292 5.75614C31.3263 5.73034 31.3174 5.70559 31.3032 5.68386C31.289 5.66213 31.2699 5.64401 31.2475 5.63096C31.225 5.61792 31.1998 5.61029 31.1739 5.60871C31.148 5.60712 31.1221 5.61162 31.0982 5.62183C29.8787 6.1107 9.36224 14.0938 7.49809 14.8674C7.46378 14.8814 7.43511 14.9064 7.41662 14.9385C7.39813 14.9706 7.39088 15.008 7.39601 15.0447C8.26094 20.7768 15.7659 68.3532 15.7659 68.3532C15.7722 68.3931 15.7924 68.4294 15.8228 68.456C15.8533 68.4825 15.8921 68.4974 15.9325 68.4982C16.0883 68.4982 15.8143 68.4821 31.2862 61.0093ZM16.0668 68.0738C16.0668 68.0738 8.61013 20.7983 7.75058 15.1253C9.56639 14.3785 29.8196 6.4975 31.023 5.99252C31.7912 11.8053 38.6032 54.7507 38.9255 56.8727C31.802 60.4238 24.0714 64.0124 16.0668 68.0738Z" fill="black"/>
<path d="M87.3081 55.4172C80.5014 52.081 75.1291 49.7225 68.3976 46.209C68.3731 46.198 68.3464 46.1927 68.3196 46.1934C68.2928 46.1942 68.2665 46.201 68.2427 46.2135C68.2189 46.2259 68.1982 46.2435 68.1822 46.2651C68.1662 46.2867 68.1554 46.3116 68.1504 46.338C67.6454 49.744 67.2532 51.4847 66.9202 53.7625C66.9141 53.7966 66.9192 53.8317 66.9347 53.8627C66.9502 53.8937 66.9752 53.9188 67.0061 53.9344C70.6593 55.8147 73.7 57.2706 76.9234 58.8125C86.1531 63.2285 85.8898 63.2339 86.0564 63.2339C86.0955 63.2347 86.1336 63.2216 86.1641 63.197C86.1945 63.1725 86.2154 63.138 86.2229 63.0996C86.6796 60.7412 86.9267 58.2645 87.4209 55.5784C87.4226 55.5428 87.4124 55.5077 87.392 55.4786C87.3716 55.4494 87.3421 55.4278 87.3081 55.4172ZM85.9113 62.8149C82.5751 61.1387 70.8688 55.5408 67.2694 53.6819C67.5541 51.7962 68.0054 49.5828 68.4513 46.6173C75.0377 50.0449 80.3241 52.3711 87.0449 55.6589C86.599 58.0926 86.3196 60.6337 85.9113 62.8149Z" fill="black"/>
<path d="M77.4927 64.6363C76.0368 63.8788 75.1235 63.4974 74.4359 63.1697C72.8725 62.4283 72.937 62.3692 72.8242 62.4283C72.8008 62.4374 72.7799 62.4519 72.7631 62.4706C72.7463 62.4892 72.7341 62.5115 72.7275 62.5357C72.3084 63.9057 72.5179 64.3086 72.0613 65.6839C72.0485 65.7246 72.0514 65.7686 72.0693 65.8073C72.0871 65.846 72.1188 65.8767 72.158 65.8934C73.9309 66.5918 74.4036 67.07 76.4558 67.9671C76.4775 67.9775 76.5011 67.983 76.5251 67.9833C76.5491 67.9837 76.5728 67.9788 76.5948 67.9691C76.6167 67.9594 76.6363 67.9451 76.6522 67.9272C76.6681 67.9092 76.6799 67.888 76.6869 67.8651C77.1381 66.5112 77.0737 66.0277 77.5787 64.8566C77.5952 64.8158 77.5956 64.7703 77.5796 64.7293C77.5636 64.6883 77.5325 64.6551 77.4927 64.6363ZM76.4182 67.5857C74.5702 66.7584 74.1189 66.3178 72.4266 65.6356C72.8295 64.3516 72.663 64.0239 72.9638 62.8312C74.7636 63.7552 75.3223 63.9057 77.1811 64.8673C76.7513 65.9794 76.7836 66.4414 76.4075 67.6072L76.4182 67.5857Z" fill="black"/>
<path d="M72.1795 24.4736C81.941 28.9219 81.3125 28.6264 81.6187 28.6264C82.2472 28.6264 82.5642 28.0033 82.6932 27.3908L84.8152 13.8848C84.9334 13.1327 84.9119 12.2731 83.8428 11.8164L75.0322 8.36742C74.8892 8.29971 74.7318 8.26794 74.5737 8.27485C74.4156 8.28177 74.2616 8.32716 74.125 8.40709C73.9885 8.48703 73.8735 8.59908 73.79 8.73354C73.7066 8.86799 73.6572 9.02078 73.6462 9.17864L71.4972 22.3892C71.4059 23.3293 71.3146 24.0815 72.1795 24.4736ZM71.8518 22.4375L74.0007 9.2431C74.1082 8.73273 74.4305 8.48561 74.9301 8.70587L83.73 12.1495C84.4392 12.4665 84.6487 12.9285 84.5036 13.8526L82.3547 27.3478C82.335 27.5294 82.2769 27.7048 82.1842 27.8622C82.0916 28.0197 81.9666 28.1556 81.8175 28.2611C81.7205 28.2977 81.6164 28.3119 81.5132 28.3026C81.4099 28.2933 81.3101 28.2607 81.2211 28.2074L72.2977 24.1889C71.7336 23.8988 71.7282 23.4744 71.8518 22.4375Z" fill="black"/>
<path d="M96.4459 14.8624C94.1412 13.9759 74.6562 6.26682 72.8404 5.62753C72.818 5.61577 72.7932 5.60962 72.7679 5.60962C72.7426 5.60962 72.7177 5.61577 72.6954 5.62753C72.5664 5.70274 73.1466 3.38731 64.6639 56.9644C64.6597 57.001 64.6673 57.038 64.6857 57.0699C64.7041 57.1018 64.7322 57.127 64.766 57.1417C72.7598 60.6766 78.997 64.1739 87.9363 68.4717C87.9602 68.4849 87.987 68.4918 88.0142 68.4918C88.0415 68.4918 88.0683 68.4849 88.0921 68.4717C88.2587 68.3804 88.0599 68.7081 89.2418 60.5316C92.0353 41.1916 93.185 39.7894 96.5534 15.0289C96.5541 14.9936 96.5442 14.9589 96.5251 14.9292C96.5059 14.8995 96.4784 14.8763 96.4459 14.8624ZM87.8504 68.0849C81.1458 64.8616 72.459 60.2038 64.997 56.8999C64.997 56.8999 72.0937 11.7196 72.8995 6.0197C74.6508 6.65899 93.9263 14.2607 96.1773 15.1525C92.7552 40.4126 90.6547 46.1072 87.8719 68.0849H87.8504Z" fill="black"/>
<path d="M100.513 9.83925L77.6539 1.11478C74.7637 0.0725689 71.4866 1.53918 70.6163 4.44555C70.4283 5.07947 71.0569 1.22222 62.0208 58.5545C61.7414 60.3757 61.7737 62.3956 64.1321 63.5721L66.1413 64.7003C68.677 71.6842 68.779 73.7793 71.5404 80.5591C70.5948 80.5591 69.5956 80.4946 68.5051 80.4731C67.4145 80.4516 66.8128 80.9351 66.8128 81.6818C66.8128 84.6527 67.0384 90.0732 66.931 94.8599C67.0223 96.579 67.5542 97.1914 68.9671 97.1914C73.7161 97.1538 77.4229 97.46 81.7905 97.3257C83.2034 97.3257 83.875 96.622 83.8051 95.3219C83.5419 91.1423 83.6332 87.1884 83.3431 82.7456C83.2625 81.5583 82.9187 80.7525 81.5112 80.7041C78.0622 80.5268 75.317 80.6128 71.911 80.5644C69.1551 73.8277 69.01 71.668 66.5925 64.9528C87.9202 76.9221 86.2817 76.0303 86.8458 76.2344C89.5319 77.5506 93.4429 76.7717 94.0499 73.3334L102.914 15.0181C103.204 12.5952 102.844 10.8009 100.513 9.83925ZM72.0883 81.8269C71.9402 81.8982 71.8225 82.0201 71.7566 82.1707C71.6906 82.3213 71.6808 82.4904 71.7289 82.6476C71.7769 82.8048 71.8797 82.9396 72.0186 83.0275C72.1574 83.1155 72.3232 83.1507 72.4859 83.127C72.5892 83.1419 72.6946 83.1338 72.7945 83.1032C72.8944 83.0726 72.9863 83.0204 73.0636 82.9502C73.1409 82.88 73.2018 82.7936 73.2419 82.6972C73.2819 82.6007 73.3002 82.4966 73.2954 82.3923C73.2905 82.2879 73.2627 82.186 73.2139 82.0936C73.1651 82.0013 73.0965 81.9209 73.013 81.8582C72.9295 81.7954 72.8332 81.7519 72.7309 81.7307C72.6286 81.7095 72.5229 81.7112 72.4214 81.7356C72.3032 81.4616 72.185 81.1984 72.0722 80.9136C75.4352 80.9566 78.1213 80.8707 81.5166 81.0479C82.6877 81.0909 82.9509 81.6872 83.0261 82.7724C83.3162 87.2152 83.2249 91.1746 83.4882 95.3434C83.5473 96.4178 83.0315 96.9927 81.8067 96.9927C77.5841 97.1216 74.3124 96.853 69.8212 96.853C68.1397 96.853 67.4037 96.9712 67.2909 94.8599C67.393 90.4547 67.2103 86.0226 67.1727 81.6818C67.1727 81.1446 67.6777 80.8008 68.5158 80.8169C69.6654 80.8169 70.713 80.8921 71.7069 80.9082C71.8519 81.2091 71.9594 81.5153 72.0883 81.8269ZM66.4367 64.4747C66.2004 63.83 65.9586 63.1799 65.7115 62.5353C65.8687 62.4588 65.9936 62.3288 66.0637 62.1687C66.1339 62.0085 66.1447 61.8286 66.0943 61.6612C66.0439 61.4938 65.9355 61.3498 65.7886 61.255C65.6417 61.1602 65.4658 61.1208 65.2925 61.1439C65.1894 61.1388 65.0864 61.1541 64.9893 61.1889C64.8922 61.2238 64.8029 61.2774 64.7266 61.3467C64.6502 61.4161 64.5883 61.4998 64.5444 61.5932C64.5004 61.6865 64.4753 61.7876 64.4705 61.8906C64.4767 62.0012 64.506 62.1092 64.5564 62.2078C64.6068 62.3064 64.6773 62.3934 64.7632 62.4632C64.8492 62.533 64.9488 62.5841 65.0557 62.6131C65.1626 62.6422 65.2743 62.6486 65.3838 62.632C65.5879 63.1692 65.7867 63.7064 65.9801 64.2436L64.3308 63.2766C62.5849 62.401 62.0262 61.0472 62.3968 58.6082C65.1797 40.8047 67.9732 23.003 70.7775 5.20303C71.1159 3.30664 72.3247 2.08178 74.1835 2.7533L95.8657 11.3059C99.2663 12.751 99.3577 14.3465 99.0891 16.4363C96.3313 35.3895 93.5611 54.3409 90.7782 73.2905C90.2679 76.2882 88.6938 76.8952 86.3408 75.6327L66.4367 64.4747ZM100.534 16.1247C99.997 20.0196 92.7445 70.4915 92.0891 73.3764C91.9562 73.9746 91.6842 74.5331 91.2949 75.0063C90.9056 75.4796 90.4102 75.8544 89.8489 76.1001C90.472 75.5629 90.8964 74.6657 91.1167 73.3764L99.449 16.4793C99.7445 13.9382 99.2932 12.3964 96 10.9943L74.3017 2.43634C73.6736 2.17583 72.9714 2.15669 72.3301 2.38262C73.5657 1.30818 74.2372 1.7863 74.8872 2.02805C82.0914 4.71416 89.1021 7.32506 96.274 10.0165C99.5135 11.1232 100.975 12.8907 100.534 16.0925V16.1247Z" fill="black"/>
<path d="M19.473 17.5915C18.3973 16.9102 17.1072 16.6518 15.8521 16.8663C15.6641 16.8985 15.7178 17.0758 15.7446 17.1618C15.8306 17.5163 16.1207 18.5102 16.9642 21.4596C16.9738 21.493 16.9933 21.5227 17.0202 21.5447C17.0471 21.5668 17.08 21.5802 17.1146 21.5832L21.5736 21.9324C21.5959 21.9324 21.618 21.9279 21.6386 21.9192C21.6592 21.9105 21.6778 21.8978 21.6933 21.8817C21.7089 21.8657 21.721 21.8467 21.7291 21.8259C21.7371 21.805 21.7409 21.7828 21.7402 21.7605C21.7067 20.9384 21.4849 20.1349 21.0919 19.4121C20.6988 18.6893 20.1449 18.0664 19.473 17.5915ZM17.2596 21.2662L16.0938 17.1725C16.7373 17.0811 17.3928 17.1256 18.0179 17.3033C18.6431 17.481 19.2241 17.7878 19.7233 18.204C20.2225 18.6201 20.6288 19.1364 20.9161 19.7194C21.2033 20.3024 21.3651 20.9391 21.391 21.5886L17.2596 21.2662Z" fill="black"/>
<path d="M74.9085 11.4509C78.2931 13.1217 79.3568 13.1217 83.0637 14.7602C83.1051 14.7784 83.1519 14.7796 83.1942 14.7635C83.2364 14.7474 83.2706 14.7154 83.2893 14.6743C83.3075 14.6329 83.3087 14.5861 83.2926 14.5438C83.2766 14.5016 83.2445 14.4674 83.2034 14.4486C79.5986 12.8369 78.3683 12.7778 75.0589 11.1447C75.0193 11.131 74.9761 11.1323 74.9374 11.1482C74.8986 11.1642 74.867 11.1938 74.8486 11.2314C74.8301 11.269 74.826 11.312 74.837 11.3525C74.8481 11.3929 74.8735 11.4279 74.9085 11.4509Z" fill="black"/>
<path d="M74.4629 14.5348C77.0685 15.6092 79.8675 16.6837 82.6288 17.6185C82.6723 17.6305 82.7187 17.6256 82.7586 17.6046C82.7985 17.5837 82.829 17.5483 82.8437 17.5057C82.8573 17.4636 82.8535 17.418 82.8334 17.3787C82.8132 17.3394 82.7783 17.3097 82.7363 17.2961C80.0501 16.399 77.2404 15.346 74.5972 14.2232C74.5764 14.2143 74.5541 14.2097 74.5315 14.2095C74.5088 14.2093 74.4864 14.2135 74.4655 14.222C74.4445 14.2305 74.4254 14.2431 74.4093 14.2589C74.3932 14.2748 74.3804 14.2937 74.3716 14.3145C74.3628 14.3349 74.3583 14.3569 74.3581 14.3791C74.358 14.4013 74.3623 14.4234 74.3708 14.4439C74.3793 14.4644 74.3919 14.483 74.4077 14.4986C74.4235 14.5142 74.4423 14.5265 74.4629 14.5348Z" fill="black"/>
<path d="M74.0007 17.1296C77.5142 18.3061 78.4061 19.0207 82.1452 20.353C82.1873 20.367 82.2331 20.3641 82.2731 20.3451C82.3132 20.3261 82.3443 20.2924 82.3601 20.2509C82.3757 20.2082 82.3737 20.161 82.3546 20.1197C82.3354 20.0784 82.3007 20.0464 82.258 20.0306C78.5941 18.752 77.5787 17.9945 74.1082 16.8073C74.0871 16.7997 74.0646 16.7966 74.0422 16.7979C74.0198 16.7993 73.9979 16.8052 73.9779 16.8152C73.9578 16.8252 73.94 16.8392 73.9254 16.8563C73.9109 16.8734 73.9 16.8933 73.8933 16.9147C73.8858 16.9358 73.8826 16.9583 73.884 16.9807C73.8853 17.0031 73.8912 17.025 73.9012 17.045C73.9113 17.0651 73.9253 17.0829 73.9424 17.0975C73.9595 17.112 73.9793 17.1229 74.0007 17.1296Z" fill="black"/>
<path d="M73.4904 19.8104C76.1183 21.1335 78.8559 22.2263 81.6724 23.0768C81.6935 23.0842 81.716 23.0871 81.7383 23.0854C81.7606 23.0836 81.7823 23.0772 81.802 23.0666C81.8217 23.056 81.839 23.0414 81.8528 23.0237C81.8665 23.006 81.8765 22.9857 81.8819 22.964C81.8885 22.9428 81.8908 22.9206 81.8887 22.8985C81.8866 22.8765 81.8801 22.855 81.8695 22.8355C81.859 22.816 81.8448 22.7988 81.8275 22.7849C81.8103 22.771 81.7904 22.7606 81.7691 22.7545C78.9746 21.9134 76.257 20.835 73.6462 19.5311C73.6055 19.5105 73.5584 19.5068 73.5151 19.5209C73.4718 19.535 73.4358 19.5657 73.4152 19.6063C73.4032 19.6438 73.4041 19.6843 73.4178 19.7213C73.4314 19.7582 73.4569 19.7896 73.4904 19.8104Z" fill="black"/>
<path d="M73.1198 22.7919C76.1982 23.9362 77.6809 24.8871 81.2696 26.3806C81.311 26.3969 81.3571 26.3964 81.3982 26.3794C81.4392 26.3623 81.4721 26.3301 81.4899 26.2893C81.4986 26.2689 81.5032 26.2469 81.5034 26.2247C81.5035 26.2025 81.4992 26.1805 81.4907 26.1599C81.4821 26.1394 81.4696 26.1208 81.4538 26.1052C81.438 26.0896 81.4192 26.0773 81.3986 26.069C77.4177 24.4036 76.5957 23.7213 73.238 22.475C73.2175 22.4672 73.1958 22.4635 73.1739 22.4642C73.152 22.4648 73.1305 22.4698 73.1105 22.4788C73.0906 22.4878 73.0726 22.5006 73.0576 22.5165C73.0426 22.5325 73.0309 22.5512 73.0231 22.5717C73.0072 22.6137 73.0084 22.6604 73.0265 22.7015C73.0446 22.7427 73.0781 22.7752 73.1198 22.7919Z" fill="black"/>
<path d="M68.6608 43.6416C71.7499 45.4038 73.1198 45.5649 77.3908 47.5312C77.4138 47.5424 77.439 47.5481 77.4646 47.548C77.4901 47.5479 77.5153 47.5418 77.5382 47.5304C77.561 47.519 77.5809 47.5025 77.5964 47.4821C77.6118 47.4617 77.6224 47.4381 77.6272 47.413C78.6694 42.723 78.6265 40.703 79.11 37.7428C79.6794 34.224 80.0018 34.0789 79.7439 33.9822C76.8321 32.5693 73.8075 31.2961 70.9226 30.2216C70.8994 30.2124 70.8744 30.2086 70.8495 30.2104C70.8246 30.2122 70.8005 30.2195 70.7788 30.2319C70.7571 30.2443 70.7385 30.2614 70.7244 30.2819C70.7102 30.3024 70.7008 30.3259 70.6969 30.3505C70.1597 33.7405 68.736 42.5188 68.5802 43.502C68.5817 43.53 68.5897 43.5572 68.6037 43.5815C68.6177 43.6058 68.6373 43.6264 68.6608 43.6416ZM70.9978 30.5708C73.6839 31.57 76.585 32.811 79.4699 34.2025C79.0042 36.1633 78.6615 38.1514 78.4438 40.155C78.0296 39.3516 77.5326 38.5936 76.961 37.8933C76.9354 37.8591 76.8972 37.8365 76.8549 37.8304C76.8126 37.8244 76.7696 37.8354 76.7354 37.861C75.3923 38.7904 75.3601 39.3653 74.0976 40.2463C73.895 39.3765 73.5598 38.543 73.1037 37.7751C73.0926 37.7558 73.0778 37.739 73.0601 37.7255C73.0424 37.7121 73.0222 37.7023 73.0007 37.6968C72.9791 37.6913 72.9567 37.6902 72.9348 37.6935C72.9128 37.6968 72.8917 37.7044 72.8727 37.716C71.1428 38.7904 71.0085 39.3277 69.4452 40.2249C69.9752 37.0015 70.4928 33.7834 70.9978 30.5708ZM69.3861 40.6331C71.0945 39.7199 71.2395 39.1343 72.905 38.0813C73.3395 38.8553 73.6496 39.6929 73.8236 40.5633C73.8298 40.5899 73.8422 40.6147 73.8598 40.6355C73.8774 40.6564 73.8998 40.6727 73.925 40.6832C73.9502 40.6937 73.9775 40.6981 74.0047 40.6959C74.032 40.6937 74.0583 40.6851 74.0815 40.6708C75.5105 39.7521 75.5374 39.1504 76.8053 38.2317C77.4169 39.0179 77.9445 39.8659 78.3793 40.7621C78.1505 42.903 77.8062 45.0299 77.3479 47.1337C73.3294 45.3017 71.9057 45.0814 68.9402 43.4053C69.0799 42.4812 69.2303 41.5357 69.3807 40.6331H69.3861Z" fill="black"/>
<path d="M90.2196 38.7687C86.5181 37.4578 85.3845 36.5768 81.4197 35.0081C81.3969 34.9989 81.3723 34.9949 81.3478 34.9964C81.3232 34.9979 81.2993 35.0048 81.2777 35.0166C81.2562 35.0284 81.2375 35.0448 81.223 35.0647C81.2085 35.0846 81.1987 35.1075 81.1941 35.1316C80.399 39.2468 79.6361 43.9046 79.0452 48.2938C79.0404 48.3284 79.0467 48.3637 79.0631 48.3945C79.0795 48.4254 79.1052 48.4503 79.1365 48.4657C82.3868 50.0774 83.9716 50.6147 87.8665 52.3553C87.8911 52.3654 87.9178 52.3697 87.9443 52.3678C87.9709 52.3659 87.9966 52.3579 88.0195 52.3444C88.0424 52.3308 88.0619 52.3122 88.0764 52.2898C88.0908 52.2675 88.0999 52.2421 88.1029 52.2156C88.7261 46.2255 89.5749 44.9254 90.3109 38.9514C90.3181 38.9151 90.3131 38.8775 90.2965 38.8444C90.28 38.8113 90.2529 38.7847 90.2196 38.7687ZM88.898 45.2961C88.4172 47.4861 88.0585 49.7011 87.8235 51.9309C84.5733 50.475 82.5694 49.782 79.432 48.2025C79.6469 46.5102 79.8994 44.7803 80.168 43.0289C80.9321 42.3952 81.8248 41.9351 82.7843 41.6805C83.0314 42.9806 83.4612 43.1901 83.8588 44.7159C83.866 44.745 83.8807 44.7717 83.9014 44.7934C83.9221 44.815 83.9482 44.8309 83.977 44.8394C84.1381 44.8824 84.1005 44.7857 85.0998 43.9369C85.637 43.4587 86.2226 43.0289 87.2165 42.1533C87.8786 43.0254 88.4493 43.9633 88.9195 44.9522C88.9625 45.0704 88.9786 44.9146 88.898 45.2961ZM89.0645 44.4956C88.5897 43.5458 88.021 42.6459 87.3669 41.8094C87.3531 41.7903 87.3354 41.7742 87.3151 41.7622C87.2947 41.7502 87.2721 41.7425 87.2487 41.7396C87.1251 41.7396 87.2165 41.7396 85.9916 42.7603C85.2717 43.362 84.8097 43.7112 84.1059 44.372C83.6976 42.9913 83.2786 42.7281 83.0798 41.4549C83.0759 41.4321 83.0675 41.4103 83.0551 41.3909C83.0426 41.3715 83.0264 41.3547 83.0074 41.3417C82.9883 41.3286 82.9668 41.3196 82.9442 41.315C82.9216 41.3105 82.8982 41.3105 82.8756 41.3152C81.9153 41.5361 81.0139 41.9612 80.2325 42.5616C80.5978 40.2783 81.0222 37.8017 81.4842 35.3949C85.2985 36.9152 86.3193 37.7426 89.9778 39.0427C89.7307 41.0519 89.4299 42.7711 89.0431 44.5063L89.0645 44.4956Z" fill="black"/>
<path d="M73.4634 36.2332C73.8015 36.2437 74.1331 36.1395 74.4045 35.9376C74.6758 35.7358 74.8709 35.4481 74.958 35.1213C75.0452 34.7945 75.0192 34.4478 74.8845 34.1377C74.7497 33.8275 74.5139 33.572 74.2156 33.4128C74.0163 33.293 73.7913 33.2226 73.5594 33.2073C73.3274 33.192 73.0951 33.2322 72.8818 33.3247C72.6686 33.4171 72.4804 33.5591 72.333 33.7389C72.1856 33.9187 72.0833 34.131 72.0344 34.3583C71.9656 34.5786 71.9506 34.8123 71.9907 35.0396C72.0307 35.2669 72.1246 35.4814 72.2645 35.665C72.4045 35.8485 72.5863 35.9959 72.7949 36.0948C73.0035 36.1937 73.2327 36.2411 73.4634 36.2332ZM72.3621 34.4443C72.3986 34.267 72.4771 34.1012 72.5911 33.9607C72.7051 33.8202 72.8513 33.7091 73.0172 33.637C73.1831 33.5648 73.364 33.5336 73.5445 33.546C73.725 33.5584 73.8999 33.6141 74.0544 33.7082C74.2169 33.7911 74.3582 33.9103 74.4672 34.0566C74.5762 34.2028 74.65 34.3723 74.683 34.5517C74.702 34.7117 74.689 34.8739 74.6448 35.0289C74.6005 35.1839 74.5258 35.3284 74.4251 35.4542C74.2654 35.6806 74.0304 35.8427 73.7621 35.9115C73.4938 35.9803 73.2098 35.9513 72.9609 35.8298C72.712 35.7083 72.5146 35.5021 72.4038 35.2482C72.2931 34.9943 72.2764 34.7093 72.3567 34.4443H72.3621Z" fill="black"/>
<path d="M84.439 38.2153C84.1976 37.9684 83.8774 37.8138 83.5339 37.7785C83.1904 37.7432 82.8453 37.8293 82.5587 38.0219C82.4375 38.1374 82.3429 38.278 82.2816 38.4339C82.2204 38.5898 82.194 38.7572 82.2042 38.9244C82.2042 40.4878 84.063 40.9713 84.756 40.1547C85.218 39.6067 84.9602 38.6934 84.439 38.2153ZM84.4928 39.9344C84.2852 40.1158 84.019 40.2157 83.7433 40.2157C83.4677 40.2157 83.2014 40.1158 82.9939 39.9344C82.3761 39.3972 82.3116 38.1239 83.2894 38.1239C83.6283 38.1324 83.9535 38.2598 84.208 38.4839C84.6163 38.8492 84.8259 39.5476 84.4928 39.9237V39.9344Z" fill="black"/>
</svg>
