<svg width="37" height="37" viewBox="0 0 37 37" fill="none" xmlns="http://www.w3.org/2000/svg">
<path fill-rule="evenodd" clip-rule="evenodd" d="M23.1062 4.26725C23.1062 3.61667 23.635 3.08788 24.2856 3.08788C30.2287 3.08325 33.9163 6.77092 33.9163 12.7094V24.2765C33.9163 30.2289 30.2287 33.9166 24.2902 33.9166H12.7277C6.77222 33.9166 3.08301 30.2289 3.08301 24.2765V12.714C3.08301 6.79867 6.77222 3.08325 12.7231 3.08325H16.6836C17.3265 3.08325 17.8491 3.60588 17.8491 4.24875V4.26263H17.8229C17.8229 4.91321 17.2956 5.44046 16.6451 5.442H16.642H12.7231C8.01634 5.442 5.44176 8.01659 5.44176 12.7094V24.2719C5.44176 28.9678 8.03176 31.5578 12.7231 31.5578H24.2856C28.963 31.5578 31.553 28.9678 31.553 24.2765V12.714C31.553 8.02275 28.963 5.44663 24.2856 5.44663C23.635 5.44663 23.1062 4.91784 23.1062 4.26725ZM17.3436 12.2008V21.9997L13.5403 18.1809C13.0901 17.7277 12.3594 17.7262 11.9061 18.1779C11.4513 18.628 11.4544 19.3603 11.903 19.812L17.6812 25.6149C17.6812 25.6164 17.6812 25.6164 17.6827 25.6164C17.7876 25.7228 17.9155 25.8076 18.0574 25.8662C18.1977 25.9247 18.3472 25.9556 18.4983 25.9556H18.4998C18.5106 25.9556 18.5196 25.9529 18.5287 25.9502L18.5287 25.9502C18.5366 25.9479 18.5445 25.9455 18.5538 25.9448C18.6848 25.9386 18.8159 25.917 18.9407 25.8662C19.0672 25.8137 19.1782 25.7351 19.2799 25.6442C19.2849 25.6392 19.2906 25.6358 19.2963 25.6325C19.3029 25.6285 19.3096 25.6246 19.3154 25.6179C19.4233 25.5116 19.5081 25.3836 19.5667 25.2433C19.6252 25.0999 19.6561 24.9519 19.6561 24.7993V12.2008C19.6561 11.5626 19.1381 11.0446 18.4998 11.0446C17.8616 11.0446 17.3436 11.5626 17.3436 12.2008ZM23.1264 21.7926L25.0966 19.8131C25.3217 19.5865 25.4342 19.292 25.4342 18.9976C25.4342 18.7 25.3217 18.404 25.0935 18.1759C24.6403 17.7257 23.9095 17.7272 23.4594 18.1805L21.4891 20.16C21.039 20.6132 21.039 21.344 21.4907 21.7957C21.9439 22.2459 22.6762 22.2443 23.1264 21.7926Z" fill="white"/>
</svg>
