<svg width="22" height="29" viewBox="0 0 22 29" fill="none" xmlns="http://www.w3.org/2000/svg">
<path fill-rule="evenodd" clip-rule="evenodd" d="M11.9189 5.91329C11.6269 6.2961 11.6269 6.91459 11.9209 7.2948L15.2579 11.6216L15.3349 11.709C15.6296 12.0003 16.0502 11.9699 16.3179 11.619C16.4639 11.4276 16.5369 11.1789 16.5369 10.9302C16.5369 10.6789 16.4639 10.4289 16.3159 10.2375L12.9799 5.91069L12.9028 5.82358C12.608 5.53334 12.1866 5.56357 11.9189 5.91329ZM3.40596 13.4778C3.0363 13.5381 2.75 13.9492 2.75 14.4467C2.75 14.9858 3.086 15.4233 3.5 15.4233H16.684L11.921 21.5991L11.8536 21.6988C11.629 22.0807 11.6513 22.6297 11.919 22.9806C12.211 23.3621 12.686 23.3634 12.979 22.9832L19.029 15.1382L19.0957 15.0399C19.1972 14.8681 19.25 14.6583 19.25 14.4467C19.25 14.3204 19.231 14.1941 19.193 14.0744C19.077 13.7085 18.804 13.4702 18.5 13.4702H3.5L3.40596 13.4778Z" fill="#AAAAAA"/>
</svg>
