<svg width="50" height="50" viewBox="0 0 50 50" fill="none" xmlns="http://www.w3.org/2000/svg">
<circle cx="25" cy="25" r="24.5" fill="#FF0000" stroke="white"/>
<path fill-rule="evenodd" clip-rule="evenodd" d="M37.708 24.1673C37.5211 24.352 37.268 24.4542 37.0053 24.4512V24.4283C36.4559 24.4283 36.0106 23.983 36.0106 23.4336V20.1293C36.0106 16.1618 33.8382 13.9894 29.8821 13.9894H20.1293C16.1733 13.9894 13.9894 16.1733 13.9894 20.1293V29.8821C13.9894 33.8267 16.1733 36.0106 20.1293 36.0106H29.8821C33.8382 36.0106 36.0106 33.8267 36.0106 29.8821C36.0106 29.3328 36.4559 28.8874 37.0053 28.8874C37.5546 28.8874 38 29.3328 38 29.8821C38 34.8901 34.8901 38 29.8821 38H20.1293C15.1099 38 12 34.8901 12 29.8821V20.1293C12 15.1099 15.1099 12 20.1293 12H29.8821C34.8672 12 38 15.1099 38 20.1293V23.4679C38 23.7307 37.8949 23.9825 37.708 24.1673ZM25.0457 19.6032C25.1519 19.6032 25.2563 19.6203 25.3552 19.6531C25.7708 19.7724 26.0748 20.1554 26.0748 20.6093V23.7193H29.4591C29.5755 23.7179 29.69 23.7373 29.7977 23.7752C29.95 23.8228 30.09 23.9071 30.2043 24.0227C30.389 24.2096 30.4912 24.4626 30.4882 24.7254C30.4883 25.2659 30.0568 25.7077 29.5163 25.7201H29.4477H20.6553C20.5714 25.7182 20.4901 25.7061 20.4125 25.6849C19.9655 25.5853 19.6315 25.1889 19.6262 24.714C19.6231 24.4513 19.7254 24.1982 19.9101 24.0113C20.0949 23.8245 20.3467 23.7193 20.6095 23.7193H24.0396V20.5979C24.0519 20.0493 24.497 19.6092 25.0457 19.6032ZM24.0626 29.3563V28.2129V28.0986C24.0715 27.8347 24.185 27.5852 24.378 27.4051C24.571 27.225 24.8277 27.1289 25.0916 27.1382C25.3565 27.1441 25.6078 27.2566 25.7886 27.4503C25.9694 27.644 26.0644 27.9025 26.052 28.1672V29.4249C26.0431 29.6888 25.9296 29.9383 25.7366 30.1184C25.5436 30.2986 25.2868 30.3946 25.023 30.3853C24.4763 30.3606 24.0496 29.9034 24.0626 29.3563Z" fill="white"/>
</svg>
