<svg width="46" height="46" viewBox="0 0 46 46" fill="none" xmlns="http://www.w3.org/2000/svg">
<circle cx="23" cy="23" r="23" fill="#F2F2F2"/>
<path fill-rule="evenodd" clip-rule="evenodd" d="M28.1062 9.26719C28.1062 8.61661 28.635 8.08782 29.2856 8.08782C35.2287 8.08319 38.9163 11.7709 38.9163 17.7094V29.2765C38.9163 35.2289 35.2287 38.9165 29.2902 38.9165H17.7277C11.7722 38.9165 8.08301 35.2289 8.08301 29.2765V17.714C8.08301 11.7986 11.7722 8.08319 17.7231 8.08319H21.6836C22.3265 8.08319 22.8491 8.60582 22.8491 9.24869V9.26257H22.8229C22.8229 9.91315 22.2956 10.4404 21.6451 10.4419H21.642H17.7231C13.0163 10.4419 10.4418 13.0165 10.4418 17.7094V29.2719C10.4418 33.9678 13.0318 36.5578 17.7231 36.5578H29.2856C33.963 36.5578 36.553 33.9678 36.553 29.2765V17.714C36.553 13.0227 33.963 10.4466 29.2856 10.4466C28.635 10.4466 28.1062 9.91777 28.1062 9.26719ZM22.3436 17.2008V26.9996L18.5403 23.1809C18.0901 22.7276 17.3594 22.7261 16.9061 23.1778C16.4513 23.628 16.4544 24.3603 16.903 24.812L22.6812 30.6148C22.6812 30.6163 22.6812 30.6163 22.6827 30.6163C22.7876 30.7227 22.9155 30.8075 23.0574 30.8661C23.1977 30.9247 23.3472 30.9555 23.4983 30.9555H23.4998C23.5106 30.9555 23.5196 30.9528 23.5287 30.9501L23.5287 30.9501C23.5366 30.9478 23.5445 30.9454 23.5538 30.9447C23.6848 30.9386 23.8159 30.917 23.9407 30.8661C24.0672 30.8137 24.1782 30.7351 24.2799 30.6441C24.2849 30.6391 24.2906 30.6358 24.2963 30.6324C24.3029 30.6285 24.3096 30.6245 24.3154 30.6179C24.4233 30.5115 24.5081 30.3836 24.5667 30.2433C24.6252 30.0999 24.6561 29.9519 24.6561 29.7993V17.2008C24.6561 16.5625 24.1381 16.0445 23.4998 16.0445C22.8616 16.0445 22.3436 16.5625 22.3436 17.2008ZM28.1264 26.7925L30.0966 24.813C30.3217 24.5864 30.4342 24.292 30.4342 23.9975C30.4342 23.7 30.3217 23.404 30.0935 23.1758C29.6403 22.7256 28.9095 22.7272 28.4594 23.1804L26.4891 25.1599C26.039 25.6132 26.039 26.3439 26.4907 26.7956C26.9439 27.2458 27.6762 27.2443 28.1264 26.7925Z" fill="black"/>
</svg>
