<svg width="50" height="50" viewBox="0 0 50 50" fill="none" xmlns="http://www.w3.org/2000/svg">
<path d="M49.9965 25.0009C49.9965 37.6274 40.6373 48.0661 28.4788 49.76C27.342 49.9176 26.1789 50 24.9982 50C23.6354 50 22.2972 49.8914 20.9939 49.6812C9.09123 47.7648 0 37.4435 0 25.0009C0 11.1936 11.1932 0 25 0C38.8068 0 50 11.1936 50 25.0009H49.9965Z" fill="#383D38"/>
<path d="M28.4787 20.075V25.5212H35.2156L34.1489 32.8575H28.4787V49.76C27.3418 49.9177 26.1787 50 24.9981 50C23.6353 50 22.297 49.8914 20.9937 49.6812V32.8575H14.7805V25.5212H20.9937V18.8576C20.9937 14.7234 24.3447 11.3706 28.4804 11.3706V11.3741C28.4927 11.3741 28.5032 11.3706 28.5155 11.3706H35.2174V17.7154H30.8382C29.5367 17.7154 28.4804 18.7717 28.4804 20.0733L28.4787 20.075Z" fill="white"/>
</svg>
