<svg width="52" height="52" viewBox="0 0 52 52" fill="none" xmlns="http://www.w3.org/2000/svg">
<rect width="52" height="52" rx="8" fill="#454545"/>
<path fill-rule="evenodd" clip-rule="evenodd" d="M11.9926 14.5168C11.1686 15.649 11.2262 17.0995 12.111 19.0425C12.3846 19.6453 12.119 20.3554 11.5158 20.6304C10.911 20.9039 10.2022 20.64 9.92695 20.0355C8.66772 17.2738 8.69172 14.9677 9.99735 13.1879C10.4838 12.3739 13.5414 8.83489 16.1671 9.006C16.9927 9.07476 17.7479 9.45857 18.4568 10.1494C19.212 10.8866 22.3833 14.7439 22.6377 15.964C22.911 17.2758 22.3219 18.3002 21.8916 19.0485L21.8905 19.0505C21.4664 19.7877 21.3192 20.1027 21.4648 20.5009C22.5353 23.1188 24.1897 25.2585 26.3674 26.8129C26.9066 27.1999 27.0298 27.9483 26.6442 28.4872C26.4106 28.8134 26.0426 28.9894 25.6681 28.9894C25.4249 28.9894 25.1817 28.9158 24.9705 28.7655C22.4201 26.9408 20.4872 24.4509 19.2248 21.3629C18.6696 19.8356 19.3288 18.6906 19.8104 17.8543C20.172 17.2274 20.372 16.8532 20.2872 16.4534C20.0632 15.8761 17.7239 12.7881 16.7799 11.8685C16.4887 11.5823 16.2151 11.4144 16.0119 11.3984C14.8663 11.3712 12.5238 13.6356 11.9926 14.5168ZM34.0362 27.3574C35.2618 27.6117 39.1163 30.7812 39.8539 31.5344C40.5484 32.2445 40.9324 33.0009 40.998 33.7797C41.102 36.727 37.1547 39.807 36.7019 40.0661C35.841 40.6865 34.8314 41 33.6954 41C32.5658 41 31.3113 40.6897 29.9529 40.0565C24.7288 37.888 16.8278 30.8564 12.3828 24.4037C12.0068 23.8584 12.1444 23.1116 12.6901 22.7358C13.2373 22.3647 13.9845 22.4991 14.3589 23.0444C18.511 29.0717 26.0952 35.857 30.9209 37.8624C32.873 38.7691 34.3258 38.8251 35.4074 38.0495C36.2507 37.5394 38.6459 35.1598 38.6027 33.922C38.5883 33.7765 38.4219 33.503 38.1387 33.2136C37.2171 32.2701 34.1242 29.9305 33.4778 29.6874C32.9674 29.5786 32.4362 29.8889 31.6265 30.399L31.2169 30.6533C30.6489 30.9939 29.9113 30.8132 29.5689 30.2439C29.2281 29.6778 29.4105 28.9406 29.9785 28.5983L30.3481 28.3697C31.2441 27.8052 32.481 27.0343 34.0362 27.3574Z" fill="white"/>
</svg>
