<svg width="52" height="52" viewBox="0 0 52 52" fill="none" xmlns="http://www.w3.org/2000/svg">
<rect width="52" height="52" rx="8" fill="#454545"/>
<path fill-rule="evenodd" clip-rule="evenodd" d="M37.944 15.2475C39.0478 15.3141 40.0304 15.9819 40.4973 16.9921C40.9646 18.0008 40.8469 19.1864 40.1874 20.0871L36.1716 25.5679C35.7894 26.089 35.064 26.2024 34.5451 25.8213C34.0281 25.4393 33.9178 24.7074 34.2995 24.1878L38.3158 18.7055C38.5409 18.3983 38.4415 18.101 38.3882 17.9875C38.3355 17.8725 38.1681 17.604 37.7958 17.5818L11.8683 16.0131C11.4558 15.9882 11.2621 16.2719 11.1984 16.3949C11.1361 16.5184 11.0147 16.8395 11.274 17.1641L15.1288 21.9719C15.5306 22.4734 15.4514 23.2104 14.9488 23.6172C14.6222 23.8815 14.1959 23.9411 13.8266 23.8091C13.6325 23.7396 13.4538 23.6178 13.3152 23.4439L9.46085 18.6347C8.69683 17.6823 8.57069 16.4145 9.13309 15.3251C9.69602 14.2341 10.802 13.6041 12.0185 13.6779L37.944 15.2475ZM30.4295 29.4693C30.8137 28.9473 31.5411 28.833 32.0575 29.2164C32.5744 29.5984 32.6847 30.3304 32.3025 30.8514L24.8356 41.0442C24.1127 42.0299 22.9276 42.4809 21.7415 42.2208C21.6082 42.193 21.4801 42.1555 21.3545 42.1106C20.365 41.7568 19.6418 40.925 19.4269 39.864L16.9859 27.8151C16.8801 27.2869 17.1453 26.7522 17.6311 26.5216L29.1845 21.009C29.766 20.7315 30.4579 20.9789 30.7316 21.5622C31.0054 22.1455 30.7559 22.8432 30.1744 23.1207L19.4481 28.2399L21.7072 39.3888C21.7894 39.7943 22.1071 39.9046 22.2437 39.9369C22.3785 39.9652 22.7177 39.997 22.9621 39.6636L30.4295 29.4693Z" fill="white"/>
</svg>
