<svg width="84" height="84" viewBox="0 0 84 84" fill="none" xmlns="http://www.w3.org/2000/svg">
<circle cx="42" cy="42" r="42" fill="#7D7D7D"/>
<path fill-rule="evenodd" clip-rule="evenodd" d="M52.8316 67.2109C53.8866 66.166 53.8938 64.472 52.8244 63.427L37.0117 47.9419L36.7324 47.7033C35.6636 46.9084 34.1358 46.9915 33.1655 47.9526C32.6399 48.4733 32.3716 49.158 32.3716 49.8392C32.3716 50.5239 32.6399 51.2123 33.1727 51.7329L48.9854 67.2216L49.2648 67.4602C50.3336 68.2552 51.8613 68.1721 52.8316 67.2109ZM53.0697 20.2954C53.8857 19.2466 53.799 17.7434 52.832 16.7855C51.7735 15.7405 50.0516 15.737 48.9858 16.7819L25.1761 40.1059L24.9318 40.3792C24.5613 40.8549 24.375 41.4261 24.375 41.9996C24.375 42.6808 24.6433 43.3656 25.1689 43.8862C26.2274 44.9348 27.9493 44.9383 29.0151 43.8934L52.8248 20.5694L53.0697 20.2954Z" fill="#CECECE"/>
</svg>
