<svg width="84" height="84" viewBox="0 0 84 84" fill="none" xmlns="http://www.w3.org/2000/svg">
<circle cx="42" cy="42" r="42" fill="#D1D1D1"/>
<path fill-rule="evenodd" clip-rule="evenodd" d="M31.1684 16.7891C30.1134 17.834 30.1062 19.528 31.1756 20.573L46.9883 36.0581L47.2676 36.2967C48.3364 37.0916 49.8642 37.0085 50.8345 36.0474C51.3601 35.5267 51.6284 34.842 51.6284 34.1608C51.6284 33.4761 51.3601 32.7877 50.8273 32.2671L35.0146 16.7784L34.7352 16.5398C33.6664 15.7448 32.1387 15.8279 31.1684 16.7891ZM30.9303 63.7046C30.1143 64.7534 30.201 66.2566 31.168 67.2145C32.2265 68.2595 33.9484 68.263 35.0142 67.2181L58.8239 43.8941L59.0682 43.6208C59.4387 43.1451 59.625 42.5739 59.625 42.0004C59.625 41.3192 59.3567 40.6344 58.8311 40.1138C57.7726 39.0652 56.0507 39.0617 54.9849 40.1066L31.1752 63.4306L30.9303 63.7046Z" fill="#050505"/>
</svg>
