<svg width="46" height="46" viewBox="0 0 46 46" fill="none" xmlns="http://www.w3.org/2000/svg">
<path fill-rule="evenodd" clip-rule="evenodd" d="M24.9213 9.09264C24.3108 9.71651 24.3108 10.7245 24.9255 11.3441L31.9029 18.3955L32.064 18.538C32.6801 19.0126 33.5596 18.9632 34.1192 18.3913C34.4245 18.0794 34.5772 17.6741 34.5772 17.2688C34.5772 16.8592 34.4245 16.4518 34.1151 16.1398L27.1398 9.0884L26.9787 8.94644C26.3622 8.47343 25.481 8.5227 24.9213 9.09264ZM7.12156 21.4206C6.34862 21.5188 5.75 22.1887 5.75 22.9997C5.75 23.8782 6.45255 24.5912 7.31818 24.5912H34.8847L24.9257 34.6559L24.7848 34.8185C24.3152 35.4409 24.3619 36.3355 24.9215 36.9074C25.5321 37.5291 26.5253 37.5312 27.1379 36.9116L39.7879 24.1265L39.9274 23.9664C40.1396 23.6864 40.25 23.3445 40.25 22.9997C40.25 22.7938 40.2103 22.588 40.1308 22.3928C39.8883 21.7965 39.3175 21.4082 38.6818 21.4082H7.31818L7.12156 21.4206Z" fill="#AAAAAA"/>
</svg>
