<svg width="32" height="32" viewBox="0 0 32 32" fill="none" xmlns="http://www.w3.org/2000/svg">
<path fill-rule="evenodd" clip-rule="evenodd" d="M2.9926 5.51678C2.16858 6.649 2.22618 8.09945 3.111 10.0425C3.38461 10.6453 3.119 11.3554 2.51579 11.6304C1.91097 11.9039 1.20216 11.64 0.926949 11.0355C-0.332283 8.27376 -0.308282 5.96774 0.997351 4.18786C1.48376 3.37387 4.54144 -0.165112 7.16711 0.00600024C7.99273 0.074765 8.74795 0.458568 9.45677 1.14941C10.212 1.88664 13.3833 5.74386 13.6377 6.96403C13.911 8.27582 13.3219 9.30025 12.8916 10.0485L12.8905 10.0505C12.4664 10.7877 12.3192 11.1027 12.4648 11.5009C13.5353 14.1188 15.1897 16.2585 17.3674 17.8129C17.9066 18.1999 18.0298 18.9483 17.6442 19.4872C17.4106 19.8134 17.0426 19.9894 16.6681 19.9894C16.4249 19.9894 16.1817 19.9158 15.9705 19.7655C13.4201 17.9408 11.4872 15.4509 10.2248 12.3629C9.66957 10.8356 10.3288 9.69064 10.8104 8.85427C11.172 8.22739 11.372 7.85318 11.2872 7.45338C11.0632 6.87608 8.72395 3.78806 7.77992 2.86853C7.48872 2.58228 7.21511 2.41437 7.0119 2.39837C5.86627 2.37119 3.52382 4.63563 2.9926 5.51678ZM25.0362 18.3574C26.2618 18.6117 30.1163 21.7812 30.8539 22.5344C31.5484 23.2445 31.9324 24.0009 31.998 24.7797C32.102 27.727 28.1547 30.807 27.7019 31.0661C26.841 31.6865 25.8314 32 24.6954 32C23.5658 32 22.3113 31.6897 20.9529 31.0565C15.7288 28.888 7.82776 21.8564 3.38285 15.4037C3.00684 14.8584 3.14444 14.1116 3.69006 13.7358C4.23727 13.3647 4.98449 13.4991 5.3589 14.0444C9.511 20.0717 17.0952 26.857 21.9209 28.8624C23.873 29.7691 25.3258 29.8251 26.4074 29.0495C27.2507 28.5394 29.6459 26.1598 29.6027 24.922C29.5883 24.7765 29.4219 24.503 29.1387 24.2136C28.2171 23.2701 25.1242 20.9305 24.4778 20.6874C23.9674 20.5786 23.4362 20.8889 22.6265 21.399L22.2169 21.6533C21.6489 21.9939 20.9113 21.8132 20.5689 21.2439C20.2281 20.6778 20.4105 19.9406 20.9785 19.5983L21.3481 19.3697C22.2441 18.8052 23.481 18.0343 25.0362 18.3574Z" fill="white"/>
</svg>
