<svg width="40" height="40" viewBox="0 0 40 40" fill="none" xmlns="http://www.w3.org/2000/svg">
<path fill-rule="evenodd" clip-rule="evenodd" d="M35.944 9.2475C37.0478 9.31415 38.0304 9.98195 38.4973 10.9921C38.9646 12.0008 38.8469 13.1864 38.1874 14.0871L34.1716 19.5679C33.7894 20.089 33.064 20.2024 32.5451 19.8213C32.0281 19.4393 31.9178 18.7074 32.2995 18.1878L36.3158 12.7055C36.5409 12.3983 36.4415 12.101 36.3882 11.9875C36.3355 11.8725 36.1681 11.604 35.7958 11.5818L9.86827 10.0131C9.45575 9.98824 9.26214 10.2719 9.19841 10.3949C9.13613 10.5184 9.01475 10.8395 9.27399 11.1641L13.1288 15.9719C13.5306 16.4734 13.4514 17.2104 12.9488 17.6172C12.6222 17.8815 12.1959 17.9411 11.8266 17.8091C11.6325 17.7396 11.4538 17.6178 11.3152 17.4439L7.46085 12.6347C6.69683 11.6823 6.57069 10.4145 7.13309 9.32507C7.69602 8.23412 8.802 7.60407 10.0185 7.67787L35.944 9.2475ZM28.4295 23.4693C28.8137 22.9473 29.5411 22.833 30.0575 23.2164C30.5744 23.5984 30.6847 24.3304 30.3025 24.8514L22.8356 35.0442C22.1127 36.0299 20.9276 36.4809 19.7415 36.2208C19.6082 36.193 19.4801 36.1555 19.3545 36.1106C18.365 35.7568 17.6418 34.925 17.4269 33.864L14.9859 21.8151C14.8801 21.2869 15.1453 20.7522 15.6311 20.5216L27.1845 15.009C27.766 14.7315 28.4579 14.9789 28.7316 15.5622C29.0054 16.1455 28.7559 16.8432 28.1744 17.1207L17.4481 22.2399L19.7072 33.3888C19.7894 33.7943 20.1071 33.9046 20.2437 33.9369C20.3785 33.9652 20.7177 33.997 20.9621 33.6636L28.4295 23.4693Z" fill="white"/>
</svg>
