<svg width="28" height="28" viewBox="0 0 28 28" fill="none" xmlns="http://www.w3.org/2000/svg">
<path fill-rule="evenodd" clip-rule="evenodd" d="M0 14C0 6.27901 6.2804 0 14 0C21.7196 0 28 6.27901 28 14C28 21.7196 21.7196 28 14 28C9.6222 28 5.5762 26.0078 2.9022 22.5372C2.5592 22.0906 2.6418 21.4508 3.0884 21.1092C3.5322 20.7648 4.1706 20.8502 4.515 21.294C6.8012 24.262 10.2578 25.9644 14 25.9644C20.5968 25.9644 25.9644 20.5982 25.9644 14C25.9644 7.4032 20.5968 2.0356 14 2.0356C7.4032 2.0356 2.0356 7.4032 2.0356 14C2.0356 14.6132 2.0818 15.2222 2.1728 15.8186C2.2568 16.373 1.876 16.8924 1.3202 16.9778C0.7616 17.0702 0.245 16.6824 0.161 16.1266C0.0546 15.4294 0 14.714 0 14ZM14 7.63574C13.4204 7.63574 12.95 8.10614 12.95 8.68575V14.8737C12.95 15.4533 13.4204 15.9237 14 15.9237C14.5796 15.9237 15.05 15.4533 15.05 14.8737V8.68575C15.05 8.10614 14.5796 7.63574 14 7.63574ZM14.0142 18.2642H14.0002C13.4206 18.2642 12.9572 18.7346 12.9572 19.3142C12.9572 19.8938 13.4346 20.3642 14.0142 20.3642C14.5938 20.3642 15.0642 19.8938 15.0642 19.3142C15.0642 18.7346 14.5938 18.2642 14.0142 18.2642Z" fill="white"/>
</svg>
