<svg width="34" height="34" viewBox="0 0 34 34" fill="none" xmlns="http://www.w3.org/2000/svg">
<circle cx="17" cy="17" r="17" fill="white"/>
<path fill-rule="evenodd" clip-rule="evenodd" d="M13.6579 6.55399H20.4213H20.4741C20.8898 6.54443 21.2217 6.20464 21.2216 5.78882C21.224 5.5867 21.1453 5.39204 21.0032 5.24829C20.8611 5.10453 20.6674 5.02364 20.4653 5.02365H17.8267V2.62259C17.8267 2.2 17.4842 1.85742 17.0616 1.85742C16.639 1.85742 16.2964 2.2 16.2964 2.62259V5.02365H13.6579C13.2401 5.02365 12.9015 5.36229 12.9015 5.78003C12.9014 6.2007 13.2373 6.54443 13.6579 6.55399ZM16.2788 19.351V18.4715V18.3835C16.2857 18.1806 16.373 17.9887 16.5215 17.8501C16.6699 17.7115 16.8674 17.6376 17.0704 17.6448C17.2742 17.6493 17.4675 17.7358 17.6066 17.8849C17.7456 18.0339 17.8187 18.2327 17.8092 18.4363V19.4038C17.8023 19.6068 17.715 19.7987 17.5665 19.9372C17.418 20.0758 17.2206 20.1497 17.0176 20.1426C16.597 20.1235 16.2688 19.7719 16.2788 19.351ZM21.1953 15.78C21.1976 15.5764 21.1178 15.3804 20.9738 15.2363C20.8298 15.0923 20.6337 15.0125 20.4301 15.0149H17.7916V12.6226C17.7963 12.419 17.7187 12.222 17.5763 12.0764C17.434 11.9307 17.2389 11.8486 17.0352 11.8486C16.6131 11.8533 16.2707 12.1918 16.2612 12.6138V15.0149H13.6227C13.4206 15.0148 13.2268 15.0957 13.0847 15.2395C12.9426 15.3833 12.864 15.5779 12.8663 15.78C12.871 16.1973 13.2055 16.5357 13.6227 16.5452H20.3861C20.5906 16.5476 20.7875 16.468 20.9329 16.3242C21.0783 16.1805 21.1601 15.9845 21.1601 15.78H21.1953ZM26.7754 16.3594C26.6316 16.5015 26.437 16.5802 26.2348 16.5778V16.5602C25.8122 16.5602 25.4697 16.2177 25.4697 15.7951V13.2533C25.4697 10.2014 23.7986 8.53034 20.7555 8.53034H13.2533C10.2102 8.53034 8.53034 10.2102 8.53034 13.2533V20.7555C8.53034 23.7898 10.2102 25.4697 13.2533 25.4697H20.7555C23.7986 25.4697 25.4697 23.7898 25.4697 20.7555C25.4697 20.3329 25.8122 19.9903 26.2348 19.9903C26.6574 19.9903 27 20.3329 27 20.7555C27 24.6077 24.6077 27 20.7555 27H13.2533C9.39226 27 7 24.6077 7 20.7555V13.2533C7 9.39226 9.39226 7 13.2533 7H20.7555C24.5901 7 27 9.39226 27 13.2533V15.8215C27 16.0236 26.9191 16.2173 26.7754 16.3594Z" fill="#6C6C6C"/>
</svg>
