<svg width="20" height="20" viewBox="0 0 20 20" fill="none" xmlns="http://www.w3.org/2000/svg">
<path fill-rule="evenodd" clip-rule="evenodd" d="M19.7754 9.35943C19.6316 9.50154 19.437 9.58019 19.2348 9.57784V9.56025C18.8122 9.56025 18.4697 9.21767 18.4697 8.79507V6.2533C18.4697 3.20141 16.7986 1.53034 13.7555 1.53034H6.2533C3.2102 1.53034 1.53034 3.2102 1.53034 6.2533V13.7555C1.53034 16.7898 3.2102 18.4697 6.2533 18.4697H13.7555C16.7986 18.4697 18.4697 16.7898 18.4697 13.7555C18.4697 13.3329 18.8122 12.9903 19.2348 12.9903C19.6574 12.9903 20 13.3329 20 13.7555C20 17.6077 17.6077 20 13.7555 20H6.2533C2.39226 20 0 17.6077 0 13.7555V6.2533C0 2.39226 2.39226 0 6.2533 0H13.7555C17.5901 0 20 2.39226 20 6.2533V8.82146C20 9.0236 19.9191 9.21733 19.7754 9.35943ZM10.0352 5.84863C10.1175 5.84861 10.1983 5.86199 10.2749 5.88756C10.5937 5.97992 10.8267 6.27404 10.8267 6.62259V9.01486H13.4301C13.5203 9.0138 13.609 9.02888 13.6924 9.05853C13.8088 9.09519 13.9158 9.15984 14.0032 9.24829C14.1453 9.39204 14.224 9.5867 14.2216 9.78882C14.2217 10.2046 13.8898 10.5444 13.4741 10.554H13.4213H6.65787C6.59283 10.5525 6.52982 10.543 6.46976 10.5265C6.12661 10.4494 5.87037 10.1448 5.86631 9.78003C5.86396 9.57791 5.94262 9.38325 6.08472 9.2395C6.22682 9.09574 6.42055 9.01485 6.62269 9.01486H9.26121V6.6138C9.27067 6.19178 9.61307 5.85327 10.0352 5.84863ZM9.2788 13.351V12.4715V12.3835C9.28568 12.1806 9.37297 11.9886 9.52145 11.8501C9.66992 11.7115 9.86739 11.6376 10.0704 11.6448C10.2741 11.6493 10.4675 11.7358 10.6066 11.8849C10.7456 12.0339 10.8187 12.2327 10.8091 12.4363V13.4038C10.8023 13.6067 10.715 13.7987 10.5665 13.9372C10.418 14.0758 10.2206 14.1497 10.0176 14.1426C9.59704 14.1235 9.26881 13.7719 9.2788 13.351Z" fill="white"/>
</svg>
