<svg width="228" height="41" viewBox="0 0 228 41" fill="none" xmlns="http://www.w3.org/2000/svg">
<path d="M23.0258 0.118164V20.8121C23.0258 21.7582 22.3153 22.4677 21.3679 22.4677H18.881C18.7626 22.4677 18.6442 22.5859 18.6442 22.7042V40.0871C19.2363 40.0871 19.8284 40.2054 20.5389 40.2054C31.6706 40.2054 40.6707 31.2183 40.6707 20.1026C40.6707 9.81477 32.9732 1.30068 23.0258 0.118164ZM22.5521 31.1C21.1311 31.1 20.0653 29.9175 20.0653 28.6167C20.0653 27.1977 21.2495 26.1335 22.5521 26.1335C23.9732 26.1335 25.039 27.316 25.039 28.6167C25.1574 29.9175 23.9732 31.1 22.5521 31.1ZM28.4732 31.1C27.0522 31.1 25.9864 29.9175 25.9864 28.6167C25.9864 27.1977 27.1706 26.1335 28.4732 26.1335C29.8943 26.1335 30.9601 27.316 30.9601 28.6167C30.9601 29.9175 29.8943 31.1 28.4732 31.1ZM34.3943 31.1C32.9733 31.1 31.9074 29.9175 31.9074 28.6167C31.9074 27.1977 33.0917 26.1335 34.3943 26.1335C35.8154 26.1335 36.8812 27.316 36.8812 28.6167C36.8812 29.9175 35.8154 31.1 34.3943 31.1Z" fill="#6C6C6C"/>
<path d="M20.539 0C9.4073 0 0.407227 8.9871 0.407227 20.1027C0.407227 29.7993 7.15728 37.8404 16.2758 39.7324V21.64C16.2758 20.8122 16.9863 20.1027 17.8153 19.9845H20.3021C20.4205 19.9845 20.539 19.8662 20.539 19.748V0ZM16.631 16.5552C15.21 16.5552 14.1442 15.3727 14.1442 14.0719C14.1442 12.6529 15.3284 11.5886 16.631 11.5886C18.0521 11.5886 19.1179 12.7711 19.1179 14.0719C19.1179 15.3727 18.0521 16.5552 16.631 16.5552ZM211.909 18.5655V10.9974H206.817V31.1001H211.909V22.9408H222.093V31.1001H227.067V10.9974H222.093V18.5655H211.909ZM138.25 13.2441C137.421 11.4704 135.764 10.5244 134.106 10.5244C132.448 10.5244 130.79 11.4704 129.961 13.2441L121.79 31.1001H127.119L128.895 26.843H139.316L141.092 31.1001H146.421L138.25 13.2441ZM130.553 22.8225L133.632 15.4909C133.75 15.2544 133.869 15.2544 133.987 15.2544C134.106 15.2544 134.342 15.2544 134.342 15.4909L137.421 22.8225H130.553ZM78.3289 7.33158C75.9604 7.33158 74.4209 8.63235 73.3551 11.1156L66.8419 26.2518L60.3287 11.1156C59.2629 8.63235 57.7234 7.33158 55.355 7.33158C53.105 7.33158 50.855 8.86885 50.855 12.2981V30.9818H55.8287V12.8894L62.4603 27.9073C63.2893 30.0358 64.8288 31.3366 66.8419 31.3366C68.9735 31.3366 70.3946 30.0358 71.2236 27.9073L77.8552 12.8894V31.1001H82.8289V12.4164C82.8289 8.9871 80.5789 7.33158 78.3289 7.33158ZM91.7105 26.843C91.4737 26.843 91.2369 26.6065 91.2369 26.37V22.8225H103.79V18.6837H91.2369V15.6092C91.2369 15.3727 91.4737 15.1362 91.7105 15.1362H104.145V10.8791H89.2237C87.4474 10.8791 86.2631 12.2981 86.2631 13.8354V27.9073C86.2631 29.4446 87.5658 30.8636 89.2237 30.8636H104.145V26.6065H91.7105V26.843ZM112.553 31.1001V15.7274C112.553 15.4909 112.79 15.2544 113.026 15.2544H125.461V10.9974H110.54C108.763 10.9974 107.579 12.4164 107.579 13.9537V30.9818H112.553V31.1001ZM203.501 21.0487C203.501 14.0719 200.422 10.7609 192.843 10.7609H191.067C183.488 10.7609 180.409 14.0719 180.409 21.0487C180.409 27.9073 183.488 31.3366 191.067 31.3366H192.724C200.422 31.2183 203.501 27.9073 203.501 21.0487ZM192.724 27.0796H191.067C186.922 27.0796 185.264 25.1875 185.264 21.0487C185.264 17.0282 186.685 15.0179 191.067 15.0179H192.724C196.988 15.0179 198.527 17.0282 198.527 21.0487C198.527 25.1875 196.988 27.0796 192.724 27.0796ZM166.435 7.80459H156.487C149.027 7.80459 146.066 11.5886 146.066 18.0924C146.066 19.1567 146.185 20.1027 146.303 20.9305C147.132 25.5423 149.856 28.3803 156.843 28.3803H159.093V30.9818H164.066V28.3803H166.198C173.185 28.3803 175.909 25.5423 176.738 20.9305C176.856 20.1027 176.974 19.1567 176.974 18.0924C176.856 11.5886 173.777 7.80459 166.435 7.80459ZM158.856 24.2415H156.606C153.172 24.2415 151.987 22.9408 151.277 20.9305C151.04 20.221 151.04 19.1567 151.04 18.0924C151.04 13.8354 153.053 12.0616 155.895 12.0616H158.974V24.2415H158.856ZM171.645 21.0487C170.935 23.059 169.632 24.3598 166.316 24.3598H164.066V12.0616H167.145C169.987 12.0616 172.001 13.8354 172.001 18.0924C171.882 19.275 171.882 20.221 171.645 21.0487Z" fill="#6C6C6C"/>
</svg>
