<svg width="10" height="17" viewBox="0 0 10 17" fill="none" xmlns="http://www.w3.org/2000/svg">
<path fill-rule="evenodd" clip-rule="evenodd" d="M0.259358 0.257963C-0.0855137 0.599578 -0.087884 1.15339 0.261728 1.49501L5.43124 6.55744L5.52257 6.63543C5.87199 6.89532 6.37144 6.86816 6.68866 6.55394C6.86051 6.38372 6.9482 6.15986 6.9482 5.93717C6.9482 5.71331 6.8605 5.48829 6.68629 5.31806L1.51678 0.254465L1.42545 0.17647C1.07603 -0.0834171 0.576576 -0.0562527 0.259358 0.257963ZM0.181541 15.5958C-0.085222 15.9387 -0.056886 16.4301 0.259246 16.7433C0.605303 17.0849 1.16824 17.086 1.51666 16.7444L9.30057 9.1193L9.38046 9.02997C9.50158 8.87443 9.56248 8.68772 9.56248 8.5002C9.56248 8.27751 9.47478 8.05365 9.30294 7.88343C8.95688 7.54065 8.39394 7.53948 8.04552 7.88109L0.261616 15.5062L0.181541 15.5958Z" fill="#6C6C6C"/>
</svg>
