<svg width="31" height="31" viewBox="0 0 31 31" fill="none" xmlns="http://www.w3.org/2000/svg">
<path fill-rule="evenodd" clip-rule="evenodd" d="M18.0054 1.02404C18.0769 0.39247 18.6417 -0.0720118 19.2673 0.00923427C25.4747 0.702125 30.2969 5.55236 30.9926 11.8022C31.0641 12.4337 30.612 13.004 29.9864 13.073C29.9423 13.0776 29.8996 13.0806 29.857 13.0806C29.2847 13.0806 28.79 12.6468 28.7245 12.0597C28.1461 6.88449 24.155 2.86818 19.0146 2.29332C18.3875 2.22281 17.9369 1.65562 18.0054 1.02404ZM2.84638 5.61417C2.06246 6.69949 2.11726 8.0914 2.95902 9.95393C3.21931 10.5319 2.96663 11.2125 2.39277 11.4761C1.82044 11.7398 1.14155 11.4838 0.881257 10.9059C-0.31517 8.2585 -0.29386 6.04799 0.948232 4.34029C1.21005 3.89574 4.10674 0.152286 6.81773 0.331641C7.60164 0.396025 8.32011 0.765464 8.99595 1.42923C9.7129 2.13285 12.7314 5.82878 12.9734 7.00301C13.2335 8.26046 12.673 9.24246 12.2636 9.95972L12.2625 9.9616C11.8592 10.6683 11.7191 10.9703 11.8576 11.352C12.8775 13.8629 14.4514 15.9125 16.52 17.401C17.033 17.7719 17.1517 18.4878 16.7849 19.006C16.5627 19.3187 16.2126 19.4873 15.8564 19.4873C15.6265 19.4873 15.3936 19.4183 15.1927 19.2727C12.7679 17.5267 10.9291 15.1414 9.7266 12.1782C9.1984 10.7143 9.82554 9.61668 10.2837 8.81495C10.6277 8.21404 10.818 7.85533 10.7373 7.47209C10.5242 6.9187 8.29728 3.95552 7.40072 3.07561C7.12368 2.80121 6.86339 2.64025 6.67008 2.62493C5.64413 2.5774 3.35174 4.77105 2.84638 5.61417ZM20.3134 18.8897C21.1659 18.3501 22.3349 17.6159 23.819 17.924C24.9835 18.1662 28.6519 21.206 29.3521 21.9296C30.0112 22.6071 30.378 23.3307 30.4404 24.0818C30.5394 26.904 26.7827 29.8564 26.3534 30.1048C25.533 30.6995 24.5725 31 23.4933 31C22.4186 31 21.2252 30.7026 19.9329 30.0986C14.9615 28.0169 7.44348 21.2765 3.21793 15.0911C2.86022 14.5699 2.99113 13.854 3.51019 13.4922C4.02925 13.1366 4.74162 13.2638 5.09781 13.7896C9.0448 19.5642 16.2599 26.07 20.8523 27.9939C22.7109 28.8615 24.0945 28.9152 25.122 28.1732C25.9226 27.6827 28.2029 25.4032 28.1618 24.2167C28.1481 24.0772 27.9898 23.8151 27.7203 23.5361C26.8436 22.6317 23.9027 20.3905 23.2878 20.1575C22.7976 20.0578 22.2984 20.3491 21.5297 20.835L21.1339 21.0834C20.5935 21.4099 19.8903 21.2321 19.5676 20.6909C19.2418 20.1452 19.4169 19.4385 19.9573 19.112L20.3134 18.8897ZM23.3455 12.1651C23.452 12.7139 23.93 13.094 24.4643 13.094C24.5373 13.094 24.6119 13.0879 24.685 13.0741C25.3045 12.953 25.7079 12.3475 25.5876 11.7251C24.9696 8.53658 22.525 6.07468 19.3589 5.45383C18.7485 5.34806 18.1412 5.74049 18.0194 6.36287C17.8991 6.98524 18.304 7.59076 18.922 7.71186C21.1703 8.15181 22.9071 9.89937 23.3455 12.1651Z" fill="#6C6C6C"/>
</svg>
