<svg width="31" height="39" viewBox="0 0 31 39" fill="none" xmlns="http://www.w3.org/2000/svg">
<path fill-rule="evenodd" clip-rule="evenodd" d="M7.86305 10.44C7.86305 6.22812 11.2886 2.80205 15.5 2.80205C19.7113 2.80205 23.1369 6.22812 23.1369 10.44C23.1369 14.65 19.7113 18.076 15.5 18.076C11.2886 18.076 7.86305 14.65 7.86305 10.44ZM5.06134 10.44C5.06134 16.1943 9.74448 20.8781 15.5 20.8781C21.2554 20.8781 25.9366 16.1943 25.9366 10.44C25.9366 4.68378 21.2554 0 15.5 0C9.74448 0 5.06134 4.68378 5.06134 10.44ZM13.5191 38.9707C14.1684 38.9902 14.8293 39 15.5 39C22.1543 39 31 38.2571 31 31.8437C31 24.6464 19.3331 24.6464 15.5 24.6464C8.84572 24.6464 0 25.3893 0 31.8047C0 33.7254 0.892956 36.3169 5.14717 37.7579C5.8822 38.0114 6.67377 37.6116 6.92333 36.8804C7.17094 36.1492 6.77906 35.3555 6.04597 35.1079C3.13509 34.1212 2.79975 32.7504 2.79975 31.8047C2.79975 28.9129 7.07346 27.4465 15.5 27.4465C23.9265 27.4465 28.2003 28.9266 28.2003 31.8437C28.2003 34.7335 23.9265 36.1979 15.5 36.1979C14.8566 36.1979 14.223 36.1901 13.5991 36.1726C12.8504 36.1784 12.1836 36.7595 12.1621 37.5317C12.1387 38.3058 12.747 38.9513 13.5191 38.9707Z" fill="#6C6C6C"/>
</svg>
