<svg width="30" height="35" viewBox="0 0 30 35" fill="none" xmlns="http://www.w3.org/2000/svg">
<path fill-rule="evenodd" clip-rule="evenodd" d="M20.5469 0.428118L29.3854 9.7234C29.6192 9.97005 29.75 10.2977 29.75 10.6395V27.0261C29.75 31.4218 26.245 35 21.9339 35H7.99754C3.43699 35 0 31.5715 0 27.0261V22.611C0 21.8816 0.586207 21.2896 1.3085 21.2896C2.03079 21.2896 2.617 21.8816 2.617 22.611V27.0261C2.617 30.1145 4.87982 32.3573 7.99754 32.3573H21.9339C24.8021 32.3573 27.133 29.9648 27.133 27.0261V11.1698L20.4527 4.14553V6.44997C20.4527 8.21882 21.8781 9.65997 23.6297 9.6635C24.352 9.66526 24.9365 10.2572 24.9347 10.9884C24.933 11.716 24.3485 12.3062 23.6262 12.3062H23.6245C20.4335 12.2992 17.8357 9.67231 17.8357 6.44997V2.66385H7.99754C5.08046 2.66385 2.617 5.06695 2.617 7.91226V15.4281C2.617 16.1575 2.03079 16.7495 1.3085 16.7495C0.586207 16.7495 0 16.1575 0 15.4281V7.91226C0 3.6346 3.66205 0.0211417 7.99754 0.0211417H19.043C19.0598 0.0195296 19.0751 0.0149673 19.0901 0.0104918C19.1079 0.00518491 19.1253 0 19.1442 0C19.1646 0 19.1829 0.0054696 19.201 0.0109232C19.2155 0.0152573 19.2299 0.0195813 19.2454 0.0211417H19.603C19.959 0.0211417 20.2992 0.167371 20.5469 0.428118ZM13.2472 14.9124C13.2472 14.183 13.8334 13.5911 14.5557 13.5911C15.278 13.5911 15.8642 14.183 15.8642 14.9124V17.9093H18.8319C19.5542 17.9093 20.1404 18.5012 20.1404 19.2306C20.1404 19.96 19.5542 20.552 18.8319 20.552H15.8642V23.547C15.8642 24.2764 15.278 24.8684 14.5557 24.8684C13.8334 24.8684 13.2472 24.2764 13.2472 23.547V20.552H10.2813C9.55902 20.552 8.97281 19.96 8.97281 19.2306C8.97281 18.5012 9.55902 17.9093 10.2813 17.9093H13.2472V14.9124Z" fill="#6C6C6C"/>
</svg>
