<svg width="62" height="62" viewBox="0 0 62 62" fill="none" xmlns="http://www.w3.org/2000/svg">
<rect width="62" height="62" rx="10" fill="white"/>
<path d="M31.0588 5.16666H30.9412C16.7063 5.16666 5.16666 16.7063 5.16666 30.9412V31.0588C5.16666 45.2937 16.7063 56.8333 30.9412 56.8333H31.0588C45.2937 56.8333 56.8333 45.2937 56.8333 31.0588V30.9412C56.8333 16.7063 45.2937 5.16666 31.0588 5.16666Z" fill="#383D38"/>
<path d="M43.4889 23.8581V28.7364C42.6364 28.6532 41.5285 28.4595 40.3031 28.0106C38.7029 27.4241 37.5119 26.6222 36.7317 26.0013V35.8611L36.7118 35.8303C36.7245 36.0258 36.7317 36.225 36.7317 36.4259C36.7317 41.3223 32.7476 45.3082 27.8494 45.3082C22.9511 45.3082 18.967 41.3223 18.967 36.4259C18.967 31.5295 22.9511 27.5417 27.8494 27.5417C28.3291 27.5417 28.7997 27.5798 29.2595 27.654V32.4617C28.8178 32.3042 28.3435 32.2191 27.8494 32.2191C25.5306 32.2191 23.6426 34.1053 23.6426 36.4259C23.6426 38.7465 25.5306 40.6326 27.8494 40.6326C30.1682 40.6326 32.0561 38.7447 32.0561 36.4259C32.0561 36.339 32.0543 36.2521 32.0489 36.1652V17.0049H36.9236C36.9417 17.4177 36.958 17.834 36.9761 18.2467C37.0087 19.0595 37.2983 19.8396 37.8033 20.4786C38.3952 21.2298 39.2695 22.1023 40.4968 22.7992C41.6462 23.449 42.7251 23.7296 43.4889 23.8617V23.8581Z" fill="white"/>
</svg>
