<svg width="78" height="78" viewBox="0 0 78 78" fill="none" xmlns="http://www.w3.org/2000/svg">
<path fill-rule="evenodd" clip-rule="evenodd" d="M25.1684 13.7891C24.1134 14.834 24.1062 16.528 25.1756 17.573L40.9883 33.0581L41.2676 33.2967C42.3364 34.0916 43.8642 34.0085 44.8345 33.0474C45.3601 32.5267 45.6284 31.842 45.6284 31.1608C45.6284 30.4761 45.3601 29.7877 44.8273 29.2671L29.0146 13.7784L28.7352 13.5398C27.6664 12.7448 26.1387 12.8279 25.1684 13.7891ZM24.9303 60.7046C24.1143 61.7534 24.201 63.2566 25.168 64.2145C26.2265 65.2595 27.9484 65.263 29.0142 64.2181L52.8239 40.8941L53.0682 40.6208C53.4387 40.1451 53.625 39.5739 53.625 39.0004C53.625 38.3192 53.3567 37.6344 52.8311 37.1138C51.7726 36.0652 50.0507 36.0617 48.9849 37.1066L25.1752 60.4306L24.9303 60.7046Z" fill="white"/>
</svg>
