<svg width="42" height="42" viewBox="0 0 42 42" fill="none" xmlns="http://www.w3.org/2000/svg">
<circle cx="21" cy="21" r="21" fill="#D1D1D1"/>
<path fill-rule="evenodd" clip-rule="evenodd" d="M15.5841 8.89453C15.0567 9.417 15.053 10.264 15.5877 10.7865L23.4941 18.529L23.6337 18.6483C24.1681 19.0458 24.932 19.0043 25.4172 18.5237C25.68 18.2634 25.8141 17.921 25.8141 17.5804C25.8141 17.238 25.68 16.8939 25.4136 16.6335L17.5072 8.88918L17.3675 8.7699C16.8331 8.37242 16.0693 8.41397 15.5841 8.89453ZM15.4652 32.3523C15.0572 32.8767 15.1005 33.6283 15.584 34.1073C16.1133 34.6297 16.9742 34.6315 17.5071 34.109L29.4119 22.447L29.5341 22.3104C29.7194 22.0725 29.8125 21.787 29.8125 21.5002C29.8125 21.1596 29.6784 20.8172 29.4156 20.5569C28.8863 20.0326 28.0253 20.0308 27.4924 20.5533L15.5876 32.2153L15.4652 32.3523Z" fill="#050505"/>
</svg>
