<svg width="42" height="42" viewBox="0 0 42 42" fill="none" xmlns="http://www.w3.org/2000/svg">
<circle cx="21" cy="21" r="21" fill="#7D7D7D"/>
<path fill-rule="evenodd" clip-rule="evenodd" d="M26.4159 34.1055C26.9433 33.583 26.947 32.736 26.4123 32.2135L18.5059 24.471L18.3663 24.3517C17.8319 23.9542 17.068 23.9957 16.5828 24.4763C16.32 24.7366 16.1859 25.079 16.1859 25.4196C16.1859 25.762 16.32 26.1061 16.5864 26.3665L24.4928 34.1108L24.6325 34.2301C25.1669 34.6276 25.9307 34.586 26.4159 34.1055ZM26.5348 10.6477C26.9428 10.1233 26.8995 9.37167 26.416 8.89274C25.8867 8.37027 25.0258 8.36849 24.4929 8.89096L12.5881 20.553L12.4659 20.6896C12.2806 20.9275 12.1875 21.213 12.1875 21.4998C12.1875 21.8404 12.3216 22.1828 12.5844 22.4431C13.1137 22.9674 13.9747 22.9692 14.5076 22.4467L26.4124 10.7847L26.5348 10.6477Z" fill="#CECECE"/>
</svg>
