<svg width="81" height="81" viewBox="0 0 81 81" fill="none" xmlns="http://www.w3.org/2000/svg">
<path fill-rule="evenodd" clip-rule="evenodd" d="M0 40.5C0 18.1642 18.1683 0 40.5 0C62.8317 0 81 18.1642 81 40.5C81 62.8317 62.8317 81 40.5 81C34.8503 81 29.3828 79.862 24.2474 77.6061C22.7651 76.9581 22.0928 75.2288 22.7407 73.7465C23.3888 72.256 25.114 71.5878 26.6045 72.2398C30.9906 74.1636 35.6643 75.1396 40.5 75.1396C59.5958 75.1396 75.1356 59.5958 75.1356 40.5C75.1356 21.4002 59.5958 5.86441 40.5 5.86441C21.4002 5.86441 5.8644 21.4002 5.8644 40.5C5.8644 47.9803 8.2053 55.0962 12.6441 61.0902C13.604 62.3903 13.3326 64.2249 12.0326 65.1888C10.7285 66.1568 8.8938 65.8894 7.9299 64.5772C2.74185 57.5748 0 49.248 0 40.5ZM35.7213 56.5762H35.8671C37.0538 56.5478 39.5081 55.5272 39.5324 55.515C43.6553 53.7776 51.816 48.4154 55.1127 44.8676L55.3112 44.657C55.7162 44.2277 56.3196 43.5594 56.4614 43.3691C57.0689 42.5308 57.3929 41.5345 57.3929 40.5017C57.3929 39.4123 57.0243 38.339 56.348 37.4763C56.2386 37.3387 55.7688 36.8284 55.3881 36.4274L55.0682 36.0832C51.8606 32.6609 43.5095 27.0273 39.1233 25.3264C38.4551 25.0631 36.8027 24.4475 35.8995 24.4232C35.0409 24.411 34.2107 24.5933 33.4169 25.0105C32.4327 25.545 31.6551 26.4037 31.242 27.404C30.9383 28.1168 30.5333 30.235 30.5292 30.2674C30.104 32.6123 29.861 36.3423 29.8691 40.4977C29.861 44.4261 30.0797 48.0266 30.4644 50.3675C30.4685 50.3918 30.9261 53.0121 31.404 53.9396C32.2383 55.5515 33.9312 56.5762 35.7213 56.5762ZM36.2973 31.3199C36.3297 31.1335 36.3864 30.8582 36.4472 30.5787C36.6659 30.6597 36.8603 30.7326 36.9858 30.7812C40.4972 32.1461 48.2367 37.3625 50.7761 40.08L51.1163 40.4405C51.1365 40.4607 51.1527 40.481 51.173 40.5012C51.1284 40.5417 51.0879 40.5862 51.0515 40.6268C51.0474 40.6349 50.8368 40.8738 50.8166 40.8698C48.3582 43.5266 41.0115 48.5283 37.2612 50.1078C37.2084 50.1294 37.1472 50.1536 37.0803 50.1797C37.025 50.2012 36.9659 50.224 36.9044 50.2478L36.9008 50.2491C36.7585 50.3041 36.6037 50.3639 36.4553 50.4237C36.3702 50.0511 36.2933 49.6664 36.2528 49.4153C35.9207 47.4105 35.7263 44.0733 35.7303 40.4972C35.7263 36.7874 35.945 33.2679 36.2973 31.3199Z" fill="white"/>
</svg>
