<svg width="26" height="26" viewBox="0 0 26 26" fill="none" xmlns="http://www.w3.org/2000/svg">
<path fill-rule="evenodd" clip-rule="evenodd" d="M25.708 12.1673C25.5211 12.352 25.268 12.4542 25.0053 12.4512V12.4283C24.4559 12.4283 24.0106 11.983 24.0106 11.4336V8.12929C24.0106 4.16183 21.8382 1.98945 17.8821 1.98945H8.12929C4.17326 1.98945 1.98945 4.17326 1.98945 8.12929V17.8821C1.98945 21.8267 4.17326 24.0106 8.12929 24.0106H17.8821C21.8382 24.0106 24.0106 21.8267 24.0106 17.8821C24.0106 17.3328 24.4559 16.8874 25.0053 16.8874C25.5546 16.8874 26 17.3328 26 17.8821C26 22.8901 22.8901 26 17.8821 26H8.12929C3.10994 26 0 22.8901 0 17.8821V8.12929C0 3.10994 3.10994 0 8.12929 0H17.8821C22.8672 0 26 3.10994 26 8.12929V11.4679C26 11.7307 25.8949 11.9825 25.708 12.1673ZM13.0457 7.60321C13.1519 7.60318 13.2563 7.62033 13.3552 7.6531C13.7708 7.77244 14.0748 8.15536 14.0748 8.60929V11.7193H17.4591C17.5755 11.7179 17.69 11.7373 17.7977 11.7752C17.95 11.8228 18.09 11.9071 18.2043 12.0227C18.389 12.2096 18.4912 12.4626 18.4882 12.7254C18.4883 13.2659 18.0568 13.7077 17.5163 13.7201H17.4477H8.6553C8.5714 13.7182 8.49009 13.7061 8.41255 13.6849C7.96552 13.5853 7.63147 13.1889 7.6262 12.714C7.62314 12.4513 7.72539 12.1982 7.91012 12.0113C8.09486 11.8245 8.34671 11.7193 8.60949 11.7193H12.0396V8.59793C12.0519 8.0493 12.497 7.60924 13.0457 7.60321ZM12.0626 17.3563V16.2129V16.0986C12.0715 15.8347 12.185 15.5852 12.378 15.4051C12.571 15.225 12.8277 15.1289 13.0916 15.1382C13.3565 15.1441 13.6078 15.2566 13.7886 15.4503C13.9694 15.644 14.0644 15.9025 14.052 16.1672V17.4249C14.0431 17.6888 13.9296 17.9383 13.7366 18.1184C13.5436 18.2986 13.2868 18.3946 13.023 18.3853C12.4763 18.3606 12.0496 17.9034 12.0626 17.3563Z" fill="#AAAAAA"/>
</svg>
