<svg width="201" height="34" viewBox="0 0 201 34" fill="none" xmlns="http://www.w3.org/2000/svg">
<path d="M47.7736 6.4443C42.1779 6.4443 40.1983 9.67724 40.1983 12.7701C40.1983 17.1885 43.6675 18.0937 46.7741 18.8911C48.93 19.4623 50.792 19.9688 50.792 21.6391C50.792 22.512 50.3314 23.9453 47.2053 23.9453C45.0654 23.8943 42.9878 23.144 41.2371 21.79L39.8651 25.2061C42.0267 26.7784 44.5751 27.5834 47.166 27.5123C51.7916 27.5123 54.8002 25.0337 54.8002 21.2188C54.8002 16.9082 51.2722 16.003 48.195 15.1948C46.039 14.6236 44.1771 14.1171 44.1771 12.4791C44.1771 10.3238 46.6368 10.0329 47.7344 10.0329C48.9119 9.96511 50.0856 10.2284 51.1448 10.798L54.0848 8.38405C52.1641 7.10689 49.9689 6.41507 47.7246 6.37964L47.7736 6.4443ZM96.5478 6.77836V27.2537H100.566V21.4667H104.554L108.112 27.2537H112.404L108.327 20.5938C109.488 20.0752 110.475 19.1766 111.155 18.0199C111.835 16.8632 112.176 15.5044 112.13 14.1279C112.13 9.61256 109.082 6.7999 104.221 6.7999H96.5576L96.5478 6.77836ZM182.571 6.77836V27.2537H186.589V19.0204H189.088L195.233 27.2537H200.407L192.195 16.682L199.378 6.81069H194.782L188.814 15.572H186.589V6.81069H182.571V6.77836ZM78.7512 6.77836V27.2537H92.814V23.8376H82.7691V18.6217H91.3833V15.2056H82.7985V10.2161H88.6785L92.8826 6.7999H78.7512V6.77836ZM146.576 6.77836L138.57 27.2537H142.647L144.303 23.1479H152.819L154.338 27.2645H158.571L150.732 6.78912H146.625L146.576 6.77836ZM161.09 6.77836V27.2537H164.951V13.8801L174.173 27.2645H177.975V6.78912H174.144V20.2382L164.883 6.81069H161.08L161.09 6.77836ZM58.5143 6.77836V27.2537H67.8635C72.489 27.2537 75.0468 25.2816 75.0468 21.7361C75.1014 20.6139 74.8098 19.5042 74.2193 18.5869C73.6288 17.6695 72.7739 16.9983 71.7932 16.682L71.607 16.6173L71.7932 16.5203C72.5263 16.095 73.1367 15.453 73.5558 14.6666C73.9748 13.8802 74.1857 12.9808 74.1648 12.0696C74.1648 8.76124 71.607 6.82145 67.3049 6.82145H58.4849L58.5143 6.77836ZM120.616 6.77836V27.2537H129.926C134.552 27.2537 137.11 25.2816 137.11 21.7361C137.149 20.6212 136.851 19.5235 136.262 18.6147C135.673 17.706 134.827 17.0377 133.856 16.7143L133.67 16.6173L133.856 16.5203C134.592 16.0989 135.205 15.4578 135.625 14.6705C136.044 13.8832 136.253 12.9817 136.228 12.0696C136.228 8.76124 133.67 6.82145 129.368 6.82145H120.548L120.616 6.77836ZM62.5323 10.1514H66.7953C69.5 10.1514 70.0489 11.52 70.0489 12.6623C70.0489 14.3003 68.9219 15.1732 66.7953 15.1732H62.5323V10.1514ZM128.897 10.1514C131.573 10.1514 132.151 11.52 132.151 12.6623C132.151 14.3003 131.024 15.1732 128.897 15.1732H124.634V10.1837H128.897V10.1514ZM100.566 10.1514H104.123C106.71 10.1514 108.112 11.5523 108.112 14.0633C108.112 16.5742 106.71 18.0829 104.123 18.0829H100.566V10.1514ZM148.585 11.423L151.525 19.6239H145.479L148.585 11.423ZM62.5323 18.5463H67.5205C69.8038 18.5463 70.9602 19.4192 70.9602 21.1542C70.9602 22.8892 69.8332 23.7621 67.5205 23.7621H62.5323V18.5463ZM124.634 18.5463H129.603C131.886 18.5463 133.043 19.4192 133.043 21.1542C133.043 22.8892 131.916 23.7621 129.603 23.7621H124.615L124.634 18.5463Z" fill="#808781"/>
<path d="M27.6857 6.64917C28.4132 7.6997 29.0343 8.83433 29.5379 10.033L15.4751 21.4453L9.59511 17.361V12.4792L15.4751 16.5312L27.6857 6.64917Z" fill="#808781"/>
<path d="M3.55738 17.005C3.54226 16.7826 3.54226 16.5592 3.55738 16.3368L6.21515e-07 16.1321C6.21515e-07 16.4015 6.21515e-07 16.7032 6.21515e-07 16.9726C-0.000575926 19.2054 0.399977 21.4163 1.17863 23.4783C1.95729 25.5403 3.09872 27.4129 4.53737 28.9884L7.06573 26.2081C5.95444 25.0077 5.07249 23.5753 4.47169 21.9949C3.87089 20.4145 3.56339 18.7179 3.56718 17.005H3.55738Z" fill="url(#paint0_linear_252_665)"/>
<path d="M15.4258 3.96583C15.6281 3.94921 15.8312 3.94921 16.0334 3.96583L16.2196 0.0539558H15.4552C13.4248 0.0533218 11.4143 0.493791 9.53914 1.35004C7.66398 2.20629 5.96109 3.46146 4.52832 5.04348L7.05672 7.82383C8.15061 6.6052 9.4537 5.63757 10.8904 4.97714C12.327 4.31672 13.8687 3.97664 15.4258 3.97662V3.96583Z" fill="url(#paint1_linear_252_665)"/>
<path d="M15.4257 30.0775C15.2234 30.0941 15.0204 30.0941 14.8181 30.0775L14.6319 33.9894H15.3963C17.4267 33.99 19.4372 33.5495 21.3124 32.6933C23.1876 31.837 24.8904 30.5819 26.3232 28.9998L23.7654 26.2195C22.6779 27.4474 21.376 28.4212 19.9379 29.0823C18.4998 29.7434 16.955 30.0782 15.3963 30.0667L15.4257 30.0775Z" fill="url(#paint2_linear_252_665)"/>
<path d="M22.1177 6.22881L25.1263 3.78256C22.3778 1.33729 18.9499 0.00220383 15.4146 0V3.91187C17.8051 3.9281 20.1364 4.73132 22.1079 6.21802L22.1177 6.22881Z" fill="url(#paint3_linear_252_665)"/>
<path d="M30.8894 17.0048C30.885 15.9825 30.803 14.9624 30.6444 13.9551L27.3321 16.6707V17.0048C27.3398 18.8344 26.9943 20.6449 26.3186 22.3168C25.6429 23.9887 24.6522 25.4839 23.4121 26.7037L25.8131 29.6133C27.4154 28.0201 28.6953 26.0744 29.5698 23.9023C30.4443 21.7302 30.8939 19.3803 30.8894 17.0048Z" fill="#808781"/>
<path d="M15.4248 30.0774C13.761 30.0859 12.1145 29.7061 10.5941 28.963C9.07374 28.22 7.71402 27.1306 6.60484 25.7668L3.95888 28.4071C5.40226 30.1715 7.16765 31.5815 9.1399 32.5452C11.1122 33.5089 13.247 34.0047 15.4052 34.0001L15.4248 30.0774Z" fill="url(#paint4_linear_252_665)"/>
<path d="M7.48723 7.30639L5.08624 4.39673C3.47926 5.98637 2.19555 7.93119 1.3191 10.1039C0.442636 12.2766 -0.0068322 14.6284 7.84963e-05 17.0052H3.55745C3.5547 15.1765 3.90235 13.3677 4.57776 11.6966C5.25317 10.0255 6.24118 8.52958 7.47742 7.30639H7.48723Z" fill="url(#paint5_linear_252_665)"/>
<defs>
<linearGradient id="paint0_linear_252_665" x1="3.27091" y1="25.377" x2="-1.07086" y2="14.0808" gradientUnits="userSpaceOnUse">
<stop offset="0.14" stop-color="#D7D7D7"/>
<stop offset="0.3" stop-color="#BFBFBF"/>
<stop offset="0.58" stop-color="#C2C2C2"/>
<stop offset="0.89" stop-color="#AFAFAF"/>
</linearGradient>
<linearGradient id="paint1_linear_252_665" x1="6.4201" y1="7.82426" x2="15.8825" y2="4.52067" gradientUnits="userSpaceOnUse">
<stop offset="0.06" stop-color="#999999"/>
<stop offset="0.54" stop-color="#666666"/>
<stop offset="0.92" stop-color="#606060"/>
<stop offset="0.984" stop-color="#575757"/>
</linearGradient>
<linearGradient id="paint2_linear_252_665" x1="15.283" y1="33.6807" x2="26.4102" y2="31.411" gradientUnits="userSpaceOnUse">
<stop offset="0.12" stop-color="#AAAAAA"/>
<stop offset="0.28" stop-color="#808080"/>
<stop offset="0.87" stop-color="#7E7E7E"/>
</linearGradient>
<linearGradient id="paint3_linear_252_665" x1="14.2139" y1="5.22574" x2="23.5368" y2="7.78105" gradientUnits="userSpaceOnUse">
<stop offset="0.06" stop-color="#6C6C6C"/>
<stop offset="0.79" stop-color="#595959"/>
</linearGradient>
<linearGradient id="paint4_linear_252_665" x1="4.75218" y1="29.3193" x2="14.7423" y2="32.7464" gradientUnits="userSpaceOnUse">
<stop offset="0.13" stop-color="#DCDCDC"/>
<stop offset="0.3" stop-color="#C5C5C5"/>
<stop offset="0.53" stop-color="#B2B2B2"/>
<stop offset="0.8" stop-color="#AAAAAA"/>
<stop offset="0.98" stop-color="#9C9C9C"/>
</linearGradient>
<linearGradient id="paint5_linear_252_665" x1="2.70937" y1="18.2826" x2="7.34044" y2="7.3055" gradientUnits="userSpaceOnUse">
<stop offset="0.07" stop-color="#C6C6C6"/>
<stop offset="0.26" stop-color="#ACACAC"/>
<stop offset="0.92" stop-color="#989898"/>
</linearGradient>
</defs>
</svg>
