<svg width="50" height="50" viewBox="0 0 50 50" fill="none" xmlns="http://www.w3.org/2000/svg">
<path d="M25.0569 0H24.9431C11.1674 0 0 11.1674 0 24.9431V25.0569C0 38.8326 11.1674 50 24.9431 50H25.0569C38.8326 50 50 38.8326 50 25.0569V24.9431C50 11.1674 38.8326 0 25.0569 0Z" fill="#383D38"/>
<path d="M9.46983 24.1477C9.5399 24.1127 9.61 24.0794 9.67832 24.0479C10.866 23.4978 12.0694 22.9828 13.2711 22.4678C13.336 22.4678 13.4445 22.3925 13.5058 22.3679C13.5987 22.3276 13.6915 22.2891 13.7844 22.2488C13.9631 22.1717 14.1418 22.0964 14.3187 22.0193C14.676 21.8669 15.0316 21.7145 15.389 21.5621L17.5278 20.646C18.9538 20.0364 20.3815 19.425 21.8074 18.8154C23.2333 18.2058 24.661 17.5944 26.0869 16.9848C27.5128 16.3752 28.9405 15.7639 30.3664 15.1543C31.7923 14.5447 33.22 13.9333 34.6459 13.3237C34.963 13.187 35.3063 12.9838 35.6462 12.9243C35.9317 12.8735 36.2102 12.7754 36.4975 12.7211C37.0423 12.6177 37.6431 12.5757 38.1651 12.8017C38.3456 12.8805 38.512 12.9909 38.6504 13.1292C39.3125 13.7844 39.2197 14.86 39.0796 15.7814C38.1038 22.2033 37.1281 28.6269 36.1506 35.0488C36.0175 35.9299 35.8353 36.8969 35.1399 37.4539C34.5513 37.9252 33.714 37.9777 32.987 37.778C32.26 37.5766 31.6189 37.1544 30.99 36.7392C28.3817 35.012 25.7716 33.2848 23.1632 31.5576C22.5431 31.1477 21.8529 30.6116 21.8599 29.8671C21.8635 29.4187 22.1314 29.0193 22.4047 28.6637C24.6715 25.7068 27.942 23.6747 30.3751 20.8544C30.7185 20.4568 30.9883 19.7386 30.517 19.5091C30.2368 19.3725 29.9144 19.5581 29.6587 19.7351C26.4425 21.9685 23.2281 24.2038 20.0118 26.4372C18.9626 27.166 17.8625 27.9157 16.5977 28.0944C15.4661 28.2555 14.3274 27.9402 13.2326 27.6179C12.3147 27.3481 11.3985 27.0714 10.4858 26.7858C10.0006 26.6352 9.49961 26.4723 9.12474 26.1307C8.74986 25.7891 8.53443 25.2145 8.7604 24.7591C8.90229 24.4735 9.17732 24.2931 9.46636 24.1459L9.46983 24.1477Z" fill="#FEFFFC"/>
</svg>
