<svg width="50" height="50" viewBox="0 0 50 50" fill="none" xmlns="http://www.w3.org/2000/svg">
<path d="M25.0569 0H24.9431C11.1674 0 0 11.1674 0 24.9431V25.0569C0 38.8326 11.1674 50 24.9431 50H25.0569C38.8326 50 50 38.8326 50 25.0569V24.9431C50 11.1674 38.8326 0 25.0569 0Z" fill="#383D38"/>
<path d="M37.0861 18.0884V22.8093C36.261 22.7288 35.1889 22.5413 34.003 22.1069C32.4545 21.5393 31.3018 20.7633 30.5468 20.1625V29.7042L30.5276 29.6744C30.5398 29.8636 30.5468 30.0563 30.5468 30.2508C30.5468 34.9892 26.6912 38.8466 21.951 38.8466C17.2108 38.8466 13.3552 34.9892 13.3552 30.2508C13.3552 25.5123 17.2108 21.6532 21.951 21.6532C22.4152 21.6532 22.8707 21.69 23.3156 21.7618V26.4144C22.8882 26.262 22.4293 26.1797 21.951 26.1797C19.707 26.1797 17.88 28.005 17.88 30.2508C17.88 32.4965 19.707 34.3218 21.951 34.3218C24.195 34.3218 26.0221 32.4947 26.0221 30.2508C26.0221 30.1667 26.0203 30.0826 26.0151 29.9985V11.4563H30.7325C30.75 11.8557 30.7658 12.2586 30.7833 12.658C30.8149 13.4445 31.0951 14.1995 31.5839 14.8179C32.1567 15.5449 33.0028 16.3892 34.1905 17.0636C35.3028 17.6925 36.3469 17.964 37.0861 18.0919V18.0884Z" fill="white"/>
</svg>
