<svg width="268" height="47" viewBox="0 0 268 47" fill="none" xmlns="http://www.w3.org/2000/svg">
<path d="M0 0H46.4026V23.2567C46.4026 29.2205 43.2201 34.7188 38.0345 37.7118L23.2124 46.2474L8.3903 37.7118C3.20478 34.741 0.0222551 29.2205 0.0222551 23.2567V0H0Z" fill="#D9D9D9"/>
<path fill-rule="evenodd" clip-rule="evenodd" d="M12.7302 12.238V19.4656C13.7317 18.3571 15.5344 17.6033 17.5819 17.6033H19.8297V26.0058C19.8297 28.245 19.2288 30.196 18.3163 31.2824H28.0642C27.1517 30.196 26.5508 28.245 26.5508 26.0058V17.6033H28.7986C30.8684 17.6033 32.6711 18.3571 33.6503 19.4656V12.238H12.7302Z" fill="#6C6C6C"/>
<path d="M256.272 11.1519V13.0807C263.616 13.2359 268 16.3176 268 21.7493C268 27.181 263.616 30.0188 256.272 30.1962V32.125H250.463V30.1962C243.163 30.041 238.779 27.2032 238.779 21.7493C238.779 16.3176 243.163 13.2359 250.463 13.0807V11.1519H256.272ZM250.463 26.1169V17.2044C246.457 17.3596 244.677 19.1997 244.677 21.7715C244.677 24.3211 246.457 25.9617 250.463 26.1169ZM256.272 17.2044V26.1169C260.322 25.9617 262.058 24.3211 262.058 21.7493C262.058 19.1997 260.344 17.3596 256.272 17.2044Z" fill="#6C6C6C"/>
<path d="M225.203 11.1519V13.0807C232.547 13.2359 236.931 16.3176 236.931 21.7493C236.931 27.181 232.547 30.0188 225.203 30.1962V32.125H219.394V30.1962C212.094 30.041 207.71 27.2032 207.71 21.7493C207.71 16.3176 212.094 13.2359 219.394 13.0807V11.1519H225.203ZM219.372 26.1169V17.2044C215.366 17.3596 213.586 19.1997 213.586 21.7715C213.608 24.3211 215.366 25.9617 219.372 26.1169ZM225.203 17.2044V26.1169C229.253 25.9617 230.989 24.3211 230.989 21.7493C230.989 19.1997 229.253 17.3596 225.203 17.2044Z" fill="#6C6C6C"/>
<path d="M193.333 11.728C201.122 11.728 205.818 16.1178 205.818 21.7934C205.818 27.469 201.122 31.8587 193.333 31.8587C185.499 31.8587 180.803 27.469 180.803 21.7934C180.826 16.1178 185.521 11.728 193.333 11.728ZM193.333 27.2251C197.183 27.2251 199.72 24.8972 199.72 21.7934C199.72 18.6674 197.183 16.406 193.333 16.406C189.438 16.406 186.946 18.6895 186.946 21.7934C186.946 24.9194 189.438 27.2251 193.333 27.2251Z" fill="#6C6C6C"/>
<path d="M166.671 24.0771H165.069V31.2824H159.26V12.2603H165.069V19.4213H166.671L173.704 12.2603H181.003L171.701 21.3501L181.382 31.2603H173.637L166.671 24.0771Z" fill="#6C6C6C"/>
<path d="M147.62 31.2824H135.825V12.2603H141.656V17.3594H147.643C149.089 17.3594 150.603 17.4038 151.893 17.8694C154.586 18.867 156.278 21.0619 156.278 24.2323C156.278 27.5578 154.319 29.9965 151.293 30.839C150.135 31.1494 148.933 31.2824 147.62 31.2824ZM146.597 21.8379H141.611V26.671H146.597C147.598 26.671 148.244 26.671 148.889 26.3828C149.801 25.9837 150.38 25.1412 150.38 24.1436C150.38 23.1902 149.824 22.3921 148.844 22.0596C148.177 21.8379 147.398 21.8379 146.597 21.8379Z" fill="#6C6C6C"/>
<path d="M125.588 24.1881H116.24V31.2605H110.432V12.2383H116.24V19.1998H125.588V12.2383H131.396V31.2605H125.588V24.1881Z" fill="#6C6C6C"/>
<path d="M90.8245 23.3235L100.862 12.2383H106.003V31.2605H100.194V20.1753L90.1568 31.2605H85.0158V12.2383H90.8245V23.3235Z" fill="#6C6C6C"/>
<path d="M74.3333 31.2824H68.302V17.3373H60.023V12.2603H82.59V17.3373H74.3333V31.2824Z" fill="#6C6C6C"/>
</svg>
